<mxfile host="65bd71144e">
    <diagram id="V2GPHOafZBSYTunWn3hC" name="ページ1">
        <mxGraphModel dx="797" dy="331" grid="1" gridSize="10" guides="1" tooltips="1" connect="1" arrows="1" fold="1" page="1" pageScale="1" pageWidth="827" pageHeight="1169" math="0" shadow="0">
            <root>
                <mxCell id="0"/>
                <mxCell id="1" parent="0"/>
                <mxCell id="14" style="edgeStyle=none;html=1;endArrow=classicThin;endFill=1;strokeColor=#FF8000;strokeWidth=2;" edge="1" parent="1" source="2" target="5">
                    <mxGeometry relative="1" as="geometry"/>
                </mxCell>
                <mxCell id="15" style="edgeStyle=none;html=1;endArrow=classicThin;endFill=1;strokeColor=#FF8000;strokeWidth=2;" edge="1" parent="1" source="2" target="11">
                    <mxGeometry relative="1" as="geometry">
                        <Array as="points">
                            <mxPoint x="300" y="136"/>
                        </Array>
                    </mxGeometry>
                </mxCell>
                <mxCell id="17" style="edgeStyle=none;html=1;endArrow=classicThin;endFill=1;strokeColor=#FF8000;strokeWidth=2;" edge="1" parent="1" source="2" target="7">
                    <mxGeometry relative="1" as="geometry"/>
                </mxCell>
                <mxCell id="2" value="Functions" style="shape=image;verticalLabelPosition=bottom;labelBackgroundColor=#ffffff;verticalAlign=top;aspect=fixed;imageAspect=0;image=data:image/svg+xml,PHN2ZyB4bWxucz0iaHR0cDovL3d3dy53My5vcmcvMjAwMC9zdmciIGlkPSJhMmM4ODMwNi1mYTAzLTRlNWItYjE5Mi00MDFmMGI3NzgwOGIiIHdpZHRoPSIxOCIgaGVpZ2h0PSIxOCIgdmlld0JveD0iMCAwIDE4IDE4Ij48ZGVmcz48bGluZWFyR3JhZGllbnQgaWQ9ImI0MDNhY2E3LWYzODctNDQzNC05NmI0LWFlMTU3ZWRjODM1ZiIgeDE9Ii0xNzUuOTkzIiB5MT0iLTM0My43MjMiIHgyPSItMTc1Ljk5MyIgeTI9Ii0zNTkuMjMyIiBncmFkaWVudFRyYW5zZm9ybT0idHJhbnNsYXRlKDIxMi41NzMgMzcwLjU0OCkgc2NhbGUoMS4xNTYgMS4wMjkpIiBncmFkaWVudFVuaXRzPSJ1c2VyU3BhY2VPblVzZSI+PHN0b3Agb2Zmc2V0PSIwIiBzdG9wLWNvbG9yPSIjZmVhMTFiIi8+PHN0b3Agb2Zmc2V0PSIwLjI4NCIgc3RvcC1jb2xvcj0iI2ZlYTUxYSIvPjxzdG9wIG9mZnNldD0iMC41NDciIHN0b3AtY29sb3I9IiNmZWIwMTgiLz48c3RvcCBvZmZzZXQ9IjAuOCIgc3RvcC1jb2xvcj0iI2ZmYzMxNCIvPjxzdG9wIG9mZnNldD0iMSIgc3RvcC1jb2xvcj0iI2ZmZDcwZiIvPjwvbGluZWFyR3JhZGllbnQ+PC9kZWZzPjx0aXRsZT5JY29uLWNvbXB1dGUtMjk8L3RpdGxlPjxnPjxwYXRoIGQ9Ik0yLjM3LDcuNDc1SDMuMmEuMjY3LjI2NywwLDAsMSwuMjY3LjI2N3Y2LjE0OGEuNTMzLjUzMywwLDAsMS0uNTMzLjUzM0gyLjFhMCwwLDAsMCwxLDAsMFY3Ljc0MWEuMjY3LjI2NywwLDAsMSwuMjY3LS4yNjdaIiB0cmFuc2Zvcm09InRyYW5zbGF0ZSgxMi41MDcgMTYuNzA1KSByb3RhdGUoMTM0LjkxOSkiIGZpbGw9IiM1MGU2ZmYiLz48cGF0aCBkPSJNMi4zMjUsMy42aC44MzNhLjI2Ny4yNjcsMCwwLDEsLjI2Ny4yNjd2Ni41ODNhMCwwLDAsMCwxLDAsMEgyLjU5MWEuNTMzLjUzMywwLDAsMS0uNTMzLS41MzNWMy44NjVBLjI2Ny4yNjcsMCwwLDEsMi4zMjUsMy42WiIgdHJhbnNmb3JtPSJ0cmFuc2xhdGUoNS43NTkgMC4xMTQpIHJvdGF0ZSg0NC45MTkpIiBmaWxsPSIjMTQ5MGRmIi8+PC9nPjxnPjxwYXRoIGQ9Ik0xNC41Myw3LjQ3NWguODMzYS41MzMuNTMzLDAsMCwxLC41MzMuNTMzdjYuMTQ4YS4yNjcuMjY3LDAsMCwxLS4yNjcuMjY3SDE0LjhhLjI2Ny4yNjcsMCwwLDEtLjI2Ny0uMjY3VjcuNDc1YTAsMCwwLDAsMSwwLDBaIiB0cmFuc2Zvcm09InRyYW5zbGF0ZSgxMi4yMjMgLTcuNTU1KSByb3RhdGUoNDUuMDgxKSIgZmlsbD0iIzUwZTZmZiIvPjxwYXRoIGQ9Ik0xNS4xMDgsMy42aC44MzNhMCwwLDAsMCwxLDAsMHY2LjU4M2EuMjY3LjI2NywwLDAsMS0uMjY3LjI2N2gtLjgzM2EuMjY3LjI2NywwLDAsMS0uMjY3LS4yNjdWNC4xMzFhLjUzMy41MzMsMCwwLDEsLjUzMy0uNTMzWiIgdHJhbnNmb3JtPSJ0cmFuc2xhdGUoMzEuMDIyIDEuMjIyKSByb3RhdGUoMTM1LjA4MSkiIGZpbGw9IiMxNDkwZGYiLz48L2c+PHBhdGggZD0iTTguNDU5LDkuOUg0Ljg3YS4xOTMuMTkzLDAsMCwxLS4yLS4xODEuMTY2LjE2NiwwLDAsMSwuMDE4LS4wNzVMOC45OTEsMS4xM2EuMjA2LjIwNiwwLDAsMSwuMTg2LS4xMDZoNC4yNDVhLjE5My4xOTMsMCwwLDEsLjIuMTgxLjE2NS4xNjUsMCwwLDEtLjAzNS4xTDguNTM0LDcuOTY2aDQuOTI4YS4xOTMuMTkzLDAsMCwxLC4yLjE4MS4xNzYuMTc2LDAsMCwxLS4wNTIuMTIyTDUuNDIxLDE2Ljc4OGMtLjA3Ny4wNDYtLjYyNC41LS4zNTYtLjE4OWgwWiIgZmlsbD0idXJsKCNiNDAzYWNhNy1mMzg3LTQ0MzQtOTZiNC1hZTE1N2VkYzgzNWYpIi8+PC9zdmc+;" vertex="1" parent="1">
                    <mxGeometry x="260" y="45.540000000000006" width="32" height="32" as="geometry"/>
                </mxCell>
                <mxCell id="13" style="edgeStyle=none;html=1;endArrow=classicThin;endFill=1;strokeColor=#FF8000;strokeWidth=2;" edge="1" parent="1" source="4" target="3">
                    <mxGeometry relative="1" as="geometry"/>
                </mxCell>
                <mxCell id="4" value="Data Collection&#10;Rule" style="shape=image;verticalLabelPosition=bottom;labelBackgroundColor=#ffffff;verticalAlign=top;aspect=fixed;imageAspect=0;image=data:image/png,iVBORw0KGgoAAAANSUhEUgAAAHcAAAB4CAYAAADIb21fAAAAAXNSR0IArs4c6QAAAARnQU1BAACxjwv8YQUAAAAJcEhZcwAADsMAAA7DAcdvqGQAAAyhSURBVHhe7Z1rbBTXFceP8drGsgnCa5ukSUowlEeSth+qthGqKvURmipE6pcqaniEtPSlSqlaRX2Ifm0/9EPVfks/NE+I1FeqFIiSqB9alYCqShiISIBQYR4mQAzY2Ky9tnfdc+5jPTO+M/fO7hls797f+vrc/9yZu+s559w7dzzgphkEPHXJEmU9dUgmzi2VAcan/IDAzVhxJtV5ZR+WLw5Pw+snivDme+OomrBQ995y2U2rW+Ar97fDg3e1oE6G1bn/G5qGvf8twLHBKbXFkwUfWb4EdnymAz69qlVtMcM6LL93eRr6L04CxUsZi7fZ2MHhEhy5aE8gVucO4pBM6KHA2+zshRvyXCfB6txiCd+YIgzr3mZrR8bxqtVCBlfLNPmTUdZrZZi1A6zOpaiiOcGX21Ns8DqXvkUDy+swXLqSyfGwD8sUURRUYm5A63V22gZ/5mJokZ1R1utstAu8mYvvKiPMl+yLOucJVO5QFcoz0F8EuInLmZxzbIR56+QEvHt5EmNL+FlMC9R7w2lcpczcwhOJJ5OlP4O+d0UOnn28C2vxCOdexvXwnpES/OsWdSG6EY0Sr6vRMzemoHx6AmaGJlEG2oV3atcfXdEMv388rzaaEcPyP2+VlWOJQEcCr8O46aYVLbBkzVJo6sgJXSHoKKJqHdluQDj3yHgZA4IKjuVlZb2uWUM+B+VmSja5LuW0VGwI547RnazovjORyPDtYRzbhSNEbXYXLmtDOLfyAUIWa8bt2vp2l3ZRn61iYdL0PhZ4l0KeOdD6VFoJt05COpeiAZdCIiq85bU491bmS3SJsEzaRiVzZTx4y20FIYFw6xjEOvd7Fybh/JT6/SAFRPDgBL0VF9K9ueR3euX6NFwpBaIsRf+CRa6LB28CjFLOyc1cdhWe++ee6MZaPLPOnUTnuvSq7MOdzfCjXvtDWsdxmfXzD+jRGxQO/dabJefOoHO5WdWVg+e/kezc2avlYKnMF/G6J7I2T8Klv7rV6NdQG2OxITL3u+eLMnNTsBUjZ1uXW+b+bLAoAjkK9bFY+MdoCa5U8Sx28eAozIyVbAme2lLmvvBED9biUc6dgHPFdMPythUtsC3v4twS/JScGzn+E0ub4df3tNEui4K4n8NmiwfHoIyBwc196NwXtyY717zOpQ+G0GcUKF0hqm3UevxCw/H8VNp1hdtaCM+5aeYSVw/hbjUdv0C4jENyOc35UbqyRuW2DudPDMvfOTcuhmUKCDrExW7FIXl7PvmJd+J4AYezixP4YcLH97Y0wSfbm4U19b/Q7DG8dngHfxbX/bUdfxuHZZxzJbgFHSMaBNXr+/B652XLsCyc++2BApynOdcAdjXbd4Bt6Njt3XbnHiPnXhgX/ZiI61+z2NsLh27hUiibOXfPtl6lzKg5N+7jyawycXWafiw7V6aSBpD4/iWLv12jzwGXdUFm7tkCDsvpomtlyxLYvDwnbBzk2LdGpoVtVAqH6GqZ/+dfjcPy3u3JmVu1cz1uhJ1LmRzMveo1zbmvWJwbuUOl695y2TL6FQ1e5ZKlq10eTXUb8WOqhw3tBl5LWZxMJHN9YS/0ysJiseEzN2PIBfT0hMlS9lXb7oK4oPrWmVEYqNzEoENlJza9aVkLyHv/wTfTewJcx+XSqfFpYV36q0c9huvckngCkZe+fAv8ccdKpcwYnKs/ZLJ9CB27o8d+4//0RAl+e0nexHDpt95sVs5djc79k8W5as6lgjEnSjlQj9f6t3WnMTMP3CjCfixRS+RzGMWG4xtFo8IrXP5CfdsQmfvN9ylzS06RqO2jXa2wZUWbdOb1yTntXbkl8MtVHXBtugy/OHfL2A8N66btC9GeGi/h9EKucttf29HDmLmjpLDQvxYQTlF71KD78jn485N3Yj0e4dynTt9MfRNjS1ebKPuvY5ZiiZJvIed2wrWpMuw+N6a2zrKuvRl+fHeHUgsfGqF+M1hQyp3Rw4XwsKx9palS93W1wF92JjvXXy1nDP3DA/IHFYJNo7Uh51x6YbqLUg7ULVocGWyjEm2n78Z2+c6Lp+D30OdXJYXWcyWXtiGH5VMjMIBXtSL96RgHS0PyY/k22HdNDcuR9jzOub9a3QlDUzOwe2DU2L4Fj+9GG9y+UO2+oSJe+U8776/tCA7L5TES5h3QTfjdcKClnebcV3fehfV4hHN3nhqWzk3BY/mlwrmHRiaNcy5dUD1zbwc6F+fcs6PiIzUi2rlh19RuaZ37t6fSOlcfrYzIfqUFSm+6oxV23tke2l8Q0XOcG2gnE9c/UQ/tw+KCijaqDaoqqEGvcXCuWudiZBnmitAYH2k/dWsKThWmhfNEmVQ2ovcNTch+UvZfL+1ohNb7ho4J6LTtclGWjMjcJ0/egAFcxzEuw7xW+sbhcSjR/1pADXoHBkuZ+5pL5tIHoYMoIqiIDrzm0eLUZmCx2JizzsXYCOF1mLR6Ppmdc4PFMH94Xb2meZK74JeVcOZGD/A6TNVa5zOfjb6ViXDm6jq9vObR9AwV1VHI7UwaXzbmzLmC6I3LaD++XVUUCe3URFLvwqVnszge4dx17TkZDbH/p5Iqvl3V3drL05i2zbPtOBVX6hzahnDuZ5fHPVFhiw7fnsTEpRJMjtCv+3COpDUqIl3CoIVNRtzEoMr+Dwvw7+GiuPN0YwojjxqxpLHUE13Jue5fr7Y0MQMTV0owjs6lehas7W6BN3bdo5SZinM5+MmBIXj1nVGlPFmytrsVnXu3UmbMF1RVQnGi12DeZmtdcpLVuXJg0vOBt9laO7yZSy+KLG+zt+qcJ8GcuQEoiYN4HaZGfdudi0El5gRaj3mbraUMtsGbuRRdaj1WCTWvpWXXdpgzl6JKzQuqeJ2VVic9AeY5V0YVva8uhNf82gXezKWXiipvs7XyHmIyzJmLb17JXrT45XU2WggLzHMuFZwX8CPQS88PjaA725pZ+7NqtDbYMzccUDLaZqlf/bUNvfDF1Xnn/SW16mTY51wZXXI9JqKsQfSythxs6OlAB3c57V+rpmKDOXMprFzvjdablWzo6YQv9dHf2HM9rjorn8ZIhnnOldHViCWIdrBpP85ig33O1W8ZjDKi3nWUjejgL6/JOx+fVrvAPOdiwYjS9z71VV1FY6nXdhPk4If78k7Hp29Xb5IAe+ZSdNGX+iat1lErMGzXVmDYrq3AsF1bgWG7tgLDdm0Fhu3aCrQ2s7G3EzavpT+FGjhOW4Fhu7YCw3b8cvAt95yLV3U62hrMJiEymIZoh35cLb1s8GauiCyKKllpNJvE/ZTBa+TfAXLtL9nKehKsD8g9/dpV+Pu79IAcvTF12zh216eSn0TUnLg6Cm+euYY1t37j7PqeVjj8g/uwHg+rc3e/PgrtucXz52TmixNXx+CNM0MVV2nS6A0Ozs3ggspj4wEcoh/BObgyf6qSSqu+kmBfCnnceGDlMvjqWvXXRap4GuO2O9eTDpHBa7tlVqK3pFVZatFUbHjnzjMPigzGq2hMSuEunZU27YB37gJBZ6N7UQcm4Ofceeb8yDgceH9InTudlXbrAm/mynf2OEKO3Xv8kppH0/1Ol66cbfhheZ6Qjv0Aa9EsdNX27PXOnQfOoWNfPnYJc09lZRWWMtgG6x2qZ/YPQ1O5NRxU1HsD6OVtbn/Fmxy7R2SsOpBOv1jHptMbe1rhyNN9uC0eVufu+usl2NM/olRjsfvza+jUJ6IzloONPW3Q/8Nk5zIPy/JqThciqKOFMG3XhTBt14UwbdeFMG3XhTBt14UwbdeFCNaTIMe+JIZi8/GmQpi2i2KLJIR5KSTnAl3E/JBQ6qk9iYGRArx4dDB0LJVa399GRhdUOqwazc6FHPvSUZpjCdd+XG0yvJmLwUT3QCniGs2aGBguwAv9ch3r2o+rxS8r2S6FbAFWx+3CsbaLpxr6d/At95xL2YtRpV8iwipKvuq0PQg59vngHBt8xRxfeaVot8GeufL/KQzcC20QrTmLjn3uqLwq5uw/qqlug3nOpciatXpuaAQ9MjEtHduvM5a3/7kaKxZ4M1fcSWlM/tB/QTh2IcHrXIdoqleG6Q9KLTB85tYx/JkbzV6vVUXBrRNgzlwqkez1WlUU3DoB5sxV1rMg8HNuHcM/587Bls6+PRlbezy3IXNt2ezbk7G1x8Pq3Ha3J008DPR0NKtaPKzOXd+ztIY486RhY+9SVYuH1bmfW9UOmz/WqZSi1nWc16qiQL2+uxUeWdehNsTD+oAccfLDSfjd29fg2f9cV1s8nHz943fA9x/qgi/0zYNzPQsH3qtlz4LCO7eO8c6tY7xz6xaA/wP6rFvO3NKuyQAAAABJRU5ErkJggg==;" vertex="1" parent="1">
                    <mxGeometry x="490" y="44.830000000000005" width="32" height="32.27" as="geometry"/>
                </mxCell>
                <mxCell id="12" style="edgeStyle=none;html=1;endArrow=classicThin;endFill=1;strokeWidth=2;strokeColor=#FF8000;" edge="1" parent="1" source="5" target="4">
                    <mxGeometry relative="1" as="geometry"/>
                </mxCell>
                <mxCell id="5" value="Data Collection&#10;Endpoint" style="shape=image;verticalLabelPosition=bottom;labelBackgroundColor=#ffffff;verticalAlign=top;aspect=fixed;imageAspect=0;image=data:image/png,iVBORw0KGgoAAAANSUhEUgAAAHAAAAB1CAYAAACWLWX4AAAAAXNSR0IArs4c6QAAAARnQU1BAACxjwv8YQUAAAAJcEhZcwAADsMAAA7DAcdvqGQAAAk2SURBVHhe7Z17bBRFHMd/7ZW2XFt7cBQKKoIPVB4BjEajJkoVH0h8xD9Eown4Ir7/QXwbotE/1MRE47/6j2+jmCDEgAoEjO+kBTFIeWixQEuLtS3X1+2d87ubaZdj92537nYey3zIdG62ZZnbz31nZm+XXlmaAAZtKae1QVNOGYGdFn0QMkI7hKKwzQmAncMAu0jBp1lG/jRE0jCvqgzmVAI0RekPa0zoBKK47xJp+KgXhRFxpLjVUyJlsOw0FIlb9CRUAjuTAA8cSkKa+MBnVWYz5taeTCReU1MGd9brOZuERmBHMg33txODnNwVKycSI7SlD6FZxLx5dARSqdRosayxx17aG3st2DGYonvTh1AI3NRnQUvCgnQqPVrIlxPa6Zw2+XJC+8iwBR8c40+wLEIh8IPuYSLhxETlFi/fbzmehB0Dep1vaC+wYwTTY08TeUymdd72DpJkndBeYDNJjWVZNEm0LqLd3E9WsXTfOhCCBJ449xVbDpO5UCe0F4jDXzY9pSk4pOqE/osYXFCyOaxEtU5oL3B+TQWkM+d0ZB4rQT0/Gsm81aYL2gtsrCy3JQiHwLEk8bTn146je9aDEAiMwPUTKkmCSIoySSquvjFeTfesB/rPgYQV02qzKRotJFkc7Wdm1tM96kMoBE6tisCz5OBnksRZFtSMgyWTxtM96kMoBCI3NUThvjPqcpLlrSysq4R35kzSavHCCN0F3d/+G4SX9xyDQ4O2N6bZdUCGrb10Sg28OCuebWhIKG+pOEzkfdXRD1vbu+HPJF7jY8ay9USw4PIp9fDgWTGYWl1BtulLKAUyWlpaYGd7B/wVGbv5JZYahtlVAE1NTXSL3oRmDnQDhS0Y6RktM6wE/U44CL3AsGMEao4RqDlGoOYYgZpjBGqOEag5RqDmGIGaYwRqjhGoOUag5hiBmmMEao4RqDnKCPz+n0G49fMj8PpPPXSL+mBfH9vUlem7LJQQiAfgNiIP69d+zB4U1cEXG/b14z/6M/2V9cKTLpAlz35fBzsoqt7rwV5sjIO9SfiI9FmGRKkCWfKcQImPK5hEfLFtt8ljyJIoTaBT8nJhSVQF7K89ebnIkChFIJPnBZSY76CJAvvgpR+iJQoXiAfBbdh048zT5N+76acPIiUKFciS52dxsvqyGExXQCD2AfviFVEShQnkSd6y2bXw5KXeD1rQYF9UkyhEIE/yUN5biyfRljqoJjFwgUyeH1De20Seqv9bSCWJgQrkHTZVTF4uqkgMTCDvsKly8nJRQWIgAnmTh/J0Q7bEkgsM04LFKzIlllRgGBcsXpElsWQCw7xg8YoMiSUReCosWLzCKxGPIQ9FC+RNno4LFq/wSMSrLk6XqQpRlEDe5IVp2HSDRyJe//SbRG6BTJ4fwjpsusGbRD8SuQTyDpuikzdQ1gWdE7ZA58QtcLDhy0z5t64Z+qr2058InqCHU9+/ZqSY5Ili/b43YM/gJhgs76ZbTqY6FYfF8adhbuMiuiVYcKWJN0F5Ba8/4jG74oz8v3zPl0CWPJ7Vpgj+GzkEH+5eBT0Ve+gWO9jrkwfvC8tuh+umPwHRaPAfpMQjEUetK/NI9CyQN3nYARFz3pHeffBh20MwFDlGt3gH07hy5lplJeZLoqc5cH2b+guWLw48BwPQDSkr7bsk0l2w9q/nyV58zSZc8MyJKzd2ZRw4UVAg/sUVa9VesHyx61XoSu0BayTNXfYNbYGf92+gewwWvxI7+pLwMJH4lYPEvAJR3nIij2fOE3mq0NL/GSSHU0WX7UfehURCzK/i8isxcTwJjzgk0VUgb/JELVgY3+x+D6xkNkWpJJAaaO2/fSy9D1q7f6R7Dh4eiblJdBTYRsZdnuTJeIfl795mSI6kMgIwRRZ5XEx7Z/tWstfg50JGsUl0FHjvNn/vjssYNhnd/e2QIimySIoyScK6iPbwEGkIhkfimh+yjhwFth52XvE4sWBatZTkMfqGu7IJIukpRd0/4n7yHyQoccUl3iV2koUN4igwVuvtRtr6ydVw9lWNmQ8ZlkVlMkYTROY0x5olzNv38fMjZPA7OYatM2MwfY43iedNzZ4XOgq85YJa+sgdlDfv6sbMhw6/TdKMHZBBeXkFOfgkQUSAc82Kt+9Pi84lexU7GeCxe4EGHwV6kbh8TtaRo8CXFtTCkoXuO2HyGDIlLmy8kZyMk+SQUop6Zuwiumcx2OUxCkk8/5xauHtGngQir18Rg5scJObKY8iSeOn5N2TTg/OYPVEc7UqrHi6eeyXdc/A4yWO4SUR525aOrTlcBU6OALxGJNqT6CaPIUNivOZ0mD3xGk/pKlQvnbWK7jV48slj5EpEeduJPPsAX/DNbJSy+vse2N4+mFeeHZT/GPl351bSDQFz8OheeOPre+B4kn8FOblqFrxy1zpycIKf/7zIs9O2qwfGDyYzycvtnaerEShxcwLg4366wQPCJXbuhTXrltAWAZ+V/dnmaUfLJ8Kam9dDPB78B4D4lYfgMXzZpWu+rgd+0qe2xNa23+Gtbx+E/uTRMUEF6obKc+Gppe9rKQ/xJRBRXSImccMv78EP/3xK/IyZSpM/9vb4yASYP/VauGfRsxCN1pBtwcIr7yUiD3vthm+BiOoSkda2ndB8YBvs7fgVegY6oHfoKNSOi8P02DyI150Ot17+gJALuAiPvKbx2WNWCC6BiA4SVSBIeYjraUQh7qgDWFb4DZtRZJ7syyJoeQi3QMRIdEeEPKQogYiReDKi5CFFC0SMxDFEykNKIhAxEsXLQ7hXoW7wrE7xSeALQGdkyENKlkAGTxK/G8iK1xVZ8pCSC0ROJYky5SGBCEROBYmy5SGBCUTCLFEFeUigApEwSlRFHhK4QCRMElWShwgRiIRBomryEGECEV6JWGSjojxEqECERyLezlHSdxs4+NTnSCBCHiJcIOJXIr5bk++qtGqIkodIEYh4lYjyFom5cJ6XR4kQ7EshRMpDpAlECklU6So+9gVvLsonUbQ8RKpAxE2iSvIY+STKkIeU/GoEL3i6wK5iqCjPDi6sVnbSBkGWPEQZgQgu1XcNZVOpOmx13FCRFSgLpQQa/CN9DjQUhxGoOUag5hiBmmMEao4RqDlGoOYYgZpjBGqOEag5RqDmGIFaA/A/75OXMZeNITkAAAAASUVORK5CYII=;" vertex="1" parent="1">
                    <mxGeometry x="382" y="44.83" width="32" height="33.43" as="geometry"/>
                </mxCell>
                <mxCell id="18" style="edgeStyle=none;html=1;endArrow=classicThin;endFill=1;strokeColor=#FF8000;strokeWidth=2;" edge="1" parent="1" source="7" target="8">
                    <mxGeometry relative="1" as="geometry"/>
                </mxCell>
                <mxCell id="20" style="edgeStyle=none;html=1;endArrow=classicThin;endFill=1;strokeColor=#FF8000;strokeWidth=2;" edge="1" parent="1" source="7" target="19">
                    <mxGeometry relative="1" as="geometry">
                        <Array as="points">
                            <mxPoint x="130" y="152"/>
                        </Array>
                    </mxGeometry>
                </mxCell>
                <mxCell id="7" value="SwitchBot&#10;Hub mini" style="shape=image;verticalLabelPosition=bottom;labelBackgroundColor=#ffffff;verticalAlign=top;aspect=fixed;imageAspect=0;image=data:image/png,iVBORw0KGgoAAAANSUhEUgAAAKYAAACpCAYAAACh3kaiAAAAAXNSR0IArs4c6QAAAARnQU1BAACxjwv8YQUAAAAJcEhZcwAADsMAAA7DAcdvqGQAAB8rSURBVHhe7Z2LciMpEkVt92Omu2dnpiM29v8/cCM2Ynee3X5snoRbSiGookqSbclcNwKSJEngVoIke+b2yXAzMPDKcJfzgYFXhUHMgVeJQcyBV4mz3zExXyZwe3vrZXKV1dYCeqfE0nhbcGofW9g6jvrFfVgL+pCOsbGEkxMTc4+Pj57u7++9/vDw4M7f3d1N5S2IC3Iqt2t2NIbyGqKcMnNrIdqhzNqQ14BcOqdCHEvl1rzWQLbI3929u7m9u715/+6953HMLTgZMZ8en26+3393MmpR2SzMq360s9afhM0TuT0LjRFz+UASGSkDHjqgekSUYYc1iQQt815I/7nWo/TPZRRs/5+sgBesy4cPHzzNPbBzOJqYdP/+PREybgxyEfNSge/yn/zdO4sKeW7kZVSLunfoeS2h3FDqsuH9UDYVyV8LNCeAXz53E+Ghzx4yMl8rIHsIs0YOOX/44QdfuzU4ipgQ8e+//56OZ0yR4sJOk3lFi70GreURKWO75up7Q56PtNIGMq2H5xZtvLoxupwKtX2S7wfzoJhVkd/lpsf97pPNjx8/OkFL+y1sJiYR8s8//9xzlkF5mnBOw/c6cklgTlOkM6hcW0rNPx5pvk5ZTq5+kr0k8CX6Mc2JLIuniEmbPXygNneB9cEma/Dly5eu430TMYmQv//+e64luLMkcxSD3Ddew0KvhTZG+RKivq4usR91EtCGaKNKSA/0jN2D0h+hNpZ01aZyeXR7VpFFmxHIo82ffvpp8WhfTUxISaQkYjKIJkUoVxnEkM4QsU2w3tOkZKulewxWTvEAp+gf56RytKu5R9T0zoGW/bnxISbQGx5T8noL8YTB7s8//zwbOVcT848//rj59u2blxlAzouYmPOomdtiArHMjOxZSuWMqa2A9cqlwz415NH89aUgP+X7VM9zbC19qS/ENSjhull9bxwX53qlv+ugFnxROe5F6St1oxoFrsiek5CXukDEJLCRf/782Y/1FlYRE6P/+c9/nOkkHJfz5FGup0Hm4ySF1tCTNLSzqDydqZwQeyPzur1Qnuo1lAas7vYZL5fB41N6g1PzHUhP/VLFUl19wtQvO1C1Y0itCYgVpYDWogbZWw3rFsekHsfcWwfJg8jbTQ5PHh4fnIwipPaaNsn++c9/TjwpsYqYv/32281ff/11QECSPkoBvPrFuIKD4VQNEzwAfea8pO9ce8ak5mPtBoQg1NjQyQxjMp+d2gGYi5PAcvr59HPBT41yrgX22hmOzIfMhtwWjfaSdVnj2I+y13IXdxkdZBllH9mPOmCP+LEVowGpf4YVsb3be/txJ+h260Tk2hcjpgjLXbMVNbuJiRrREoORjPoQlXba3DGzGCemISAr5TSJYtgw+ay+E0lQxa6fI1bVT91zW7S21zv4EFEuUbnRGGS+yGNbmucOu7knHNi1FCWTpoQV9yYTlbYWDvzPSMRMO1e2Yj75Z6/8C+Mi52whZ//TPwtazJWPzIwfkDMmxucjpK9fv2LlAN3E5EN0iMmkIOT79++nz6UwwTc/Dsu5e+zM7spyHsRBKadJ7fBExRpq+sD1TYjcdTP2bOQcZHOOmk1f6Ni5E3H5SiL2YrKR+1f9s9SsW/+tY5eQL1pTCDZZtqZEW5OT0WDj+j5ICV8sw5/bWzumjZgELvFEb5wJYuBf//pX1fduYnKM8xERg8D0H3/8cRoMUj7ZQDhNnSFlVk4fDr2DaxZuyNnJTsX5muu9eiDa1lwGjoOvP8tomfZCxNTJyhtoAh0gYsKnEu336wVkCONESnJYz0C8SeCY9qMakuYNxi0vZVktgUMqJagdlP1iW0SPjiBCnhwzw+75xj/5GMvnAuY1TjlWbnPEckb0eQ6ux0/WJ4knJNb706dP03sSfcJTojti/vvf//act/ncKyEghKQ7F1oG0eARneZfH3wP/GU6mjgTnMZ5StODl+fIR2TggOpag7xG08Ng5dwywduC/jSu+kSgh2rQl8396w12rOANSJKOROqHwOUUTeZtsp1R9UOgTUazmvRj1CSHM5zCRMtff/3VdSK6IiaMJ3GvJDkpw1OgFFGTrQJde7qXekv1GUxzsflZIffdzc+/D/amVNcnD1nsGwriyeHJZLnJEeVsJjlfSLheoU+diq+3bJJ7eV9/sgmyUD6hC8FJ0pnyYAOQ+wloJckE160ke0m5+eVUzB3VHvkC4BEBjvumZBHdxITlfoTbhZY6DmihgAZVOhZMzrcs2DuwSxWZdHLdf8jNP18o6bgCxVz33ARZb0pTW+rhycpOOOQBse7aVsd3Ita+ZtJ1WyKhJTZf0YXc23LaEcl0XNlKJMZUMngT+qGv4PX84wg6k66SkOsuspdS/yCZmltnfjlR1kMBkMEbJcD7FJVLdBOTO4HfKzm+7ccXjbtlMOwObcE0swyfFxPMdZArmrSXc6d8WhhyPWUJWjj6mKvkqPvxlhrQqoKWabOTKNmSzZxKTDqhn2AiF4pI7h8T2E2iDtdLucrum1XLcSRLgz0DinHkS9qrXZkEX1SGTxzlNXJ23TG5oJL07glD3BE0gNBhqopEEAr7c3T7uTyBMfImprbccSc+gPtFW+rgZYhZ89clyZwse4rAX2/PDXoQqHpRhbLjG4LWhM8yOW39IcyAkAQ60r0d5RzppIjud+XcCRjAyRLS0TAbus9QTqIkK627pMa+0K/pUxRbGVuIPJlJNbv1XGFx5rhFG8n7k3KdQtyItw6tbQn2CnLW0EVMvZua2/gmIWbAU5WiZb4HejERJiLJTJobJj88JVkoJF1y6VHOxPGyJT88Inloz4lybCohHWGq2ovaup/4K0Vca+1BRCkr693EFOJmC7WBeyCyRPs1eHseYmks6Ua9qWRNfi+zlB6IVB44PbS3XdyoqHQRU8bJ2fiuwXpxB0tSwm607HWX9Y9X8825h9iSR2kJGZbywMkxrbNB+1hCMva3DE6riAk0SG2gY+BuZd8OiGhVHI+pF1iK1kaEfB6sWeYan7qvQryLFdYQo0QkdumMpqOx4jjz/eqYtGTG8p3FgedCyZee/eu/o2O7jw+zkJPkTkCcbDjaS8Aa9noyxGDkq0a514vE3Otgm+uEKp6AtZjISdpjzHYiAnpPyY3v8jjKwMuiFnCQRXl/xMwoDRwD/w5JjFEEzbCWXFoJM4HNydKRD9HA8WgRcQ6LxKxFx1MREzgBNYaTM8mcpjOkwgOlPWAuJ6DPRweeF6w6qXbC1mQgylZHzFMhkhsievQ0Gd/4+IyQL5CKyOgp1x3MrZQNPDt0ErKHtX3c2/9K+2pi1pi+GTjkyeziW8NZbyrI5vwzwdTmAloyYnng2RE/x6xFyLi/tfaTRMzVZDWf7szt3c88vJ15WGE3nYSVIw88E3r2BR1xZzMx5+hTC8VzcIesiz8pSeRYtCJy5kQ5ZwOvFBPhCo74viHK4s3EPCUmYmVA7G5yZ7Uwp4HXhMrG+P7mssB2I92n4w4v9+aHVDhcPjURZQv1tvbAa4KfjOXeWpVfkI4BKmIzMedI1IcdJWWrJ2p6tM3lgdeJY5kBuol5GIy3w++XxaMyNxlGdnVLORt4pajtTU2mINQKcM9/lPvlwqmW6sJSBC7UB14nym1qnYKRkDVydhNz+UOdflRoafVl5i1rDLw4jCaHe3sIyEhqEffZIyYEL0nuzi2x7nTPxcC5Ue6V7W9JwBYhhX5inoIY8A8nayxs2HfN3Da4eaHYsHH9xCy4tMT4OcSek52KORcNNl4ewl6m+2M6ttfgeY9y99Fe1vhok6xwduBC0Apgkag1ndVH+ZZI6R8P5f8Khh/j2YTbWiBp6wPYgVeMYs9831fyZlPEXBuWJ+BbycV1/g5cIhboUuPTqjumd7d8Lfv14TiDLfjowLpG6NEfeMWwDTz8HGYZqyKmE2YlKSeEft028mwGOS8XEyXP9eZnCrcbWeKkJkFKs1Ejp3QcG8cZuA50ETPeAVbfLw/5t3uKApyUUWyCSteBN4JVRzmoEbNF1vTLGikBRcnZoxxTOdWtDlwSlq5tcKfGn1XEXHuFdZfognMLDoJBxOvE3L62OLU6YpbgiWg+FXlMWmsaLfnA9aAVEYXq19OGTcScG6hES9NJSaMl5QPXh1bgEodaQa2fmKciT2FjRMzrx5Y9PvooX43BxIEOPD8xA/wdey4PXBeW4k/zfUnG2YnpDjScGL+gcb1gb5fIOYdNxFxie4RrNt6Z6fPNgevDsafhix3lI1heN47d31XEXP0Be4isa6LswMCLRUxoOu6Ybxfxale75q0mJpGv9wN2RVj1UT+PnVYcd8y3iyUenS1i+v/5tjjKdZy7OzS3/Rq4ZISAA/ni3vein5jZbne0RC/rtvqMiHmFsD0t95X97+WNcL475oIfNK9zdeAtYR0xK0yafRIaTTxQx34AO/BKwb4W+362o7wk39pBSn23ZqJxx7xSnGBfu4gpYulddiRqD0kPiM2LicYd822A/Z89WStYFTH5pc410bKl69asaUTMt4slonYTE1Lyby3zQUlQr5mZwcvrRzM4BR7pJI5Y9+ZnJWokxs0RKa8cdS4eAEJCXA96BfrvmPavRrSeCIqO9Hj13zzJaeDKsGJfH58em/xZ9ebnVFim8sC1AOLddQSvEquO8i0E9Qhp6dTkHnilsM0uP6P2/z9oBXe3bfodfcecJZw10T4o+cYQyMn+E5jWoouY0/1wZUiOlKTv2v4Dlwt/D0Fue/6YRAfwtz2taJrzWWwllPez5FFzLrIOXB3EGHb9cYE+NX51EfNYUsWBt5J84HJx9jc/WxGJPUvyEVSvD+w3v5u7EmcnJi4RJUkiJa/lOzcq/lztCQeuATFe9p6YZyWmE/GOrzP3IQKOb4CuH1uvbke/+Wm1OSkt3VlW00C29w2QCZyodXMDV4bZK52hO2Ku/TQSwt7e3R3wLBL5gIPrhhi4AEDAWqxxfsxEoW5izhlZg/ikUJrumvbikVNp4KKhLYSAW7ZzU8R0tufItxSS51rdginEuyb64+554ch76ntp/JjjQAtdxCzJtxf1loiJg5loE5lJ2XHgkdKADJWsPnCJsL2c3jtQJ4jZG2BhiS9Cd8TcDPwofHE3TTYRNmUDV4RpT4mY4XPMiZgFJ0ocfcdUFGyBVkVEoGvAJLfCHkEXHB545Qj7yVaqLOzt/QyOjphLxMSx0jl3mBTl6OV84MKR95BsOtIDDva+gi5izpGP0LxEztIzqp5wOqYgG7hs1AJSxNJbopPcMZcutJG46Ep/xu+BN44uYkbi+R0hEG0xWgYsEXjgOhGDERCH5qJmd8RcCr1LkDNriDxwHdiy56vumLUBuqOg6ZX9B0kHWvzpI+YpboNGQjkBIUndpB64SswFpqPf/PRGPZGwzAeuH7W9XgpMRxNzLUakHOjB8xGTXxjOwRVytiItlCWNzzPfDmpceB5iZrbF4efe5fuHs+SpOvAGcTQxe45lCOnRL6t6n8G6N4Gt29xNTMi09W5IBHzERXU/jNx78GOcPFUHLhg6/dbi6IjZuiuWcC2cnImWLh5svCoQZMq/K48BrsWfbmKe5LPMBfgI+GwFsp37A5cK9rQ8aXuCWT8xg7HeKBnR28P1Mjm7Ow28atT+20WQdY5HRx/lvdhC5hExLx++hxsCTP+bn400Ke+UcwRFzT/rzCob5jPw2mCbeLCPRMvMifKYF7qIufk3i6wbTtG/5UANG0cbeK0oNpSqvmxpoYuYHuUg2crjGO3b/HnBHNkmR7P5daMMvGrAm1wEcEgp1kuc9Y6ZOLkL27Po0Rm4LIiU9lIj3xz6ibnO7h50FeA4bx7pTuKBq0LmTPlRozgwx4ejI2aTaAErH5aBKwOBqcYTZK1IetajfIc0eM0JdzeLB3+vFAUn4cFSQHsmYib0RNeBt4O5e+fRxFy81PY0D75eNeBIyZMl3vQT06LdpohnDrR6IR+cvFKEzYU3kTtlvYZuYrqxI2nUfEoWourAhUJ02bC//RGTcJxHKNk/C2ue9WuQ8mpBHPJjnJ8QlFSe4043MUvja8DwHnFrjizweuAy0cMU/UJ4Df1H+QYG+cC5W43U22g+cGmoMcf5MEOA/qO8gZ4oWmrgqBKoOT5wHfCTskGRyIES/Uf5hmNc35UfQKbI15sduCAsBZ0WrzZFTJ4CDM6RtXandP1Kn8HN6wV729rfGkeELmK6cesfDc0ZBU7cXN6D9Zkuve3uAz1g/V75Gs65p8BWC3BdxHTj1rd6LM8hDFgj8qE758H9/f3Nt2/fPD08PGRpH/D5+/fv3vfpcf+vV+YezC2YO4Fa8B6ndeOkqPkX1601586IaZ3Nlkz0LmBr45AqnROMDynB+/fvb969e+ckW0tO+n2w/t+/fXenH42g2CHNIZK6phvbY/r7778nv2dh2/CIjfvvffrPsegljCtbHri+OyZ2LeWsCyz6ki5vjs4JFsRJ9eGD55Dz7u7OfYOckaCq0wYgX6z7AltfJoUNbKKjdnIRFpJIjh76shfb8O/jx483P/zww+QfdfKSaPRRvwhOMY09i8Ouz4I1nInoI6aBefncethviulOmqssahLvyGj5FofXgI2HGOREIoghogBkJbkki0SiTH7/kMgiYkKmP//80/tJDxn466+/Jj2IRhuQL+hTViRXX1L0ER/QF+GJpiT5jD7EjnME02fInpLuZpZsQB4x+anxM/B1Cd3EBPvmO2AO0efR/HiSL/j5XIvD+JbYZDZQpBNh2FBtJHWilTYcwrCA9ENOErSwH94nAtFH/amrL5ANxpIOCZIB+SgCqi67gH7YlM+aC9B4tDGW+vDqRV6S6FnBHh8zbB8xbXLp6TscSguxh0w8vS/n1fsDq0zlZwBEJLFxP/74oxMCErCJEAT/taFsOBstMiG7u02kJsWNB9ztsEEb9rGNjmyb8mQfH1SGSBHI6K8xRNIop7/6RuIDzQk5ujuYr+h5yqJngkdschs7rlkv+oiJccvWmideunP+k2FGeJqeA2wWSeTUxgMRBRlJeoo8bPa7O9tkFtVSbXHRgciyy3Erux7xTIcyepLXgJzxsYGeIiAyRU5sANqRkQRkJPprfnt4pvWO6B2y6q+hM2KmgTDSWtwSPhwLDT2tj2+SG8ltzwA2jw2Ldy+RCDnQ/UybK6JSpj//g058ry0gBPrjjz98frR/+vTJxyJx91QfEQxo/WhTmRzi0e/xIREsEk+gHURf6Ctd2jVPX2T+56KHbj8L2GtPzDH4WyLOJaKPmLkvyhRbxhzmhxb87GCYmaHwE5LpuIVsyJSo4yuRjs2NftPGZH0Ik5PUT3WuBvSDDBCLMjI/xgPQpU19I2QXUtPv7l16mAB99IB8MrtEUSCiyx9FWGSl/UvFrU1kcSaoPPAZnm3Ufd5MFoc8dtc9NBp0HQpwmcIMp2fhtnPBNmOyBxZssnkg+irQJiKAqKuy8hj5ajKBtkge7EsflO0RcU3V5q+IrM5q1nzb60cPL9oL7UnlxYCP0V/mrZOLnAerxEmJ6cj/C+BSTo3QvnmNzADEZ2PcSJ7om0Bcyp5p+2LnQmutZPPcy4gLdqVYS8y+o3wjfH3MH18Dy7vWQAtWAbbSvanL0vWA6Sr1At2XXitI6SRI1TU4KzF9ScwpJ1QPNIHaRLDxgmt8UehZq+dYT7M/nZKVPa2euBnriFm3MUED8f3t2kjpn3vRwR1dGGjgYqAjvEWCqb3AaSMm5LKBfCgrd0dKA3fHNfoDF4IcrGqR0bmylZgy+GQG7O1OKksWBlPEYxiXWqGXZ24HB+nwFu+QV44W+dj34yPmAlf86Lb0YIOtipQzzl0Eds/mwAbk8/UAs8Tci4iZPOQxCdMdcSWijWOAr9HfWD4beKg899rADCJfYm675uUS3RFziUB89UgCWwi6BBGvlvwDcpJkuU4e9c6B9OH8ZTEzrsk516aFSMwWr7qIieOlkYPJWJV2P8bnObwegWgqx3QrX8iRlfWQnvgCgOaschRYj1dwJ9Ze+KvPzcjmc00PpoPM5t5aQ5efCXF14rdksVyiO2IuwkZ3AufqMcDOXkJm6RSR2P0zm6SDcXJag9YTn1iyEblvzbeD5A+aJctvKWeS0TZdr1wHmZEP3Qai3VPB/QhrpACn1ELzK0mJp9wmp9/gRsYRxteSqtuL67j2MezMi/qiqHyHvQrmPr03rQWdLPlKQqSXAsSZiWgT8HdhjoqM8atIldVWrvemiCm2x1Cc13PbRpBBbAi/E70o5M+mh8TWYO1aTON5z9OcPMdicQ1M7H62loj2TDhxRoA7sV5ikZjqLOfkKPJITB84f1k/N+AeMGkp3nu4L3b2PoD7mNxsokdHvihp7quwZhLYf4jj5WP3CJQe12YgWXVNkC2tgc3RpbW5WoOLi27ijbEkS+pYHTFxUEc4KMnZjeywbwB3oBnQ6msXFodt09ZpYRnfI85OzUH79KYnw2XB3hy4tkg/ptXIXQ5smYy/izoVWBe3WUnuN/8s56vjB197G3xh/L03UhEL/fR/3p0IKY4s9Ou+Y/Kb1Q+P6c8P+MVa5PrFVWTpY5NUXgQmLfnBXR/eQRPj8E6fefDtE0Ivu8Y2TG+iMpF98bCrRavg9pZfwt3NDRPcwbzHTL8J1oFxbXut3LFGGT5OzgE2fE2s7J+AWEGje5WX7I/2zusqF/A3SOSmg1XU0jqwzpYnUztEci0APRKEFCn9XmlryS9ESyfmwuqICTBC1OTPSDVwaXgZK45sWywWTAvNq5Kwdny01YNvq6CKf2tlub+JC1Hc6wWZvG/Wc6Ispfyz5GWcE2XcIKq5jzkBpsucISLR1hP6ljTmhFg2UKMf+dQP26qjz7+c78Fke7YbwDeliJ6+YDFiAsokyEhEvL+/98TfTiP/8uWLPwmKnA2TjqnN9YpxeGEeWcTieYQgT6IXAREVAnKHFqI/bCj1ydfgc56Ky1qTSEvAGidiRLWZbmeHE4s8VfexEIxqxOQXggli/JHfUsRcRUw2h+McUpL0x/f84RXk/Omnn3wAdNkIP7YEk6UnMbWZtfR0p9YJ5eYK+24/L0ofgfzZ8xPF7DsiqpFo1O9C2978EBhKfa1FUF0HjPR0bui52F7SXZGIj0NWNIKBA0KFOjwgmCHj2qe/S9JHRqDMhSYxgZqU657JYPeBnBDzt99+8wgKQb/+8uvNl0+fb578WxE3AEvTRljZSVkOa/X0fNKqfpZy0QlAPyt3g44gDCWzgqvkRWGesV2LVcojqnLr50RTYzKTYPXa/Qm1tD78o7aM6F8NIrvbDaBf7ENzWl8KViv0Iw76Zh8gHKBNf61Jmwjpf2hnOpGY6qs8YjUxH+2upeOcwXkjBDkhJX/K+r///e/mv//97829yT99/uxEJX22Ms59tHDOmwYsYtdt2z9zxMcA3oavOO+CpOMah3M4QOrjRcsS4bHnG8WYZtfllvP2Zdo4a6d4sJEkayOaAa2H5P4ARnDs5yKg3Rff+oksEdM6k3JH6bnfYeOkuwg3lnUZOpWa8BFQKudiYPw4LuV7238IqL2nDiAhe81ffeovPyHiFC07jnEwS0ygZnJd9BU1lSAnTpJEUCLo77//7tGUhJx2SC1H3KYlZCU0LpibgDDblvNyonrKaYjjQVrVsRvbIqIOWNIj94ckeBL71MpRBqgrCdHHKK+VyaMclHVBumU743Ff5E+Vf/7555uvX796+uWXX5yUJNr0n7OZ7pZWVtSM+xXLQjcxAWW9uYGQ5DwpIic5T5CeJJUhJWV00C8TNt2uEV8RWeOSxyTEctQHrTKYaxMkJ68tmlD2x48aSj3ZZINoox+y1ljoRF+kW9oFpY2WzRo5lGJdeiSRjOgH6RQV//GPf/j7C5GRJD36kNQ/2hRiWVgkJpBKzOPnmoqcpEg4iCgyqi3qkdM/Ekt1AXlt/Ll8Qq4i95+ifaneQq+eUOprI9baEWobCSRvtYOyjXqtn+QikUgF4UQ6EZTEkU1duUhM/8kG/8kdbOtqQznnJVYRE6gsAolUIlwkmwhIkp7ksU6uJNsRkgOVowyovyZalkt9EGXoluMeg9aYgLFabXPQfJQvIc6/py9tUU8pRk3KIh25yqqLjKq7fiZkebcEsRzRRUwQ1VQm1xsiyhDOZbbBJBFVsthGWUm2lKsslDot1Nrn+qitXJze8VqLWvZv6fUi+tFrCz0SfUnqt7Z/7CeCkougc7mS+shOzFvYREygeiQZZSAykgO1SS8mtQtRDsr6HGp6yFqLINu0Rx3ZqdmrQX1LfdWXNmEJ0U7Nz5Z95OiU/SUHyoHsKAexTy2JhCqTRzJ6fmukzCapx7yFbmIKpTp1vVsnck6yIomYao+5IN2afA6xPU5YtpCRluyUWKvfi7lNmRtT/c7tV+kfdaVYF/Fq9bJNiPsxh9XEBGUX1ac8E9V/yLNcEVUo+5VoyXux1D+2Ly3UGqwZt4aWL6f0sYWesSEdkIw8JkXI2B5R1mvYREyh7Ko6+dRmmSKpEPvFPsCm5jmk3oJo+1KxtHGnnOPSWHvtNiz7gsz3yf5FEko3loWyvoSjiAla3aN8KpOZf0RUIZI2Or/ZrTzGATaaA/6QnMFuFR37x9roAT6AiZttW5BNRZsTAcO3RJOsQcB1xLy5+T+68P2jU3MSpwAAAABJRU5ErkJggg==;" vertex="1" parent="1">
                    <mxGeometry x="130" y="47.41999999999999" width="32" height="32.58" as="geometry"/>
                </mxCell>
                <mxCell id="8" value="SwitchBot&#10;Thermo-hygrometer" style="shape=image;verticalLabelPosition=bottom;labelBackgroundColor=#ffffff;verticalAlign=top;aspect=fixed;imageAspect=0;image=data:image/png,iVBORw0KGgoAAAANSUhEUgAAALcAAADCCAYAAAALgVPtAAAAAXNSR0IArs4c6QAAAARnQU1BAACxjwv8YQUAAAAJcEhZcwAADsMAAA7DAcdvqGQAAGg3SURBVHhe7b2Jvy1Hdd9b59x5nnU1X4QESAY0D5hRBtuCEEMSwHNsv8R+fsl/8z7PCHjJ85SPh8R2CDEOtjHYDmAkwPnEGGPARgOadTXcqzue6d63vr9Vq7u6dvceziCDuL996lTVqlWrVq1aVV3du7v33EVDuoRXJMqhnZuby6mLRieea8opIdXyO0/kL168YP+c64LRRCc2yoULK5J98YLlLJ6fn1d+k8WbNm/OeYl52XHJub8HEUMmp3I/M5gDBqDJQZ3vohzzQpN3d54zx7wgGTUavmDPaOV5fMGcnrSCOXekV8zhiZeXltO27VvTjh3b07Zt2+ToLycuOfe6Ikw5fqmqTR5OCrRKKtFKg0adqNfWdyd1lDQQvIpylrIgZGSSSR8pqvUs2xd/pFm1I515cPyV5ZW0srKUlleWNZGOHj0qJ++bUBuBS869Rrj5WocqzRlp4j56i/kR2ihPgTFFNcbKKdDHF7RwZACtlzev3EpbjHPj0BdWLsi53dFXtHpfedXlabNtWTbayb+PnJtuDhvTrdAOTm2WURqyWHFZabNceIp2mlW4cY6WL81xiCbvZY3sYO1BrVNg3NaiU6dk6xHlurfoa69XLrBsWRbOjdMTs1Vhm4KjLy4upN27d6UrrrhCTr5ReMU5d92d1uAc2pUUfB/qgIdBkJPY3ySTwMdHgzfAK0cZL6bBpPYmoXZKdAPQS9lKUZRJYYGy+aCBkNuWR97iok4g2sLWfuLp6XDwpWXboiybg1tYWlzSSn7Z0cvSkSOHNmQ//l3p3KjkWmWHM2CcEo3a5qQMAmftXVAvRrIdst7uVqRJJkGn4JnEOw7j6kZJaB6ONhOsSl89UbLgOfF00bQ5oJ/oRREjg2tC14c4140FAAdn9cahl5bcyRcWFtLC+YW03U46j73qmK3mu3uPQqvFhju3i6ezZd47UJZhhDkdqoM+illUxZjTYha506CUxwHCeqg0jjQNxJbHeB4BhgtN3mNkzqp3FiWELg0tRJEvbEdKwdqKtktAMvdVGbGzkGn1Iy63J+y/FxcX5eTnF84rT819+/amY8eu1UnnemBdnTtEaZW9OG/945KQCnKnW4w0m7OzqLNa1aetN6r1MIa2AiXCkcrVEhLp8LESOLR4iS1fTg5ojYzME3kcDf6Aykynsn6JOGsgxCpMDLvkDNRFP8nlYzFp2C7AzASxPBA9Ozt7bsW2/8bBF5cW0/nz5uC2os9ZvU2btqTLLrssXXXVFVrF17KSr4tzSwL9MafWXotDkej2P0sfamYdmheG5MjQhqGB7cPFyqCrWS1LR64RZWEb96DpUMqTHPKmkyKIht7dqxXijEM7W5y5hETnFTzUK48e7vy+YqMH445usKyQ6HFu0KzebE9s371gJ5dsT3D0sMu8fbZu3WIOflU6dOjAqvfja3JuV9o6o464Y2PEEKnySvwszfmQDSNWS8DZ+awI6UhROsRZpkgKbUtOK52XPFlCh05fLR/ljTCQ+aCh+dDwlVVAVJsEdz4HdQjkCXUedOTaeHbyBq3SFkOXQ1tM/8jHCh5g3OZMRtCIS+fWNXBzbq3etnJr721BZSYLWzC287bI7Nm715z8yrRr186ZV/FVO/cFU1azcIUTBiPIudoTLVB2TrFM0qLMjVN7WhX7uJArepMoEI1Cz+U4J8lYIaNuk4++5Lq5mouyRFkfegTRLEwD+GtQN6bvNHKi3UDUCV1ApzxsbBHldV21bQn61dS3OvCxUss+TZk7dmMr0j3OzTXw2Jrg3OzBxUU7FlHHtybz6bIjh9MVV15h+/GtcEyFmZ07FDUddXghXYpQec7HTBPN1e7wCtlSA+QRwBassdpVVRtAb+TIWiRa7kjJEa084tBlloMhVRp5/MuyAkVS6PAaIl8CGuVlTEKOtE5gPJBdyySrYIWbetoTSeOaku2iq32++0DDkwMEYvxGTm7OzeXBxQVzbtuesE3B8VUvo5WZ0uZNm9Orr39V2r9//1Sr+EzODadWbFMq9tZObzvAJxCiexsodAunKlEau1RRzmdxsEdd5cs6OYBxTlpUaYCsWVZJULYXdfry48pKQA/+vrJVo7AlIFvaJ0qjXQJpz9vYkzZi6EB5XC2JsdF//IQYAn5BQ/xZHM7NwohzczmQVZtVXHR9HKFHYN4a54Tz2LXH0tx8aNGPqZ0bNq3WbEOYdRaYPdCbkNUIkSOCpWm3LGcbTLNaysAWyqp93aQcecQEeKJeWbdE8EX8T4Fov4PKUHU/RupYZlVHnkJQXd8v2Bnd/tW28fGPqvaffIx1xPkoT5CD55WbvTcrNys4ZeHggSZljcaix4nm9ddfP3YFn7r/3iiX9qzhUDYrqlAoU8Obt3Lq5UjsFigjhCJF0WAAEQdqHiZAxJHuC4G+dB/fVFA/JwfZjQEvAitehKBxcqbVsggoVcYlnTDtwMKuE8IcGpDPyQZGUDtt1oJ96I8BOu0Se9lsiJXY99ntZcBoD4Eh8/nnn09PPfVU03YfprIBAsyvGY+OsEjTwUCnKTLGIz7+PFpzmAYYJIxSpqN+DEJAaSnogRMsnWQVsffDgli7fN1g8qYIrIDoUYZS56CNw2rqBKz5YivRygHSMacDZVuAerFwBMr0CLOhXmnn7WRxfpPfA944s8WiWwg6JRGEuU3p0cceTy+99JKPRQ8m2oGKOLY2+gjhb0AYdP8EuqkIoWSUEmMkELT1hnTLAQe0hOI+pwSRLoNgsZwyaH3huxilmuXlvdCbPpVOXI5LrPABt6PTynLSoLHZtDD+cPBA7eQBUkZNjz76HW2V+zCFc8/JsQO1Y9vOyTtkdEqitOSjNqEpywEFg0Y6VO/Q7F+UoWwZdLieMoRDEhoF6mBQOzkNyAfk0BbXNvheAeOEA4YT0heCYInoX4BeMqpcPGC/zV/YxssMVChoHlvK6LQxDViX5bjUsbbCkUtnLp0cxBicP7eQjh9/TukaY51bDmuOoTinh6COuH4KNUbodIKAzNyGnDDng87VmdiLxh40wvciQmvioR5M2zP4VsyoBBwWRL4Ocmgrt6h3fMJpyzVQvEanLunSWWCHTj0tNGXIsmaBHkdT7S5qJwdBE90aO378GflPjcnOnSvJoSJtMas5QR2pHC34YsUO1WK1RZbqWaAMehgXlErVq8n3OsIJ1X1Lk48Q9JI2LtSrL7TI12EIsq8F2lU+x8jWam2gfjk+DaxAelgyiuPyMDI1xhnhEzVw0KbMZLnDerZEOHOs4C3m0vnzC+n0qTM536LkGoW12ey1M0hH6ICshRwphI7KG7++njeMb3T1cOltXGOI3geGKFa8OtT0cnXsy5c0+1OshAxjwYAjRJ2+wd0oxOIz0qTpg07SxxBxB1l3IhUXeSaHjuYzQCt3roOMvjbDybthPj17/PiITw76mb5Bir12t46gDhBwdOJQKq/iUS4Yj2ZxQ1h/SLzpEDGGiSajWeKaPhRGR3vtCJGdOGfUZqCT2RjEeNTdZMS5ysyYhRrwlKsw5XyCHk4UscahcrSxqJSgZvhT9sAR2Bpuof2cP3dOjl5ieBGVdGfuVbQtFoIjyHWNin0E8LthPV3mg1bn6zogYhJyZAvE4iEf8YQAcjSCmk6+pNV5UOdBtCNYOur18W4EhtpiuLEXhZSP7IZlxByIcrxuYDUm8tzIGAP8OFZuwDecNcbsEKxSYX2t0IT8qSFBVk6NTim0gc5DbkJuri80qhS0OjSWsLivPfEYgu37EmYX7Z2zffpswTiKPmAorerAymV7S4ZtYxGMo4JHTguEH40DOnBHIKHRpWwPWgEcfJm7DJeXM8Uxxrn7xFjnjDQinFAQSUqpAVAeMxGFY28lOZ4U6jyYhkfGthD04In8KxnhOOFEZZBrKrZgW84V23ouX/DHvngihocGTp16KZ148cV0/JmndRWCr8epEysk1cOZ5YQ5lGjs7aqMwLTJKUe5AteYn++WUbM5EovigOPs2bOeyZgzxXtVYM+9ssKlODMIVziMLYJmL9KUd/424Q0HqFt3XoplfSUmx9+PwJ6N45hl4oActhbdYo0DDpnvx8CuC+aQPEnO0y3nz503HhzVbye9eNGd1tMX/cYknnqxvenyylK6sGwrndG5F39lYSFtmt8kPla/ufn5tHTRVkFrE31uu+X2dOcdd0ov3TBXjF3pwCoLl7O0RzlmVSS2fHnjFDH6ox83UJEecnSgOlaMDrQd7ZvF0rXHrklHjhxxgmHQuVeWXQmEwVIGOTcgn/WAL1QK55aONkH6EKv1dysGzOJ9MrTF2KTld2dyB8MRV/LAEXAcVssVYivnGj7lpJeWF9NSvrd5aTE75oXltGwxQD511ZgpgQxanJtzRwFcNbh4cV6rHXoZRfpqwoS9VcRYZZoNIDwaWxV5fxhF5KLj5vnN6YMf+GDavGlrc3kQyLksDkrvl3057nVuS8d7TaZ1boCkuPIW4DuTyy+/LF199dWZIlrFlTHOuf2TO5D1COcWXRQ/XKm+xbW6G+vcGNmPF9Ixx54mNg76ZjGOhdPxvKecz1Y0rSYWg2VbJXFAaNySuWBh2RxxcQGHtbSV0Uf2fAjEz7zHWS4OYgMITe37X3O4heZOeUFfZDRfZtifP17l5UNoVn1kG0Kmt+JlJc3jMH7kvT6OTIkmkQHdAav7O+/9oXTl0SvNTsaLbi5OaQKIa9wUuFQDFQzr6dwlJAPRVuXIoYPpVa865gWGmZwbSKmsumYPeoTiOQTm1FkOGM7WwhRqCGF4V7SMGwMUMU7pT/+YfjiWxYRYGXHGhcXzdsj2pztY+eTAWil9Rb1gwVdQYujIRJavVO4MpfPZyQ1OZzqT3qQbfXIePTs8Ti+BDACPZZSGKehAZRnoSb6kdWRklLRalvLGqoliKMuB8pCs2MvaMY57Nci77efS29/2NlsZr3K6BaTi4KRXbO4pnVdu6rGqa4zxjWgrl8mvsuy1OncD03Hv3r3phtdclwmmozWSm+1iWueODhARKFGwMhRe5Nk4S8upzPlin7iwtKBD8Nmztge0fSKHZXhWlv1QrpWUNxRZfnGJp6OtXRwx68KZtOtkrdofby5i5eC2Sb2qy1buObM4hpqf22wOaXtK9rSVI+CQ9AlEGUH1tHIWoMyi4CMO1HlADpqc30kdHujIlDzLUyI5bCuMIDo8wEjkRWsWE+p3ZQLqwIGNaqhNQyM3Q3UUsoNaG3K+TL/3rW9LR49erfGmJpIb57YMT+toW0J5IVu6ks8kyjbEuQ179+wx574+50wVa6TVJEMKFM4dNBDOTV4U9Mg8gRUre+ihb6dvfetb6aWXTqZnn31GRoJ18+ZNaeu2rXJAVsB5O5HZvGmLyXLHYwZu2mRx7p/lbLA9DcSCLvY3j8NmvSAgC/3cNlmAIZxCaQuqQb1MqxFU+EiXxqbXHeMjJjsjzKEb6eDDhvB06hWIPhDDM8QHgqcPjZzcXh/cPmbQzAuoF04PNMbmqNDjosK9b317OmLbkjAgQ9IcfamaJwWgng2j1fOLCdIri1cZclmozLGJWdTWY+XmpT6vfV3r3NXS1CK77ljUKlCDneo5OyP/x3/8djp3/mx64snHTPEFK1wxZ7Qa9rd1yxY9ur9ly1YLW0TH2bcQtm7K73W22JyXMlbQCAzMpk02MVidzQht2SbpQB3O/PV+aE2eqOdOw6CLZmXwsPclwBtB9xdnWqSJVcfkm5RWrpVpMLIuat8msHTPPOTFqy1LhKxPrtcGk1+Vl8HltHlQlmHgOXTO7ZSyI0811THdGQ/VzTKashxkozmzrQrUXETaeuhqRSaQxKkJLztMEY72JQad27qWU13osFR0JqCOeVJPSeDgJ0+e9Nlrzohx/KTJJMvYMfhhQKfHwHoZTlLmPdA8tqZsM84kp3NZHlreKGt5gs4RAd5wvLbNSLe6hMN5kKNnPiYaNMkreCL4yOMo5N1hPIzyhswoj7oELX45YFMPvrpGmhXQV0lWXI66lFv13H70XfJzWsH6o8lsaefN/OggO2fnrhCOLAcHBYscP6fHwVrKqTVCyuR0xszbEk7EmjcKAXSzNLlMSQ8//FD66le/mp49/kw6c/p0diJ3mC1bNqedO3dp5ZZhzYDu1G7UAGna1GAUNDLjDrvuFGhSlrtmXjYZpR6zIvSuAT2kylbGU9LYFpR7ZHhw2NNmv8XzXKHxF0hC0+sQ7IR5xVaqi7ZtWL5gJ8PEdkinItfBkf3a1742HTx8wNJu3xKhY6urbxcAV4qiHz5B5tKbfvAH02VHLld5OC7cUZttCf6lJHL4s1h8OR9lhNiW0J912XOb/J07d6Ybb3ptJqCnWu5CjY/Zc1s3mry0L5yb7EMPPZS+9ndfsxX8uXTi5AmtrviVVmlb6dgbsQXRYX7eVj6jlx0irawJLJ04DE4rLbunpafFfQ48yVhRXptiqB58ZRlOGecUVtCRQ1nN34dwbvqr+hZOnHwp/e7v/E7i+xTqN8F4bFlIc5ttO2cny+waOP9goeCaNOV8qXPs2LH05ne8ebDtaMe1bcc0jgA5a7E59z33pCM4t9FKC8OCP5gjdZ3bwBEFEnkmhMv0su9K5142ZSQJRSGgR+HchEcefjj9nTn3c88dT6dOnzKH9tWUwWOvvMfOajmxZG/sg+IDBiyltnD8QOmwlJWdj7Tq2CofegYk2wJHHGLyoJYDgtbERutyOFSvr6BAyIl0CQYUWk0vwWXKE7ate/gfH0433nijHem2qh7nKMjFGTZvs+2ebTO56rRl+5a0dG4JM6cdO3ekJ554QvRj112r8xkcqVwoynFVoMhInme1jm2PO+mb7nmTnLvcbiDBg8mmbi6gLqAeIB/OLYGG9Xfuuezcr8mE7iScDrTb03ZNjkOhthUW4+AYl32d6DisxdTRni86ZJHny+COEEHbmRyCphO4god2tJfP7VIWk2gowMtk0wmgpbVHr0LDy8ScMnT7glw/Ya7pTWBVtjbOnDmjI+Bm28p9+9v/mD796U9b+Vz62te+pjRHwge//GD6n5//S9nzC1/4QvryV74sM8LzzW9+0+1skO7ZNgrRD6MbIW0yvrCf6+Zxa0cfH1wzAudfccUkaEKTcAcjqDx4zcFjAqwfkNdesQHe83VC1h1bubPhEBgJgkGDbfQwbjiolzHoOEMMch6EIgR/kxctTxiTAY0jAqFxxswbDtvURZcsrw1ZN7Vfh7ZepEGk69CU8anK6lDrQWcef/yJ9Nk/+6y2F4zS4oq/tIYytg2krSpbXXMU6rEa+l1x2FYx8pv0aH8C2FB8WR/gPCScH8+0FM0rAGKudbMqR7507BKUmeUk34/z6w1p48mMbm4K0Bl0G6cehyOt1OrIKG+7QrhRGdDS8DEhxJP55MCmP2ldHrRAXXgU48zwDH0k1xy6CfB6wDBK5zb7Q9T32CjeGQPpyMMb+hMgU1bSygB/CXL04+yZs+n8WXNsvhehz8FrnnSRYPsRsubX3rJlsA2HeRFipTXjS9+on+H98T7HhKK45XCesg6tluWAPM7d0EVo11DGnrT8YENW7AwpEa06ZnbuUK3uZInWWTEcxjV+jGkJfXuIM1Jun+Bl8OIQ2Kz6DGqstpbW9W0uvZnacjStvgxcHihkDQQhGz6C9JAubYw+pfN1gnisXg6hr1+Lb0Mpt63TpUdQnYgVim2A/TFC9A27w7+Jb1v5zG+xvO25WbptYOHB02VPK4+BQiZyog9l27IN9YyBD3WNoLIAyRgj/KcGWw2FnI9ESAg6+Z7q6wcpkcc5o5ubAto3Zc2jA33QQMgoXCN1o/teEyPilBabEyPFDe1BzkzaaNSJbYD4Mq8b29NlKBG0GNCoIz1yiAGPNBLQK+oqZJ1Kveryhi+3UZdFXe8PDoRJ2vKyLOi7d+1Ju3buUrn4s0z8lsOn0gYWAi+b18KBDGvOBtZ5ylVbeZPt45LlGTztruD9b+2AS1IWX8vX0JHc4JIc5UqOVAJs8p2Nwnqs3CWGZ2KUYCCuYmRDcUhCBxnTgw9qm3ezkGYAXD3iZuCjXq4bjup8PnDhrHJY8XVDOFAd4igRzqxQyB4pswAtEDxl8P7FBHXECWUZor8RXn39dend73m3ro6YJL2I/drrrpGc17zutelNb7nH6s2n22+7TZfpwDve+Xajv8lMfDG99a1vT29/+72mI7VNN+ufkIcm7CP9sm6lzpZTmlh/plMfyhNKEF/y4WvUwN0IpK2XWeYGQCt3V/aavsRBlORlHsAXoI88/FB66KGH03PPP6vXXRmXDShG26Qvcfbs3pO/kvazcXcilqQWpRFoW0a30GccBi70bAYxo5YD+mSXiIF0fsIGDsoYPPPMM+lP/+RP0lVXXm0DNafbGXiNATcoceksLqWho3pm/+IaNTekvf4NN6V3/NA7KGn0pyzsENehQdzmCrhLEtlwufyU7rzzrnR4f/sgAGWMPSt33MctX1CBtWFp5GNJtQc9p3UZ0OQyZut2KdCwc8eOdONNr8s567M1lpttIQUmfImjDkBAj+AhaeE7jz4i5z5+/On00qlTUpZXz+LE27ZtTzt37jAn3+qrBium4q5zA+rRruobH58GliyNEHyjwDFDfy9v2Ugw2F1Zk1C324dZ5JUo+3HmzOn0X/7L76WlhSVbBMw+5im8fH3b1m1py1a/L4cQPz2t7w44L5nfrEXk+hterWveIY+xI13qzPiSVyBvMc5NRk5rXkrJbbfdno4cuMwrGcQbXcRRiclbwiVB9tiE8ic6761B7ro7tymDX63tSxx1GE1zF9AjOmHAuR955OH06KOPpmeeNee2lZvV2W8/nU/bt2/Xb4HzpYR/idN17LJjStk/uXW1IoPaCMivu1PyUNZnOGhNvdzeEODDkep2Ngp6qMLsKx0t7+q3+voWoh91f8t9s9dHjtPkaEaDHl/iQONBBc6bbr/t1nT4wOjKzUG8kUFTyts/S8eRQbJyvHHOPfoN5bBlxmGgbToAwlmIpWfmD6V9QCxdFFKmbUemKB2ret7blsG52hBbiZovAqgdoSxreCVvGPBo8DKaekUYohNifwtIxVZrKLASb7bVmW92/TZhAtfyPd9XJwL97dJ8P4/2nvcYtDTnC4dEv0iPw0i5Edqe/tNgduc2penIuM762DMwrMg4OQQ3XGdwC+OWgyyrWBhalTB+PXBOb/NBCwQ/cYSad1y+psWJK9SyJdL0pS8ALKF65C0QR1mglAHax7e8/UC7gLT61agnIhrosmEBr58zGRxNRbNAjL36MM4PwKTy9UNWtsDMzk0F+eoEYBA9GSMLtc2wBvgK0g5IxIFwPpR1PvjbECjr1zJASSsHuQ/BGw6lfFEHOrTS6QA0BUuLbqFsSatellPWreVEXjT749Ad7em6f05TI2LQSmjR6FSEFm3Nchz4BEJnp4+3XV/7ghVQqykfFrFOsAZeni9x3HB6DjE3gaFYsdxObrigk2qMmYPDJ0KgLA+eltcReTmFtUcoVx1Ko0Y4TBnYClGudEEP/hriZ/vE1kn99v5rEluMsOCJ0CiQob4X5TG5tRmA3YSGvKbf8Inu4ghNf41OED34yecQeQfbDkWea/gyj/1ZU4MIfxgC5QRGYEMvBaLoen6JU6Mlk+LqSMvcGCo7mkpKx80DS1gNYlCAOwarn5ve27LyiC24Y/ingTHgaNQXD3GhV6lb5DkpIgRCBytVHLJKqAwSEXLQpZIjrqwDfIqd3LQbIIXenJxxSa9Zaat2++Aszk97bY0iZUneg9KH4Gq5M0IFCzHK6NXott5gO7GeX+LUCLXLDvh+O+Am0GDzl40vo3bSOEQEL4tyUNII5YpKihCrV0DpXBiOGR/+FBkPIfIKFZq6mTfyJYIeaHjLOjmt8iwj6rij+rOFcVWhhDuxl68srehKw+Ki31jFQwyLlkcG0ghhi7BHqQscjR767wiKL0AWqlUxoMWO2KMGkKkBHZcjrnnWFShS6bjq69xhPHWuMD4d4TLgd77zaHr++ePpZP4SB/vpGUk789+xc6eexPFv6uxQmq+GgDA4aFarMRAndUwftNClKbXnDxBAdJEFj4V4OIA42i91oJ9BI13qor5n3tUi7FnLgf7CCy/qFtc9e/bqF7v8qkguN1ufPn0m/e5//l1d/44vcmIiAC63/ptf+jdp+7Zt6ixtlONIKtpXPl+aU4EhVn8Fq8f28pZbb0lHei4FTvslDs0bdeMuBRp0nfvGNXyJo47TAzoAAT2CJ4dHHnkkPf74Y3pY4eRLL5iyvg/kchbOzU8dc50buvaI1bXuQDgUbdPhWHlA0AQia3h5cSW9aI5h65mMxA3/HE0XlxbkBBiQZzt5Jx5GJc27Ta591bXplltu1n3TpWFb01jbpkt5ndhXNHha2nqAV1j8p9/8T3q0jHff/ezP/Uw6eOiQtef6PPQPD6etW7amT37qD+Uk8xc3pQt2OJ67YPbduilt3bw1XXHl5emd73qXvsgp+xPOT7ciHYjr6bQR17uB+mcr4s233JIO7z8sGqBUzgzkE4acj7rxJQ75uAeFNH617s5tyqzPlzh0JejokdOA1KO2an/nO4/pG8pTfEPJIddK3Lk3p927dqcttnLLubkSYOV9X7+XnSwduwPIqGNG+u9/+IfpoX98yMmmGLeGgnkOV/D1iIAPvP9fvS9dd/11lWGzcFKma59zrwUhD9tGu0zQj97/0XTfu+9Ln/nMZ9I7f/iH0mtf91q1x7bj/g9/ON34upvSve+8VzZhYaDv5ZGltl0gxrLrvJkmZ3N94qt40UxHc4N022239X6J89389fuaRijr20D9shDKKZaD5VXeUCtOboRm+ZIW6ZLe7FP5WIz85557ztI+ETYlX7V0TZdeWjUMG4MZkGZWtmvPbs8XPDSFU7ljQ/MtSgx6LWsWUJe3Yp06dVpOENi0ZT7dcecd6ZN/9Mm0Y9eOdO2xa0X3tmwS2ERlQvJcKgvE5s3+igwWiQhD2znt6d18Qqm/+prLsVtblm1O6EF94xTAsRl2tMDty7INg2ZWV8dVbUv6nn4P0JnHHvtOs3K/dOolN451kb0j25FdtudmYFit9SiXDYY7UatcmY5VW8YHNNcWC+j5/AvPp7/96t+arlx22pR0u7OV4eB89GcyuPci7tWg7csvuzwdOLQ/ffnLX0kH9h1Ir3/D69P8ZvRBsjckm5g9HvirB9KLz7+Y7n7T3enIZYfVh1mBLLZEv/Vbv5VOv3Q6veud70pvvPUNuXTOtibLWqU5J2m3FnO2ui2mj3z4I+nG196Ufvi+d+Vvbt2Ry6NKDU3gPETYifbJKsZYOQ2TT16ne3rFWmbPbSt3z41TOsepVm7JsnT4jhFE9+RGrtwb9PQ74D+hde5nGuees30hjsBNPjg3b50iH4dWBMWK03FyAnn+JnQanVAr2OBna8JKx4p30Y6hZk7fpjAS5FHYxoZnET//uc+nbZu2pV/85V9MO3fvcCHSwMGr4e7/lY9oL3/j629M737PfXLA1YCHqH/v935PDx9cdcVV6UM//cHORKEv3f5e1BURd+4bs3PnbxFNx2Y8MrxuO05ledzx5/Zqy+NoFO8KBHJAo996y63p0BjnlhRvklbJma9YHyBJNhT7l+Wtu3Ob6DXfWxLd7mt+hFYQ6BxKt4qzHtj/vBoHve5YZ7XOCDl1YHLElQ9NHAs4D/Ect9zaKkdeT6BwnzMrek6fs5M3VvellSW9DyS3lGNHcxXBPvFukFlQ6opncDJIv5h0NWrZ4jCS1faP2aVkKWXXdUFJL+ORNOMkiiWtr37FCTfpd5VRzQ0FsUm66A1GaO6Y2blVvyujQak8MzIMB/xbS+PJh7AapaFLiE7dcHKDrwTDpvIjADz9bfUh5EVdOjnUBjpxxAl9Q/cIk4Bc49QHXNBd8FPA2C/OG/d8/DzG5LZKeH/6++RlppHZGRs09lCflOzFYFFuZjYN14g1f4ljSqN31n0QGMQNw0Di6L4/VAhHtcgdoqsGpbqCMmDV1om8bhkA41LmJwFRvhJ229Oqnttq2/T2A2U6UPKXoQOyqEdsZ2VRXteJoLOGC96foDkquR3A17VD9lnZVqHodzg0q3XTBn/UH2hmnB9QhfJBngGZq4MJ0xGmRTc3BajAPqsPoas7l1/BaKxZoRycxpAV+mhdjK7gPpADCvag+w3qBJRtZdXq9qeF9XgWNTNW11agz57llZoh+eP6ODhCuXuUz+xkqwHjuJE3TkWZGwMOC2ZQP9T3wNjiJGYEISIjJsDoAA05+DC6soyXy2udHtVtOHq07NFnOrBvH2imH8arqxEFdFJmfY8Q6LVnhvTNcmo+zk0g+RHXmfwa9sAYGXqphZ6UT785XAMwzlpXbhm4UL5ESXbjlF33tNssc1pUOwd5v3oyGfD6Ybcrow/O2w5aCRx7lgV8PUCb/Z4xDOlvH7YoXCPXS/wXzusqAzFvqCIs6BvYgRudwgb8xfbQAA0Hrs0jPbUi9isbI9WpVrBSPrOTrQbrsXKPQ/SJfZxmeiZEOgzLyuCGxCTZ2AatGEoZtTJ8C/hjH1nS+xFtjsPFyigoO6GKAQaXXQeV9tDLMPPKbeALmnfe+6702htelz78Kx9O9/8/H0kf/r/vt/h+y9+fPvrRj3j42Ed1W0GsthED0g09b0kib2p5nMdPdP44sg0cDUe+xHGzyNeo4ev+ywCt3FmZjJmdG6XpCHK6opp+CQygOslAYiRLhxFXD6SvVcYo/Dq4X5abFurfFGDr0CfXWmzoLmmyPLZ3r7/59emyy46mg3sOpX0H9qX9h/enAwcPWNifDh8+kq65+pp0++236wuzgE+oYjEY6GeMT+c6N8yV04CgxFXMhsPy8hEjIIVWZ3ay1YAFqjr8zu7chOiAkzqAhpEYe1ZimoitA1kNKn8qmxXInU5lb2+6NvR6MnXK817P6w/KGTNRS36db/Sp4U1keKJsbyiweu/csyP9wr/9+fQLv/ALFn4+/dz/8XPp53/+F9LP/uzPpA988APprW99q76Wh79EI4ejIt2tyoHztGl9RzDK1oz90NfvARycMsxrXtDb5rpA++2u7JmdW4pP0I9xL8deHVI+H45nwIYZowJ31r2sMDPYULeZKcHCwYSZ3zKvuxhx4nhY2NN+K/EkuzEOvgh1HU60rBdp/65gWBZOq9ijEUAvw4ahZ7Wd3blzPA5urH5ODNaiWCU8UiL2gqPYOPPUvtDnHD2kBhRFmAbdST5tLXSYboHo078EDswKXl4ZqTFJxhCGHF5jP1n1VcJaqxqc2bmj/jgdY0WgL/CLN1fsGoyVwVMlHaOTr41b5/vQV69GzeNpzw/V9Tq+vWrzOe0EDwMoS6LuNE7ah7LtcRjLQ1HRfCw6UUexkYjGNpXLyp5wdC92eSprQ8m5jpDwrqKzO3doSQdE6aKk+X0eRmuIkztmw5ZTGwc/3HZ18fODwLAOoV9czZEsYjvauNx++eIp6Nu3bDfju/m54Wdah10vqC37C33IVyrnRcZ0lFpVYUbfKq0dghFiQ0MgX/ne+kKzqbu1nNm5gRSmA55tQJ7glwItLYbg8p619C50g44Ee750Dl8xJ6tKHX5B+IJ+3H+5ibl1Y2XJ8twNZ4Efb4WmKxk5vunGm3S34P4D+/SkUB9wyOuvuz5t3ro53ZNfPsndbCv6rfbFtLSwqJfFc/cgT9JwOY5Yzzae4/nGln7wyEE9cMCPMv3IfT/izjYDSvvMgvLow9AgxWX5RQDBYia7viTCX+SV/fr1XQosnZjqBK6qbOjT75xQcsWrwIY8ifOdfMvriRMv6AeftMhZ4ESIZyd5NjB+8MnPxr3T2v/lFRGEIaZ17GeeeTp99s/+XPdg6NErUy5uedX6qj9fPa0lL7PR2bF7R3rv+97rJ2rWft+VBsHqLy/7z2jzc9u///u/n146edLa2yxZmjhMJgPytXSY/JWLy1qluVmYCcTJ4Hv/+XvTsWuPiWd+i/WdwbE2e4bDATlUMnsv53uiAbK5Vh910Z2rKtitT175rXD3hZduGz2XaTFpsZlut9zyxnRw3yGqNMCxcdpVP4ljadpat/u51/oMZencoqBH8OTA/dyPP/54euH5F825nzdlzYnMcTA4P7C6a/eufGbvt6XKqaxD4dh156Z17o997GPpzEtnlJ/WQHIqw4/9qx9LN7zmBt+eEExenwzdVGTxdx57LP3ef/49G6QVq5OvkavaaD0GUpcEM7gL8M477kr3vuNe67PV2WyVV3xy15BlTaaObAZukz3xwon0+5/4L1pVNT55AuEoYOfuneknfvIndO98jXBsjSdVc1p5IyhtMuP2XoDf33LLLelQ4dziDnXhJc556unIbrG8xWImgWRDMx3W3bltHP0ZyjX84FNctKdjtQrkOzRjbm9M8tgV95V6GOPKRhFGe/V1+RlI/iw2auZwRJvEKse4tuLt3LczHT5yuCkfh+A5dPBQOnrkqH7ae9PmeT1ZFG9djUtzpHnyCCcj3rFjh215dumB3xtuuF4DzGBeWHanHAdNfotfsMVicdm2NeZoB/cfSocOH0yHLzukp4muuOIKhSNHjuSVe3J/amAx7BJ1dSnQiLWkyIc/NOXwWtDKbVkcjMAqT9gwsN+u9tyrehIHpyEvCgr3rtxP6NUO/Pa77GQBg/O6gZ22p/XrsWwD2mf+NICEYmsCxq3c586eS//wrX9I+/bu0wvaT5/hmUTfkqzMr8jQLhMZPmg+cMQSYc7nb53V72UGcQL0uJ05JftnthshW8AIlox8WDjy2IG+/skf/2l6zLZvP/6THzInPdy7cpfgAYmP/MpH9b7u977vPdYE2xEXTn+Btlomp3bucphxWGyEnrFyO90mO+Nrgf5RX3zWzhvf+MY1Pf0ecefVDrS3biv3OvxUH7MvOlWrQD5o6kjFIKXrShly7Mqpp8EDX3gg/dmf/Fn6o099Ms3Z3nU/X0MfOpwOXnYwHTl8xFbkI3KcAwcOWDiosH//AQv70759HnjPx6wrnV5dtmWTtgD8aOzu3XtsVd7twfKKd+5S2G2rNYFVm8BK/uzTx9O3vvEPepbyzz/zF40DjAMLzdKFJXPyRX+TwDY/MhBIR54jRrkN6gN91dWQnG9h4wY92wKOi5wzVIyRHVq5A2gxs5OtBlrFuiv3mtqth4N8SXMD+aoWYAx7xzGsUxjRz+xHVdTAZOOfXzinx8RWbBVl8EW3KsETwU8WfW8f79Qrw6RVswZdoAb1+mRqsuZQth11WIVt3UKUfgwV5+4zSwlWPE6Ap8XQhNHCk9OhY0Anodgx54HGoBqHkBzqNC1ZnsUPXytrhMNv2NZEK25X+KjnTEBU7zNbKbq1F3tfRxhbBlVqHCZzAD0PqY4VGk1XVYgTtVlBE6VT9KF2HDlVzmOBxgpZhXHSODfQFmTKESvbqgG96XeoUIwNtMYq5HVTWUPpIJy2acny0BiSqEHMNJb6QVxvqNGczpjduREwQUHswErlBmMIzQG9KKNHwASZQ6ANX/O8hcEBjVCVD/EPI/jDcSPU6JcbTtRZp/tZO9AEtqDeVoff1aAZn8ruHScXLE9yyE49ZK01xEWYpo9rgzVQtTGzc6M4Msbpih10wpDzghEbg1lBpwyMEzgAH5xw7vEIjppz1mbbMbZWrW3yLa1FHy2AHbRqZ54xrA24ZMm7WEZ70I9xkxa9XfdiBRdIOz1qN33M+SGM04q6hHD6DYFU7zYwu3MTsoxJuvaWY8yegrgqMzvcUSY5uCZCRpnugwZ3IIRTTO59F1HP62Y0gzFZljQWm/PS37jiUIaggU5bFaIsOPr6hJxxMsDItsRQ0kalbhBodL1OKNE/96FBmce+GMaDN0MnG548AAD6NI+WhbyA8pzG25+drvmhu0J5wid+o5UyxqF0mkDUJRqSw2W0GvCWckyqEbPsQhZxmW5gvGQPHTqYLr/iinRheSUtLy2lpfO8unihCcsLy/lb1LYtELKCHnHZhqdbPuWNjUuDQ+cm404oKcISa99ETQG+jKu+fp/ZuVFaHaEDorSIfGnYNkXaDJbTGqkMePx66nggt5QtWBan5oTrZb8newBMpoCvpJ7uOBKWqLpSgn7WNuFy5U/95E+l173mdenD93843c+jZR/+aPror3xM178//OEP641U/+Ej/0HX/8tVvEZnjCztgfYinYMb2Oj9th25FGiQjxiBGjjYzE62GjD2c93nRmd3bkLub+5XgzbP5a+4SmINZqczW1m6Y4Yckyrp/cA5SgeJAeHDnnScjHLApsG0fH0odeTErdPlDHeanOlB3dfAk48/pXtn7r7r7nTHnXem2++6XS/OJNx5+13K33Xn3enJx55MJ188kWvV/enKbtvi6AIv+gWgUd5dFQMjK7cBxw4w8nJyY8DZ+vq0LqDRfCtFYGbnHnedsiwKY9ZGXIvT9INOYUBOYMfLXl3L/U62VpjUsQrRZt0uK/En/vAT6XNf/Fy66+670z1vvjvd/ea7FEjf85Z7LH13uvn2N6bPfvaz6X/+5efM3t3VO2T298n5KGFxCrCg93EDLerEHrmIol+S5UlLD0lZD1ija9lzu5EQ4vka0afabn0ODUuvfYXpjKABkiD+7FMuGRXg1Zcow42qLMpbvulX+2mh7UL+zIL4yv/iMr8GwU1oWxV4hTGBF88T5jbbIsI2bWBb0mcC58v9tz+ysqlRcfShPXdQm9LWbEpCD5ejjfW2ZQuUXuPKjbaoN8aPhO4bPtsOudNYsLivo6PONQxWJQ2AKeOu0p25kyWYnmMMjg4RNgT9zY6Fbm3Ny6W+P7CTdTZk2pRlXefNHn4SP9xAZ0xyDOgqY6dyCiyM6/6YIrVOOZowMt3RWW+g7xpWbqD+onVrmxFgmHbPzczvaya6ntGx0rDDldBXxXxisHu+IsZ561Un6GDSar4RoL26f9P0F8318nn0zewaj7oPltYtsGPcqeHPoiKvsbO0ToqzTipXahSDWucKlIuH/JCQdcFoAzM7d3RmnJ7YpGPsAUzBMha0wU1PrFvcYurj4RMjQo0h+hDgnIV/WvDy+7BR/Yu+oG5TX7+jTZzJWzzOfnN20ql3kk/SHXEdHpsoLEzQrAFi25QMtjVpCCeVrx/oSE5mzOzc0naKjvq2xCgyXiaCyBS0qDdxIHpwx+1cKbg9veWtbzaRF9OZ02fSqZdOteHkS+nMKaOdOq2yc2fPp/MWFs4tpPMWzp2z9OJis5KjQ6mHujvOi1aJK6+6Uj8JwoMb9/zgPZ022Ftzu/FScb0aW8IjPv5sQsA3aDEp7skhRF+7bLk9a0dlxA11GCNNWYUJzTdozD1thT5Qt6o/0/3coudDXfONIgKDJwd+qu/JJ59ML774fDpx4kXflthK47/jslW3ffKYGbdtUqYvWPLZuQ9yHsQKfTQ/aSKk9Fd/9YX0lQf/uhmYQNSDVm6RxGN/+w/sTz/+Uz+e9u7Z09vGRgDH1L3gFnP00VbAdGOSPfHEE+mLX/xiuubKa9Kdd9+pJ5bAwtKiXp125dEr0wd+8gPSVdoW/QM8R/qr//HX0tHLjqb3vu+f2cln99cf/Hp2tp2NHW1G3bi6wlunkLrC2Noe/uZbbh55EocrZ2o5JpmrIZkkJVcEj5Hbdz83d0gu20TmNzRX81J/wXSsf81s5pW72W9HxwqMquQzv+m0R4YiRcctTMJQh3GIeODh63/39z5YZjgNfA4lwqjRJu5x4oWT6cknnlT+5QLOzIMbPJ3T2febXg888EB65OFH0hc//0U9UCyyTX5+JuTGH3hdes1Nr9F1bB504HG+xx+z2MITjz2enrD8iRdPpKuvvDpddeVVg3Zr0FOMbajXjssEGYaSg7T5WrjJFLXXAThm1dDMKzezThTyxAgMnhz4gVVWnxdeeC699NJL+at1P8ncunWbrdz+JA77ZJwSQ/JUDvDBGHXKvkEqaTjtE489kf7wv34yLaYFm7UcLXKhKQUvGuPMIOrSp117dqWf+dmfTju27+htZ62Io1JztBsD+vHZP//z9L+/8r/Tth3b0r/9pX/T6EUZK+ozTzyTfvu3flsn0upToTP94fuW//OXftlfGWHp+kQbg8R4akxNL2KVWKw3B2Qa9kLtm28eXrl1JICQ1QhZyACl7I1dubtP4qx6W9I4NHrkNCDF71A+ZqvIiRPPV87N0+9sS3batoRnD925Y+VqnwCJuEVfh0uaD3z7VDVXhVbm7Z85wKaVza5/eanIqvLDTVwT9mvG29Lm4iTvnwpsV7hH5MXnTqQtO7fo19XCRgA/YjV/9IlHjNkdPsYGkN++a3u65qprzL54to9dF84fASeknkpEM1vyA7WWx7n5hvKNN79x8AFh+Fk4I48/kEauRp42crxhzm1Y09Pvok+x525XbnPuUy+asr5ysLfeaoficG4OswycnlyZsHKDsTRrWE+qFHnTuFMH/ftkhOOgyz81ws4EgL4RgOj2V77aIRB16EdZB0QZiH210jZ2pJlUAZ7ox+l0lBbbfLrl5lvSwX0HVQ4gN84ddSNvleTsFodTN/SNcm5TZs3PUEppJZTtIEi5L6YkGS5H5RIZXAll14qOESypiWITicAWKCZOBFbmMh+hdoR/Upge6B2hVy8j6eSck3KLN9sJo4Lly63eWuBDGDLMRasvSALNPSOedeAjRqAGZS/LkoFjrvVLHICc3PsOWhKrATFd9mukmr0WiCNEDf33ZEaUBzqFDUpZwW/rgQK5jsFBJsTAl0490RkmFK8XZmkGnTU52dPzl/sz1JeSTrprY4AdzXq2ugarH3UtEwtUBa3MOTQoWCkn4DMb6uToV339Pvu2ROwWyFNARzIPoCOPPPJwevLJp9KLL/oJJTxLSwu2Bz+p1YbDxxY7sdxsWxF/WU9eqbBo3sJgfPJahSjjioiKPa19Xh4BVi9Wau5c89NG9ve23zQd9YwlCtgfX5bEoHWgYr9/gvb6EM6g6jkN0DHS0HvFG12yMy/csRUKhAW7VO/NJDTtV+jSTZJlsVuAck5QpZN4PSbECSVkqtx66y3pwN7RbYlvP1hODFl5+YylkSGShKhIMvGr9d+W2J5715r33OQt0HkK0CN4cuA6N3tud26/7ZL8X33hC97ZeTt04mg4KM4kp7ASBt8+3jmzqLWHa14UL+XeprebVxdrO3j8lWRmsDxBOEwhXvccG/O8fi/bWso8tDM3v6L6DBI8m3jJjk0WCbe6eukOP6etczOfbFyX9t9d95/Z1jtP8pbAWBRvs8kbb3yKN2vRHid5bCH0KjnTwdvyCcpAk+bXli/aREU27a1cWJYtBHQmWDLOU8oh9JVWnVHenZm006jLHjmPnup6UFb7bdL6WWwtFv4t56233mrOfcCZDLAzJJ7ocW5i5OY47vsmvTHObXtuOfcqfx5bdGI8IdPVoR7n5kucF17wl/IAXl/w4osvJBuutGX7NlvBt9rgZrkY3WRwsqozdzPWBQ2oibazdvLLK2R4bwcvm1y0IvRZScuLSzLUMk+m4Bwm7+y5s0T0ToN00epeWFmWw9Ae6RUGRI7uRkYvyTQeTRamsU0WOb6JogyUhqdexLHiqz9FPgAt6ka9WlabpzVv1zptdJ8AWQWbkJTlhYAC+9NX+JkHe0X7kmk0xowFQlsYy0MvdVT/qGu2hIeF4Mqrr0pvfdubjTel2269o9e5cYXeldvA0QqS+uYkpTds5dYJ5Rqcm0BXmmrokXkA64Q7d37j1KmTxsJAmMFtAJpvKLf4CsnhWVsNDY7JIV9qhAEVmwzRzVB156EbyfVzQskjXTNP5EN/FZmhm4HIjEwKRo/+M4nooupZIs72Y4CoAo100BEcX5+H/OCVXe0jPskzIhTkQDP4If2i3sDEBWV+slttmzPo57uNjVhvvbItH467bAsCE5kYOtermcRLC+Y8RoNHcpjs9iFPDK/aAeigsvl0+Ohl6QMfeL+N0+Z06y23z+bclo5tCf1+WZx7lzn3WlZuDRKSFBvQI3hyaLYlJ55PJ0/6pUD01Rm+ObX23BbzsxeUsYKwZwZ0zDuHM7vcurO14yrfZbGsE4ZkgKBoaOyv5CHlNVs+kIexKRwR66JyMlKOmpXLbyPVqVI2PgIfB6UyT+SBRkfjkXksXeqhI6M5FJORZhonIzCxLGbc2YtvsfFha8WWasi5PVE4tyWiPdoSTObGO/fo1+/ruucGrDvh3C+88IJtS/ruLWm/xOEQqEt3M1znDpUj38ub4xp9vLW8cYB3Gr4Y6A6iWkGPtsfBeaxyU7+/DtSQ191rA69MuVba4MvjGM4W+/ELtrrrYzT6O2nlFi03J9mWjpXbCKJ7coOc26BtSbFyt5uuGZF17aCmoaRWULMAacobo4f+RaWhTklOUeYrfT4hnFCnDjWg1fLGBfGx5w0a6TKfQ5+8vnaCVocoi5grSnFdvuQrQymPrYTTInTb8ytMlja5JT2+WFOfzD6k5fTZgWvIoYk98nG1gNPjXBpz6BsNFAllMmZ2bs1UJbwfJciXNLOL/atXurzdWKceS1YG++TmVw5sJSCsLLEyeDoCL45nS+CH33YVmRY6mpkhNeisfAQ5gAfAilQDvj76rAhHnYRw2mn5AXzRB86F4tvH2johLa6CNNItLx8xAjVxgelaXiNotPoSZ9UnlJZonLzec8crjF/gUiB7bnm5X+7atm2rHT526SX0rBIYU6tRXkEc3cEYGhjo2icKF9ODX/xS+l9f+l96dbEuNVqzmy5u4Z94ocVgEwNi3s1933vu0zX4obY6sJGbW5lLTzz7ePr2t7+duAmM/SlbLvrI9mvXzt16Qae2XFz+4/IneVtRuYy4zXhDhxpxclvqEsMUtMj3wU9QHSVfpJtthOXZW0faQ2xPGP920t9y862dX1aA2iyU8BGTt0T2DCN7LBmZ/l1+4xR5C0ZXCXpkHoCp4pcVuJ/7ZL7OjcIMvN84Zc5tA9xc+12Dc0t9/iz+yEfuT2fPnrXaJs/O9i/wfm4+FzYZtzH1+JLemmpy3v+B9+mF8ENt1Xj22ePp1379V82AprcZFjWYTM0lN0ae9ohZVcwwF1nmrD2cnJ8p4fdw6i9zgPpkqHUp6ZGuoZPUol7NR36cc7vToazLirKbzbn7bpxSl0IezVoefvwC55YJkJvjl/PGqf6lY5Wgw4pROhumRq03HVltZwBtcWnLZl1629velvbt25d27t6RttoRYtuW7bai2mq62SeP+PkU+vH41tbtW9PefXuVnwZRn4nvrxS29vPxWY5t/dHtqOiWB57B1kSzmCt5Tz3+lMr7MGSToA3VAxwpAiWf6xL5VnZMrihTG5Yc10aJGOURbiOgCeUE5ve6OlsNZhZf4hVY1aXAC2hKNYqwTbVyc1cg2xJueT2hS4EYzU9imm1JXrk5NMf9Ee2Adge3b6ADXJn5xH/7RLruVa9K73nve9KivtThOrBtWXgDEaqhlHV+mYdmzdl4Ohyf43ou+Z3bdqY9+3ebHqzw49vDBjgpe/mvf+Pr6Zvf+qauJ8c1ZhyXW2u5ngwfzq/Lp3xZZG3K+W3l/tEf/dF09OhlkqdvNg2T2p2E2I5IR5NFXKZbOF1BK2k72aHp3MVWVBzftyYX0q233pEOTvP1u/LeFnLVI/JOUhl+te4rt8lf89fvBLrSVEOP4MmBbUncz32CX/syx6UknHvHjp2KY1siB88rq3es69yBmoaB/viP/zj93df+Tl93//t/9+/S/BaXiSL6JhVYhKNJV0LOWy9UDD9BXyhVbdSg35KVJwsnpG4Lggsn29jH0KYpsBUsb8H+xyc/lZ566qn0Mz/zM2nPvj2a5EMo5Q0hnLtE1Ovq447ladPXxi+2IKB9WAE+7LySbrvtzl7n9kSPc1u63HPHiSfpjXHu0evcMx8pwgTjmqdvii2Uhz2SXpYZDNAJqwFGYLVkf42jXjALMlEUzIFYibdwAmcrI/d3cKKnW2LFM6e8aORN1jRGFQ9s1hb1dB5hJ8e6l8TOJ3jogZhHyDi/IHAviocdafuOHdoqPfvU8fTtf3gonT1zNv2JTdDV2mBaoHfZvzof7fs4afoa/D+LUCxyNVoJ/aB8Es/6AP26Os6+DRqjbUvGySLXNhrjxxYlnLo28qxgGHBsTyPbZSmtVBfR3lraDCBDW6pCJv2OCUZZTJ46sFLpGGg2ID0O4XhrQWw7Skiu/43YA1qn3QFzFRxdWAFVynLkrUdfBlH1YXbnzuhTsdsRN5hoOn4p0bQfzrBmmAjJIlEoMI384JmGdwjj6k6SaTUn8uAM0Qahz+5gktPU7cjZB6qEEzJBvZ7pgH17MF77tpypNV7DdUDVwMzOrb0ToadXJalZubPR3Ug2OFP3cDpGtSJWGwAbjMDUzXyXIByqRu2U3VyLmg+U8ijv5s1WPcLEY38deSK1dfswIsoIUUNl5EeY1hHIruTP7NyNwj19bUmlIS3OjfbYv0F3T8dA5+QEyOiSa2tLYb0+R+lD3+F6o4Furd70YQaMMSLnDTp3IFMJre0RYkZPQl2vmAyql/N9CJN3pBSs0OsWNgQoUs2e2Z2b+llGV5TnOzTrFfdM28l0Nhb59e2qDae3Y7OtfPk8g9x39aDG0KBtJNQmqo1Rr3GsAspP6JMu3ZGwJsb3rb8szoemnfRxFaSUVi58ONg4LdYNNFp9/T6zcwfQv+iDEDRsimG5hhwGjoHiZAr4ZaJWwrjr3OMQK2DzrWAGjh1XasaBdsKRIozDuq30qDZGPfQqbTBJrwD2LXnrPpF2uU7r2ghau8cPUH3oaom+wzI0pZZnGPA1RhprrZPFxoNGqy9xZnZulFZH6IAoLSLv10j9UhkoDVWiMXph/FlhwyCFrEVNplkwyVFrxwBDfRmHWoYAafXdHotSx9pRAer06lSAGlFLMpqrX12MrNyWl48YAeviAQQtrOObXBvUQHc8Z3duAkrSAVFalHmMpy8GaLBp1B2QMre3mySMP8ngfcCpEYOTy9GhZTmTtiW067q4A0SAVtJL1Plp0FsH0hhRoUOkpwH9nabPWK2Dop2oTjTNtm5k5TYUB9Bm5Z7Q3bVjPVbu6Eyfol3akGOM1ux3GMw12biwsB3ByW1oM3E2MIiM48t6cjlt96ZwsLUAq9kAKK0rKCA3aSPoiTGKxmrcGcGCHXo4GePcP9brAfrRHb+ZnVsY0C/6hP4aFAh8e0hSDiSCOliOWblCBI/zO20szLq6E88+XJetMdVqpv+u17Ro+7N6mIScGsUsukzTx0BzI5eBfXTrwAAbtG23+vnRrA9BHSk1AlKgR4vrYbNhWGux8mbM7NzMVNQrDz01av0xlkLHkP1oB9XrTIbx5ZU77o+Yrl4/BgdxHQcGR0TWJHtM04/QaZqT5wBVBvtiZL9ZqjvZh+SPa5UWKCcwMt11db1hra3nnrtG2VFuhHLjmKFkLO7Ai+46wl7TOg18Ne9lRy/THXjbtm/T/SNsLaaV14eybrQ3JI/+9ZWNq6OtD2UyZGMAj5Rs2xySUSIcsFy5J9WnCvU4SSztpTr2wZFrZx6SNahhdM0jz3dFbgC67jyzc4eyfXo2ZU3HoFhGhNEaYbByhZgF1OOl6B/88Q+mD33oQ2lxYSk98FcPpAe/8GD6ype+kv72b76avvXNb6ZHH3o0PfXk0+n54y+kkydeSqdPnUkL5xbT+YUFhdIxJukiB7AQfMRBq9FHh5+g21xzWbwcfnVWWD2kX053oD55MvTv5TNM0vll7VPV2AY+ifNEep6X8pw8mS8j5VteeRJn924Nrr9GLT+Qahzdp3FMtNJtPlDyoBO3ZBL/zu/8Tnr6iWdsxtqcNRY05KO8gcfMlKc9Tp54/Mw+lx+9PL3vX/yYHlMqZfeBdiJ+7LHH0vHjz0meHuA1J+VVCDzZH2+k4hUW5Dmq0KZuS8B5Vi6mT/z3T+gNAe9657vSdTdcp5uspkVWQ8gjQcL7XRZmtHr7oZs8YxtbJA++ikPnOVNsEfRJ93OL1uStDnmLRS/yG/eY2Tq8tyScO+jyveDJIe7nbp6htEHFwbnuzaDv3r1nxLk5DHa/yHE0Z/AFap4w1G//9m+nZ558plMOPfJ1rLJ88vC+f8VjZje4841ByHvuuefTr//qr+t+bvIhE6APefpVpiPevm17+pcf/Bdpz949ZucL/nL5TS5jmr0zDglXHoEG6DaEKPPYx5IxJA4Hh46+8f5AQB66v3Gq/xXGxuS6WD6cW2Tkksgx9A19hlLOvYZXGHPRXrrTESc1KPOtfiQ8410ej+j0NICP35XhHSmnT51K73//+9Ldd9+tn9Y4dt2xdPToUT38e+DAgbRnzx49u8nqzE91bN2xVft0HjHbfWBXOnr5UdMvBnkYGD7aJb1pzl+hAKCLZitw0MhHHfrGIJ4+czr93de+biv61rRj546UfFfSi0n6rBbIDX3bvJLNOEbb43To+/od4PgUYYW6bGNAa34ECaz6SRxLSJw0r1buzhunTrxgPD7AurHfVu5du3brcB1OoJAdQE5hMsPofSt3ic/95efSl7/0ZTnuL/7SLxoF/VgtrZ4pY+uQxSbL+q1VyGh+H4qtuPnSEXpQ9l8//vF0w/XXp3ve9CbRvHQU6Mlh+9v/+O309a/+fTq3cCadOXdWry1jJceBeb0EHWn70V3d3/Nj70mv4wFhO3KBaVbsIZTnDAD9agTNY18xAXVlF0NsL8i3q7c7/S233Db4ywpWQXmNmyWoJ5ObXzB6yhsddtIb9iSO+cCNN96QCehCCxWkwBR7btHRI6cB5uk69wnvtAX2lGxL/NfM/I1TpXPDhzZsDaZxbgz0p5/60/T3X/9G2rRtPv37f//vslP6FkDPUFbgaXXAM42RBp///OfTgw8+oO3SL//y/6UVfsjhsEMcyvl5jQsXCcgzfpswTKgV2ra/+YubzI7LsiUOQ8z+e8/evekbf//36Tnbs7/9He9Qu2CqbYn1m/5hdfgnOXeZ9/R452bMmbxRj3jIuVm547YH8n3O7a+9dl7KNsa5L+ZtyTo9/e4qtyjzMj6dlLt7CXmSThfB09AHEAbvgxzYymlDjmWBiaITWPuzU7yRQB2C8nliAd4Wu4n9wcqcOWF+gaVKHKUDNTKsLu875Eesttk+mp9E4UeaeJRs147dmsQ7dm1Pu/fuTnv37UsHDx1MR44csW3SwXTihRPpT//40+mvv/y/0l985i/MoawPWX4Jdz4LxDlY47m0qxfos2XQPHZ76/yGYBT6EsDpuM4dNOxPcM5R9H39XiJGr3H6Hv3WB4xj151ndm4paTG+VKMkxWrg1KKkp16gOUmdATK6dOJDm8MNlINYwlxcT60jZ4inHJS2b85PaF74Yw6jSWN5P5H2dGcLZoEffMUzqPvc888hSOkSTZuVSnKSnK7Rp39L69bSDW457XAd4C77q/qjYgX8QbFHI4COk8E2vEytB5DebWF25yagadcqQknSlzhwa9a7seoqJSVWpIa3E3z1qOEyWbmtLn8KXqcPNT142aPrv7Xhh8u2PFZLBjjS6DkN5ChyDJy/W0e6ZM8or1rE4RqoriHyJYZoNT3ybr9K3ogMqz/i8M5fyw0EdaTUCLQGPVrmgLpxWIeVO1xskp5+KIWba8stoA8h3ks3E+wQEl+/95h4auhdLBsEbKVJUWJA3SDDv7i0lJ599tn0vK3sehdLhWX2qYuLg47Xh9J1RyeP5e2vlDdJ9Dg/oCrlOBkxS1e0uf7Ad7r+M7NzZy2ngK12+p//NVbyWAbMhWFMDtekI9SIFbxdyeEx3sYxW8VKOX2yStTlQ/x99EmyQc1BHY1xVtc0FM3pTmQF/x//4490Lf3X/uOvp7/8i78ULcCXQJ/+1KfT/fffn55++umOHpEOmW4r8hZbUdNGLi8djjS5qOtlbXmNwd7nKsM1u4j2Vg9aWuPKHb0ZrwaKEvd0baAiA9esbiWPpcfvxb2NaY1YwweeEyjPlwiDl0aPbcO4gSidcAhUdzdy1PK4jv7Nr38r/eiP/Gh685vfnL76N3+rH1+FD4d79viz6Rvf+IZWb2jxLW2gTXus/X/VSbZKLQ0+C/bHOMjJrahdRPrRY7YRZMkbjtKeYGbnVvUeTbsdMC4Mw8eMIwORzwbvDoLHYeSmxBK6XMWq7EWqV9Z1WN7/xqK/bttuo8gAoi5Hl0bXgTrwgLrNvjxgUFo1nAcZe/fuTV/7m6+lRx55JO3Ysd3oXn7+/Pn0B//1D9LyhaV0+623p0OHim8Os8wuuHLVTkpCcx078zdl9vEj6OQJWiKrPwKk92m0Mei2NPvKnTGuM4IlsgsoYLh2lbA4G7IeVDew13J+eOHoRxTJQSx2GcMDQ3kX1DIzlJd/xrRXl7V9mg3eS4enu3K47s39LlxqpOjt975Dr0mmb1/+0pfS2VNn04H9B9Idd9yReLNW3/cB3lcmTtW33HQkR21Cv3DwnBmDMNsQK3RYur3bGNQ6zOzc6kzWtFS47gAGjT2dthv259ek8xUB4xG5x4KiFXTyJV/knQ8CfybXgo9jqckoyvoE53b5kjmmOu2IJ6OUU4dAX34UXRqr52WXXZbe/8H3pX/5gX+Zrr/u1TZYm9LTTz2dvvj5B+TQP/RDP5S2796my439kwyZ/VuWWofIskSU5c0CM4Chr98DONgYc64zun1a9cqNmFJU5KMj2ndmAzWG0v+Iw6n6UcqGsR6MgA2DTii5YsLX6c7XzzsEuNEl2qgP4UGvMa4s0Feuia8JnsssqmWRxmm5TYFbFviCiV+N+OM/+hNdN7/pB25KV119la6rB3+N0uE7si2MToa2r3W9CysrJDKli6EvcdhN4lwcQ2fb4KwWKNJ155mdG6XVEZOlfuVekSZEJzEQ9gg7+YmYpwNa2XWN17tfD1CUS6gFfelQ8fh2xNoyxfhKPRAD1abdYfsQ/aBvjrIn/QhZ4QjRXtkG6VEncuhLHm85K9APv2tyU7q4+WL6yl9/Jb34wou62estb3lL4sdakT/URiB4xp+YO2KydCBSfxvjbpxiNHCwVa+gM2F0Gs3u3ATrUDhCf5eNngua69oQ8sD71YTMMCAgHIWvgnFyglhNhCZEdnp+kddy1hFzlmLfLGfWhKKtcDzP14HtEvfMRHWuIhh7B6FPhMZhcr5ESYt0GQRry3KeLtDhKXD8mePpwS89qFtj73v3fWn7zu3Wef7aWwqjP5I8ICcQ5SVfTADypANMwiLbwaSv318+jE6jmZ07OlPDTdr6qr+32hJ6QNj32VqJCZDleJbOxiSMQx8P+Te+4Y3p2LXH0g+8/gfsLGxONzLFO7P1iYmQUcrwtGvODV1AgzrQxxKSX8iaGVYVp5kG3Ovymc98Rl/YXHfDq9I1111tK2zWdT2Ru4Ne3jcnjOvnpD03wMJDfrN+UCuezFjFXYFZQOEwWlktRn94uCvQn1J5Vr9DGYc6vyuw/U0cv9/CX/FLZQbLB8z568GLvFZWi5kgHBmWl5Y1TXlI4nN/8XmdjPFEDPdK79q5Sy+65y4/bm7yW23n0vxmbnrakjbPb9VVh4WFs+kzn/2M8e9MP3LfffrZEdeja55Wp65us+Khbz+UPv4HH5e8K6+6Mn3oJz9oduBqCKsmHC6flZhbev/yL/5n2rtnb/rxn/iQHnKIe1j8qkYMaujUjlkJ5e2vWWSKck4664cUxGMxuP32O/t/8EkJ44VoeW1bqWfpOGqT15EeuoX2Ngf2835X4NLSku4K5JeM63GfCtZg/bDC7M5NR9SprLBBxrJYZON/5DuP6qdDnj3+TDr1kj9mhsIMxvbt2+Ro/AJY+SSO7kUpHCcGGBrtlh0u07Ss1dl4PvKRj+iki3Qg6tIGBm3lUdPk25KyZduW9HM//681GSjn8hv8uUeSM4o5PSJ27tzZtG3zdtXTT7RbPepyKY9bW+HjFt6YyIFTL72UfvM3fjMtnF9Md99zd3rTm++xibc16+Z2pHl+wOr/+39/VRP43nfdm95w8xv0An1uSV1eXtaDF/CX6PTf5GD/GMdwbBCxO5oF4ynLdZUl1xtybnfmYeeWapZHDHRzuA1ybm555X7uGR8zCxYpg2I5jwrQyDVCjP9Rc+yHHn44Pcdvv+Pc1mMGmMFlwFmBtGpaOpwbWfGjTMA72HXuMl2Drchff+mv04N/9aD/VF+14yrrdeqb4vTgn/3z96YbXnODrZ7WTp6M1AlEnaAdf/Z4+s3f/E+qb9yiuSUyoCPHPvSPEM9VHjp8ML37Pe8xxz5vk+NcOnTosJXx2F2s3Na22Z8zgd/4td9Mzz/3fHrta16XfvTdP5I2b9uUzpw5m37jN349LS0sp7vuuiu97R1vHdE3IJr9MWZoCQe04JVjRt7+dI6Tnd0ZnP/W2+5Ih/cfdppBchqBrXMHP5DcHPtCaHnzj41xbp6hxLlnXLmDRcqEMUQx5HSTN35W7oce+nZ67rnj6aQ5tz984E+8sC3YvXu3fk4D56YjsaI17xbMzlXC88Odls62up06eTqdWzrX/OA/Tu8/vGrGW16w7ceiGXFBK+I5c67z5xfS0SNH09vvfbut3Nv9K2lrP/rcdCw3LSeyz1NPPJ1+97d/V+XxUqBpwcC+5W1vSXfceUe2jR+5gPpJmyspff1bf58+9clPaUL81E//VDpw8ID0YDtz6sSpdNPrb0oPPPBA+smf/ol0+eWXN3qH7dSHrP8k50Yn9SWXh4MrtjG944670qEe565XbsloZLexO7en+x5W+Cd17gjqBunWUh5Z4JBD4qFHH0kP28r97LNP28p9QkYHDBLOzfOMfNsWP+Gsp2dwKmQQ07mif95ZQgxcUSiodcWcUDqPDah9JC+fzehyYdbRjz7keQ7SJt229rKaS4p2AXzdVpdsIv3t3/xteurpJ/ULanwlzv0gnPQtLC5o0FgIdP3dgl6vjAxkWnzvO9+R3njrzfmSoB+10C3aXLBJ99GPfSwtLy6nH/6RH9Z1bRYD9Phvf/Df0skXT2qCfOpTn9JvWl5//fWSQ3310cB/7ZkzjTI5cQHPuzPHHtkd2p2PgK3uvPPu3idxBp3b0rEtcTkw2D+jbdTKzbnc61br3Fq1Kdd/JbzMc3qyGTz8nUfSN775rfTii8+lF194vnllA47NiR4nbTpE49xWJue2bQSS4GsCMotVFBpp4hKeJ2AwkUZQ1mllEKjQttnAkq5BC3J5GGWXZdvz+iBZYNAKh2DAlnkEzQaPI8fC0nlNCCYAly/5Qddt232vHogbmbDD8sJK+vRn/lQy+SaSp3y0fbPmn37qmfTxj39cE+ryKy9P73s/r6XYJf3cXkhDD+9rici3sescJ5O0z167cb48pneZc6/2F4RNkPMjHzttiHPPZeee8RlK8lLElAK5K/TCaG31cO6njz+bHnzwQdtPnknPPPO0HHgzwZyb7UhsS/wki5Mv35aUd67xnzKZxf580Ik9XUPlWc+yvI/Xedq2aoyTH6jTsUJS1YuyLuqJcmZsO6nl2UojbZnb6u0UpwZxFUiroYlbXF4UL3xxdANsuU6fOp1eOv1S2ndgb9q5Y6fZKmzoPDWkY0fnPJZyMtrL42sZaASV53p33XmPbUuGV27RaFoFVsfSnRNKRZZfZ+eOHlGDK2Plyt096+rBaEOWVwcI/gBojf379+crIrw+YYd1xFYCOmbcSLOs02RLXnfAjfjejgxgbbp4DG2prAP/Q58wjGc8D0p9JcfoUebAAbuO7atXlmWIOmWIwYiQOfUfWfyOvVbWvH/G2bTtgm5B6c1WNr85bZ7fIsvbEDdyATYi71ekLuqqDVu5cOymbau7c88O/Ujrju28SKgdBcqRUevrwfvpwe2HfVXGx+j6jkAf14cy76ePS41Yvb0HBsuH06NV1N4oNPKt0XmzbYmJKzc1w1DalqA8VSTVq4ZbxMrNFpd7j//mb76aTp8+bQUcnt1Qup7K7LV4eQlDto+hscLjIA5eXo+ytmpt9sN1XC7EcaKOX3rjod4LKpduJSwbe35Pu8lVF/MzClAsQo5Xd5oPZq7bg3C4GtAk38pdRhdB87rOGytvyCvrhaxIR4wzxoQKlPWDJxBlwFdqb1t5xYyL87PgeH3aTrbnvicdOXCk5ScYnS9xmIxoF06tepZm4sjalkeqZKnd9Vu5S3CL8A03vDrn0IUWKkDq25YAaDivfAI6kZLWkSwpn795nRxChuTBgxxWDusoMiXXynD4JdvLrqzkx/3tZO2int6dM7odpk0GhuCS1TIGsXJO4rAu8mKP7vtXd955O2Gcm+fnnsn7ZCCN6efn26MG/Bid8hKl8wTCaUbL6KeXh8OWQLd68GQnQ9+gog/0tsztqFQji+A0R5tveM22kE2SaLVjo69inM/ajHKnp3TP3T+YjhwcdW78wLhFiDwVwrnFa/nwDdI+1rM7t0R7UpOmA2tQzv2a6zIBXULbAlJgjHNHBWjh6KTpAGV0LBCdKqFZbB/qwbrCv6hjchiAOKhdvMiPkdqAYD9zcmuxNQyxKeDXZm0SWKwvN3B+i5kkSkM3A/LqMh2GE1+AwG8rlBlTv92ukz8LRsRhpVI+ikRaTkba/jGJwrFYPdHFJwXBOx2OX0+EyDsv6PKDsDdlTscWTgl+j1s9Qm5bt0hbRM+VJMr5sCPEyMfJpRw7j//d5txHDx9VWjIIWX21a4QLpqZ8wHikidWV5tTxakqv1rkn4dChA+nYsWM5ZxaxBnKzLaTAwAmlqdQoqtltMYeaGNLSscN5A3SYGpoMUVCmDW2SlCTmdIB8iUIQ/y0qbUNeWjJQ1hBGdcO6o3sfWb1tknFNPBvd71HxB3AxPM7vj3n5K9HUd8ly5whb+Z6Vw7QpgSLGp4nBx/La+khXG/g8GbwMdnMFYvtk95AuHAF8DHwVH4XTqIMO4qEJIulJxknkSzRO1oldjuoi1dJvugfnvrypz38tbKSNHwLj6HlqWRztWr5euYlpa/2c+2K6/PKj6corr8x508Uayc22kAJDzk2aTtAZ0pmfvOryL+tWr9pkm/pO+q6F+mRKWtSAwWCK1nvGOGFeXnL6BTva+FEAO/JqNd9i8bpkjiRcEmTbxeQxNjl5HMLD5m7Q7KgGnxh+TkK7XsbRRKWKadsnhst0OV7Gagy8X6zyLkN9yH2B5Cf6nFgGjXAhvfkH3za8chu/0ORpF1nWlgiW92qqv1HOfc01V+ulR4FB5162QzirEEqRlzLMaMWutEXeQetEdDRQrtqsZQBnxwylc1NCOiaHU2pUwntQ2gMJ2dwjNcv2ap2jbDz69AtE7VEebAVd9jN76a1WrLSmRBwl/KqRa6FtExPJHGCZCWJHEMr5uh5HOHPmjNXFMeJau62O5uwuk3S+FdhUYrxi/4+dmAD67sHy+KF5o7ZzWrGNl9h1sXI54nx6z7vfk3Zs3SEaULXc3V7nJjZZ3obnZXNLT3Lui3kw203adOBkkn13YFXOHVX4T2BbQkc7DmUFoZzVsjpGsgJX22NCFtXQ1wOulwtWG0rYkOa2QNClU6Y3E8Ty0Av2DUWsVAx2rKqcEIdTODwdpGVzaiyLX/GuQiYDRwtWXKU5FzFHoXPabhn/giYI7+Rb0G0HfJPKZPHzEiaXjZSNpa5kGZ/Usglz+NCRdN997+4ciUliI6XNL0rIR4hNFj4wq3PHQGTxY9Gu8hfTzTe/UZdNA1M7NwoBFCUflXTCgHMTQ7C2wlkaLotUbmVhoGkUXxfQdm5MEe1H47lsRJemjvfAy0e4+pHZqEcAdc1W5noASdFaSGaMogW8n9jG0MbNBrwdQxzZHBMn05GDK1U25stLi+mMOT3nGLt37dZ9K9u27bCxix7l1nITHee2Asm2snBu8qqQ0+uxLal5cOqbb35Dzjl6nRssWUdpmOJQCPgqTFBW0Mqd05xkbMoZ8XqyQb0Pf6WCbtJ/DYFlNIlsQLR6GQk6QW5BWdiFdE5CCvJagOyQOQ6Mq44clsbpvVJbc+zKDYG8xfIPS8/q3NyawIK6Gufevn17uumm9g2vIHYOI+CwOA5NaVYa0KHSAM2AZUxW+ZUD+squtgzQnJ5tYfYpj2RyQvIEvF5p+1c4xzSIdtSGIZxwkoxwGP23tJ+wRuVh9E2eaGoGtacC+vQFHkjRJCow6NxUKKEvQAwxACGGw5xiCwxUWQsZGlijqywqGUhGlnFsxjKHVwIaW1iCdNl/QcTWwdsKhlynnRzON02IMSIETSjlj0GwawXO49vI6AFFZbHr7ajLArUjBsxVc2oUtU8GqHPw4KFRn83xKMI6FXS4GW6/A3Wg6oQc2eqvmGwF6zqHb9LEEYY6fwkbD4a3HnrGrETwaDI5qXEZqhIADlZVnQk47KTAI4F79+7JNVoMOjdrxfxc90YUEB2Q0pyQmOaE6AwxDkuoIac2Oic0IQfQ+XplCN7VBsD/SqxQ0yPfx/v9hrB7iXp8mjHPMWid2s8zwkfWA+HEZZrFz1LaUezbt1fX9WsMO7eVzJfTckrATrUwhjpsinCmjtE0KXLZRoIJJEe3xsLhIywbjVDTIv39DA25hZXsGeGopVU0thbCsYF+gSXnxWtpjtKeLBgH0BypM2vp0H3AqSnnzsnDh9snhEoMOjfQ/RNDioUuFiso0yrJfxxF2wwKLcxbb+ENBx8X6gkShiqRi8Vfg1VFOvWURRsBqQfNs42TDwV06aMT6O/3Ihr9bfzoQdhnXG90vsWF9hoY0ooYZ/yh8YkiDXQJGVqO7Z/oQ04th45Pdn5u+43nAWqMd26r7LdUdhsr86QiJyUtDkOVwFjF5G7qDYVA1OPyogyexYqeaaqT6fBqYhTpXNSgbgPU+SFoMEYkdsFRiu8fww5lgF6Wlfly4F9uaCGxEAvROPvIneEZUtfodf1xiH73iQsnjpW6DOyzeXaAdF9txn8s5vnxz2I/o8HNoUTk4WyCkUoHNN9vVmC4MaQC6RwCkYcvmiodWXEOQDQxd0PDP02AtwggdKjRRwPQZznpLkFb4fSrCatB1O2rjU3k9BkxJhiHVTu+31BfSTDABmUr/ygxrgzUThw0xewmLHASefXVV2uv7WVeXmLwS5wAq/HiEjcCXdDFdy68Bz2AiCExcEfTcJTfZoUDyLHY5JPWf+cNqF6lO3UC1CTLRAknBbREWVV1akS70VaZDiC7GXBiQ8XysgFHxAa0H7oEQqeSHnx9/LKjBfU50+CTjZVpx1y3upoRyDe8uUyxJ5UmNF/i5C9wuLdGd19aGsip+RSOHWka2L59S3r1q1/d3C/jI0B5tO6Y6NwAh15cWNLNNbVzh8Il9O1WRpR0m50dfc5dTgjaCZ7GGfkXhcDSTVmmu4QpYLzNQCNDCUOmg7qM5NSwOuP4Q2w4XImmyaKsYunIjrKoF2VBl21JZHmkY0SVZ7wZ95KWV3HVMzR+EUwGfSNpvkGscquDQ/PCIZxb95UYcOTYhkTeE9yzfVD7bEgx/m0j0bpjKucGKKR3fiza7ELnXI24dOYSU4qeiKZzE9DXxYZmMkirzBIMiJ+eOEpN+2hDgFe9t0TjFKtE3Z7yWS5pZBNIl04cZeJfA8bpH30UGNcY/6AVi12gPLqD2rn5qn15mRu2uJlrUSu6zvHsQ1yCNwZcddUVei3ItP4wtXMDWJfMuXmZDbdEek0UNUG5wbpDI6j0mlbRIcxSH83GcWugjCluPejtSdWetgIWU5cSHAQEF2XdGm0+5NflghUik1DuewXaZCsAnZAFsGVYC2p5AZGDxmBbgCYEvXZusTVcShO0JTFe0qzUy+bY3FeCX+H4/isReRuSZfMqEN6nuHUr75aZ+lg7m3MHmHmLC8t6rdfKBZtxy7bXyoNeO1vko5m6vEbZqcaCVZVJMiZhrfWlVhYRzhwIJ9AqaO20TmEhtxvOGs5YOm8kKYrjIWkCZQWrEGUbhZi4tLvZ/sVRWnoYPfof49vExSIHLYJWbttr40M4OluS2Jpgr3LF5p7z/fv3pcuPHlV6VqzKuesqPFmi15OdPd/piHE6g1khHGooLlHT+niA6P1FIxiSMStqOaUz9wHyNC2zx4yTQUCdMs0EaBwtC9QEIs5pQEQoXYF6s7uGy4kJqMgcMpCbcz0Lf4h0n3PHlqRxbtuWaNXmpNLSvKTJG/JbWF917Fq9nHS1PViVcw8hOhGBDiznPRWd4MZ47jPmcax4OaYlVDf+lw4bjlSeXAwhyifxlSgvcU7CLHJrzFK34zSe9HQWgROTlmObXYIONAGqPDLgUdpi8qA8WvShlMOTNkW2q0t2n4gDsfVQGn+wD/5AWk8e2apNHFdLoGvVNtm88+bYsWuKBw++C5x7CHUTkSfWAxHWcWLruxklWdr3X3oo10409FhWPtnQ6JgBmlPBnK5PQIacvZOPZKiX843sQFllBkedhbdGX13UDEcNJ69RdaUXksGCEcwVYutRo+PUJIpxLcc4Vm1oTbBPrNrh2MssfLbvZuxjAbv8iqPpwIH9lWOD71Lnng6oYdbLUQ0c3A3lRwPAPg3D8MQ6T5JgHPIcJXyimCAbCcQ1zgKJj+VLByrToC4vMURvMFA8sZ5hEs+AeTpYDxnjULpM7T71diS2Iho7FimNl++1fUHzMv9S5ipbteN942vR0PFd5NyrQ60+eR9c7hzzKzn+CBWvY7hgjr9gBuWhXJ8orCgY3Z/6huYh7qupHUX0ggaP4h6HGjqalDr31RMGyGCwzhRYTd0+G3dA1sTWjk3A5oqrVZvtCHnA5b1rrr3SdPMj8yzbxXH4nnfu6ZCtrxjD85/RwJIiGTzB/hKH5ySZIwQTg4dpAXnMpdcmWEz1CytcP/dH8HBmObv/2SDh3NG2bwUaiMfpJWZ1viFHWMsEmITGZSwach+c2G3UdWxsSJ5Vm/qXHT2SDh/mQYNcsccmq8X3iXOvHWGm0mlEs78YSLZDPH3OecKiXnzPwDIhxG2BF2Hy3hFLFmPIpGjk20eTZIxzlmV9fKINV+8g6o9zg5on+l0Duj4Wx3YDvnDm2GNDZ06+6rpXpW1b+ZFY5LOKz76vHodLzr1uwIytE+AQYdpu7PRYzRhs0gsL/v5u7UktwKOTrGa8ke1HhqC1RwlvF9BuM1mqskA46zjgcOU2Ywhl3xSycytou2f9tK2JTiCtr/Rt37596YorLtcRsNXFbbOeuOTc30WIoYhYjmGBvDu8n1hz/pDm7PxhkZXQjxbxFl0cX9uf7DQxAQLkcajSwWtnn8b5G11xSvTKe2vRslNzRGMCR5of++ILmW0W+5Mzk9tZCy459/ckYshwDpwKp7ekxbxcxyeEX01ieONtUs2brizWCZ3F4celw9vab/8JfsI3eIJnbSA/Qji40uhg8klv37Fdq/WePbvUXjt5BuSuEy459/cZyuHGAUFshbQn1km0bZeWrGzOnBMnzbw+aaiDU1LmsojcX/2LGCYH16l5mEA/ojXPi/k31pH7cMm5L2ECWH1zjPPyY5sGd/Zlc1r/gQB3d64akXaeOX0NGu4Fx8vr4Jec+xJescjn3ZdwCa88XHLuS3jF4pJzX8IrFpec+xJesbjk3JfwisUl576EVywuOfclvGJxybkv4RWKlP5/rdSDnmd4XjwAAAAASUVORK5CYII=;" vertex="1" parent="1">
                    <mxGeometry x="38" y="41.45" width="42" height="44.52" as="geometry"/>
                </mxCell>
                <mxCell id="16" style="edgeStyle=none;html=1;endArrow=classicThin;endFill=1;strokeColor=#FF8000;strokeWidth=2;" edge="1" parent="1" source="11" target="3">
                    <mxGeometry relative="1" as="geometry">
                        <Array as="points">
                            <mxPoint x="580" y="136"/>
                        </Array>
                    </mxGeometry>
                </mxCell>
                <mxCell id="11" value="Application&#10;Insights" style="shape=image;verticalLabelPosition=bottom;labelBackgroundColor=#ffffff;verticalAlign=top;aspect=fixed;imageAspect=0;image=data:image/svg+xml,PHN2ZyB4bWxucz0iaHR0cDovL3d3dy53My5vcmcvMjAwMC9zdmciIGlkPSJiNmY2ZDk5ZS1mMzMwLTQ4MWQtODM2Zi1lYTU4Y2M0MjIxN2YiIHdpZHRoPSIxOCIgaGVpZ2h0PSIxOCIgdmlld0JveD0iMCAwIDE4IDE4Ij48ZGVmcz48cmFkaWFsR3JhZGllbnQgaWQ9ImE3YTFjNDMxLTZjNmQtNGE4Zi05YTY5LThkYTQzN2U1YjBjNSIgY3g9IjkiIGN5PSI3LjM1IiByPSI2LjQyIiBncmFkaWVudFVuaXRzPSJ1c2VyU3BhY2VPblVzZSI+PHN0b3Agb2Zmc2V0PSIwIiBzdG9wLWNvbG9yPSIjYjc3YWY0Ii8+PHN0b3Agb2Zmc2V0PSIwLjIxIiBzdG9wLWNvbG9yPSIjYjM3OGYyIi8+PHN0b3Agb2Zmc2V0PSIwLjQzIiBzdG9wLWNvbG9yPSIjYTY3MmVkIi8+PHN0b3Agb2Zmc2V0PSIwLjY1IiBzdG9wLWNvbG9yPSIjOTI2N2U0Ii8+PHN0b3Agb2Zmc2V0PSIwLjg4IiBzdG9wLWNvbG9yPSIjNzU1OWQ4Ii8+PHN0b3Agb2Zmc2V0PSIxIiBzdG9wLWNvbG9yPSIjNjI0ZmQwIi8+PC9yYWRpYWxHcmFkaWVudD48bGluZWFyR3JhZGllbnQgaWQ9ImVjMGM0ZjBkLTVjOGUtNDg4Mi05NmExLTg5ZDYxODA4ZWI0OSIgeDE9IjkuMDIiIHkxPSIzLjkxIiB4Mj0iOS4wOCIgeTI9IjExLjQ5IiBncmFkaWVudFVuaXRzPSJ1c2VyU3BhY2VPblVzZSI+PHN0b3Agb2Zmc2V0PSIwIiBzdG9wLWNvbG9yPSIjZjJmMmYyIi8+PHN0b3Agb2Zmc2V0PSIwLjIzIiBzdG9wLWNvbG9yPSIjZjFmMWYyIiBzdG9wLW9wYWNpdHk9IjAuOTkiLz48c3RvcCBvZmZzZXQ9IjAuMzciIHN0b3AtY29sb3I9IiNlZGVkZjEiIHN0b3Atb3BhY2l0eT0iMC45NSIvPjxzdG9wIG9mZnNldD0iMC40OCIgc3RvcC1jb2xvcj0iI2U3ZTVmMCIgc3RvcC1vcGFjaXR5PSIwLjg5Ii8+PHN0b3Agb2Zmc2V0PSIwLjU4IiBzdG9wLWNvbG9yPSIjZGVkYmVlIiBzdG9wLW9wYWNpdHk9IjAuODEiLz48c3RvcCBvZmZzZXQ9IjAuNjciIHN0b3AtY29sb3I9IiNkM2NlZWIiIHN0b3Atb3BhY2l0eT0iMC43Ii8+PHN0b3Agb2Zmc2V0PSIwLjc2IiBzdG9wLWNvbG9yPSIjYzRiZWU4IiBzdG9wLW9wYWNpdHk9IjAuNTciLz48c3RvcCBvZmZzZXQ9IjAuODQiIHN0b3AtY29sb3I9IiNiNGFiZTUiIHN0b3Atb3BhY2l0eT0iMC40MSIvPjxzdG9wIG9mZnNldD0iMC45MiIgc3RvcC1jb2xvcj0iI2EwOTVlMSIgc3RvcC1vcGFjaXR5PSIwLjIyIi8+PHN0b3Agb2Zmc2V0PSIwLjk5IiBzdG9wLWNvbG9yPSIjOGI3ZGRjIiBzdG9wLW9wYWNpdHk9IjAuMDIiLz48c3RvcCBvZmZzZXQ9IjEiIHN0b3AtY29sb3I9IiM4OTdiZGMiIHN0b3Atb3BhY2l0eT0iMCIvPjwvbGluZWFyR3JhZGllbnQ+PC9kZWZzPjx0aXRsZT5JY29uLW1hbmFnZS0zMTA8L3RpdGxlPjxwYXRoIGQ9Ik0xMC4yMywxNy4zOWwuODEtLjg3VjE0LjJIN3YyLjMybC44MS44N0EuMzIuMzIsMCwwLDAsOCwxNy41aDJBLjMyLjMyLDAsMCwwLDEwLjIzLDE3LjM5WiIgZmlsbD0iI2NlY2VjZSIvPjxwYXRoIGQ9Ik05LC41QTUuODksNS44OSwwLDAsMCwzLjA5LDcuMDdjLjI3LDIuNDcsMi42MiwzLjYyLDMuMjksNi43NWEuNDkuNDksMCwwLDAsLjQ3LjM4aDQuM2EuNDkuNDksMCwwLDAsLjQ3LS4zOGMuNjctMy4xMywzLTQuMjgsMy4yOS02Ljc1QTUuODksNS44OSwwLDAsMCw5LC41Wk03LDE0LjIiIGZpbGw9InVybCgjYTdhMWM0MzEtNmM2ZC00YThmLTlhNjktOGRhNDM3ZTViMGM1KSIvPjxwYXRoIGQ9Ik0xMS40NiwzLjc5YTEuNCwxLjQsMCwwLDAtMS4zNSwxLjQ0VjZIOFY1LjIzQTEuNDEsMS40MSwwLDAsMCw2LjU5LDMuNzksMS40LDEuNCwwLDAsMCw1LjI0LDUuMjMsMS40MSwxLjQxLDAsMCwwLDYuNTksNi42OGguNjR2NmEuMzYuMzYsMCwwLDAsLjcyLDB2LTZoMi4xNnY2YS4zNi4zNiwwLDEsMCwuNzIsMHYtNmguNjNhMS40LDEuNCwwLDAsMCwxLjM1LTEuNDVBMS40LDEuNCwwLDAsMCwxMS40NiwzLjc5Wk03LjIzLDZINi41NWEuNzQuNzQsMCwwLDEtLjY4LS43Ny43NC43NCwwLDAsMSwuNjgtLjc3Ljc0Ljc0LDAsMCwxLC42OC43N1ptNC4yOCwwaC0uNjhWNS4xOWEuNjguNjgsMCwxLDEsMS4zNSwwQS43My43MywwLDAsMSwxMS41MSw2WiIgZmlsbD0idXJsKCNlYzBjNGYwZC01YzhlLTQ4ODItOTZhMS04OWQ2MTgwOGViNDkpIi8+PHBvbHlnb24gcG9pbnRzPSI2Ljk2IDE1LjggMTEuMDQgMTUuMDEgMTEuMDQgMTQuNTYgNi45NiAxNS4zNiA2Ljk2IDE1LjgiIGZpbGw9IiM5OTkiLz48cG9seWdvbiBwb2ludHM9IjExLjA0IDE2LjExIDExLjA0IDE1LjY3IDYuOTYgMTYuNDggNi45NiAxNi41MiA3LjI3IDE2Ljg2IDExLjA0IDE2LjExIiBmaWxsPSIjOTk5Ii8+PC9zdmc+;" vertex="1" parent="1">
                    <mxGeometry x="382" y="120" width="32" height="32" as="geometry"/>
                </mxCell>
                <mxCell id="3" value="Log Analytics" style="shape=image;verticalLabelPosition=bottom;labelBackgroundColor=#ffffff;verticalAlign=top;aspect=fixed;imageAspect=0;image=data:image/svg+xml,PHN2ZyB4bWxucz0iaHR0cDovL3d3dy53My5vcmcvMjAwMC9zdmciIGlkPSJiMzg4ZTk0NC01NTA5LTQ5YzktODRkNy1mMzhiZmZhOTk1YjIiIHdpZHRoPSIxOCIgaGVpZ2h0PSIxOCIgdmlld0JveD0iMCAwIDE4IDE4Ij48ZGVmcz48bGluZWFyR3JhZGllbnQgaWQ9ImE5OTdlMjAzLTFkN2QtNGNiOS1iMTMxLTVkYzQ0ZTAyOWI0NiIgeDE9IjUuMjMiIHkxPSIxNy40NSIgeDI9IjUuMjMiIHkyPSI4LjA5IiBncmFkaWVudFVuaXRzPSJ1c2VyU3BhY2VPblVzZSI+PHN0b3Agb2Zmc2V0PSIwIiBzdG9wLWNvbG9yPSIjMTk4OGQ5Ii8+PHN0b3Agb2Zmc2V0PSIwLjkiIHN0b3AtY29sb3I9IiM1NGFlZjAiLz48L2xpbmVhckdyYWRpZW50PjxsaW5lYXJHcmFkaWVudCBpZD0iZTEyMmU5ZDgtYWVlNS00ZjFhLWE2MGUtYjFlYWUzNTVkYWE1IiB4MT0iMTEuNSIgeTE9IjEyLjQ1IiB4Mj0iMTEuNSIgeTI9IjAuNTUiIGdyYWRpZW50VW5pdHM9InVzZXJTcGFjZU9uVXNlIj48c3RvcCBvZmZzZXQ9IjAiIHN0b3AtY29sb3I9IiMxOThhYjMiLz48c3RvcCBvZmZzZXQ9IjAuMDEiIHN0b3AtY29sb3I9IiMxOThiYjQiLz48c3RvcCBvZmZzZXQ9IjAuNDQiIHN0b3AtY29sb3I9IiMyN2IyZDciLz48c3RvcCBvZmZzZXQ9IjAuNzkiIHN0b3AtY29sb3I9IiMyZmNiZWQiLz48c3RvcCBvZmZzZXQ9IjEiIHN0b3AtY29sb3I9IiMzMmQ0ZjUiLz48L2xpbmVhckdyYWRpZW50PjwvZGVmcz48dGl0bGU+SWNvbi1tYW5hZ2UtMzA3PC90aXRsZT48cGF0aCBkPSJNNS41OSwxMy4xM0g5LjkxdjQuMzJINS41OVpNMS4xNSwxNy40NUg0Ljg3VjEzLjEzSC41NXYzLjcyQS42LjYsMCwwLDAsMS4xNSwxNy40NVptLS42LTVINC44N1Y4LjA5SC41NVoiIGZpbGw9InVybCgjYTk5N2UyMDMtMWQ3ZC00Y2I5LWIxMzEtNWRjNDRlMDI5YjQ2KSIvPjxwYXRoIGQ9Ik0xMS41LjU1YTUuODksNS44OSwwLDAsMSw1Ljk1LDYsNS44OSw1Ljg5LDAsMCwxLTUuOTUsNS45NUg1LjU1VjYuNUE1Ljg5LDUuODksMCwwLDEsMTEuNS41NVoiIGZpbGwtcnVsZT0iZXZlbm9kZCIgZmlsbD0idXJsKCNlMTIyZTlkOC1hZWU1LTRmMWEtYTYwZS1iMWVhZTM1NWRhYTUpIi8+PHJlY3QgeD0iNy41OSIgeT0iNS42NSIgd2lkdGg9IjEuMzYiIGhlaWdodD0iNC4wOCIgZmlsbD0iI2ZmZiIvPjxyZWN0IHg9IjEwLjMxIiB5PSI3LjAxIiB3aWR0aD0iMS4zNiIgaGVpZ2h0PSIyLjcyIiBmaWxsPSIjZmZmIi8+PHJlY3QgeD0iMTMuMDMiIHk9IjQuMjkiIHdpZHRoPSIxLjM2IiBoZWlnaHQ9IjUuNDQiIGZpbGw9IiNmZmYiLz48L3N2Zz4=;" vertex="1" parent="1">
                    <mxGeometry x="590" y="45.54" width="32" height="32" as="geometry"/>
                </mxCell>
                <mxCell id="19" value="SwitchBot&#10;Thermo-hygrometer" style="shape=image;verticalLabelPosition=bottom;labelBackgroundColor=#ffffff;verticalAlign=top;aspect=fixed;imageAspect=0;image=data:image/png,iVBORw0KGgoAAAANSUhEUgAAALcAAADCCAYAAAALgVPtAAAAAXNSR0IArs4c6QAAAARnQU1BAACxjwv8YQUAAAAJcEhZcwAADsMAAA7DAcdvqGQAAGg3SURBVHhe7b2Jvy1Hdd9b59x5nnU1X4QESAY0D5hRBtuCEEMSwHNsv8R+fsl/8z7PCHjJ85SPh8R2CDEOtjHYDmAkwPnEGGPARgOadTXcqzue6d63vr9Vq7u6dvceziCDuL996lTVqlWrVq1aVV3du7v33EVDuoRXJMqhnZuby6mLRieea8opIdXyO0/kL168YP+c64LRRCc2yoULK5J98YLlLJ6fn1d+k8WbNm/OeYl52XHJub8HEUMmp3I/M5gDBqDJQZ3vohzzQpN3d54zx7wgGTUavmDPaOV5fMGcnrSCOXekV8zhiZeXltO27VvTjh3b07Zt2+ToLycuOfe6Ikw5fqmqTR5OCrRKKtFKg0adqNfWdyd1lDQQvIpylrIgZGSSSR8pqvUs2xd/pFm1I515cPyV5ZW0srKUlleWNZGOHj0qJ++bUBuBS869Rrj5WocqzRlp4j56i/kR2ihPgTFFNcbKKdDHF7RwZACtlzev3EpbjHPj0BdWLsi53dFXtHpfedXlabNtWTbayb+PnJtuDhvTrdAOTm2WURqyWHFZabNceIp2mlW4cY6WL81xiCbvZY3sYO1BrVNg3NaiU6dk6xHlurfoa69XLrBsWRbOjdMTs1Vhm4KjLy4upN27d6UrrrhCTr5ReMU5d92d1uAc2pUUfB/qgIdBkJPY3ySTwMdHgzfAK0cZL6bBpPYmoXZKdAPQS9lKUZRJYYGy+aCBkNuWR97iok4g2sLWfuLp6XDwpWXboiybg1tYWlzSSn7Z0cvSkSOHNmQ//l3p3KjkWmWHM2CcEo3a5qQMAmftXVAvRrIdst7uVqRJJkGn4JnEOw7j6kZJaB6ONhOsSl89UbLgOfF00bQ5oJ/oRREjg2tC14c4140FAAdn9cahl5bcyRcWFtLC+YW03U46j73qmK3mu3uPQqvFhju3i6ezZd47UJZhhDkdqoM+illUxZjTYha506CUxwHCeqg0jjQNxJbHeB4BhgtN3mNkzqp3FiWELg0tRJEvbEdKwdqKtktAMvdVGbGzkGn1Iy63J+y/FxcX5eTnF84rT819+/amY8eu1UnnemBdnTtEaZW9OG/945KQCnKnW4w0m7OzqLNa1aetN6r1MIa2AiXCkcrVEhLp8LESOLR4iS1fTg5ojYzME3kcDf6Aykynsn6JOGsgxCpMDLvkDNRFP8nlYzFp2C7AzASxPBA9Ozt7bsW2/8bBF5cW0/nz5uC2os9ZvU2btqTLLrssXXXVFVrF17KSr4tzSwL9MafWXotDkej2P0sfamYdmheG5MjQhqGB7cPFyqCrWS1LR64RZWEb96DpUMqTHPKmkyKIht7dqxXijEM7W5y5hETnFTzUK48e7vy+YqMH445usKyQ6HFu0KzebE9s371gJ5dsT3D0sMu8fbZu3WIOflU6dOjAqvfja3JuV9o6o464Y2PEEKnySvwszfmQDSNWS8DZ+awI6UhROsRZpkgKbUtOK52XPFlCh05fLR/ljTCQ+aCh+dDwlVVAVJsEdz4HdQjkCXUedOTaeHbyBq3SFkOXQ1tM/8jHCh5g3OZMRtCIS+fWNXBzbq3etnJr721BZSYLWzC287bI7Nm715z8yrRr186ZV/FVO/cFU1azcIUTBiPIudoTLVB2TrFM0qLMjVN7WhX7uJArepMoEI1Cz+U4J8lYIaNuk4++5Lq5mouyRFkfegTRLEwD+GtQN6bvNHKi3UDUCV1ApzxsbBHldV21bQn61dS3OvCxUss+TZk7dmMr0j3OzTXw2Jrg3OzBxUU7FlHHtybz6bIjh9MVV15h+/GtcEyFmZ07FDUddXghXYpQec7HTBPN1e7wCtlSA+QRwBassdpVVRtAb+TIWiRa7kjJEa084tBlloMhVRp5/MuyAkVS6PAaIl8CGuVlTEKOtE5gPJBdyySrYIWbetoTSeOaku2iq32++0DDkwMEYvxGTm7OzeXBxQVzbtuesE3B8VUvo5WZ0uZNm9Orr39V2r9//1Sr+EzODadWbFMq9tZObzvAJxCiexsodAunKlEau1RRzmdxsEdd5cs6OYBxTlpUaYCsWVZJULYXdfry48pKQA/+vrJVo7AlIFvaJ0qjXQJpz9vYkzZi6EB5XC2JsdF//IQYAn5BQ/xZHM7NwohzczmQVZtVXHR9HKFHYN4a54Tz2LXH0tx8aNGPqZ0bNq3WbEOYdRaYPdCbkNUIkSOCpWm3LGcbTLNaysAWyqp93aQcecQEeKJeWbdE8EX8T4Fov4PKUHU/RupYZlVHnkJQXd8v2Bnd/tW28fGPqvaffIx1xPkoT5CD55WbvTcrNys4ZeHggSZljcaix4nm9ddfP3YFn7r/3iiX9qzhUDYrqlAoU8Obt3Lq5UjsFigjhCJF0WAAEQdqHiZAxJHuC4G+dB/fVFA/JwfZjQEvAitehKBxcqbVsggoVcYlnTDtwMKuE8IcGpDPyQZGUDtt1oJ96I8BOu0Se9lsiJXY99ntZcBoD4Eh8/nnn09PPfVU03YfprIBAsyvGY+OsEjTwUCnKTLGIz7+PFpzmAYYJIxSpqN+DEJAaSnogRMsnWQVsffDgli7fN1g8qYIrIDoUYZS56CNw2rqBKz5YivRygHSMacDZVuAerFwBMr0CLOhXmnn7WRxfpPfA944s8WiWwg6JRGEuU3p0cceTy+99JKPRQ8m2oGKOLY2+gjhb0AYdP8EuqkIoWSUEmMkELT1hnTLAQe0hOI+pwSRLoNgsZwyaH3huxilmuXlvdCbPpVOXI5LrPABt6PTynLSoLHZtDD+cPBA7eQBUkZNjz76HW2V+zCFc8/JsQO1Y9vOyTtkdEqitOSjNqEpywEFg0Y6VO/Q7F+UoWwZdLieMoRDEhoF6mBQOzkNyAfk0BbXNvheAeOEA4YT0heCYInoX4BeMqpcPGC/zV/YxssMVChoHlvK6LQxDViX5bjUsbbCkUtnLp0cxBicP7eQjh9/TukaY51bDmuOoTinh6COuH4KNUbodIKAzNyGnDDng87VmdiLxh40wvciQmvioR5M2zP4VsyoBBwWRL4Ocmgrt6h3fMJpyzVQvEanLunSWWCHTj0tNGXIsmaBHkdT7S5qJwdBE90aO378GflPjcnOnSvJoSJtMas5QR2pHC34YsUO1WK1RZbqWaAMehgXlErVq8n3OsIJ1X1Lk48Q9JI2LtSrL7TI12EIsq8F2lU+x8jWam2gfjk+DaxAelgyiuPyMDI1xhnhEzVw0KbMZLnDerZEOHOs4C3m0vnzC+n0qTM536LkGoW12ey1M0hH6ICshRwphI7KG7++njeMb3T1cOltXGOI3geGKFa8OtT0cnXsy5c0+1OshAxjwYAjRJ2+wd0oxOIz0qTpg07SxxBxB1l3IhUXeSaHjuYzQCt3roOMvjbDybthPj17/PiITw76mb5Bir12t46gDhBwdOJQKq/iUS4Yj2ZxQ1h/SLzpEDGGiSajWeKaPhRGR3vtCJGdOGfUZqCT2RjEeNTdZMS5ysyYhRrwlKsw5XyCHk4UscahcrSxqJSgZvhT9sAR2Bpuof2cP3dOjl5ieBGVdGfuVbQtFoIjyHWNin0E8LthPV3mg1bn6zogYhJyZAvE4iEf8YQAcjSCmk6+pNV5UOdBtCNYOur18W4EhtpiuLEXhZSP7IZlxByIcrxuYDUm8tzIGAP8OFZuwDecNcbsEKxSYX2t0IT8qSFBVk6NTim0gc5DbkJuri80qhS0OjSWsLivPfEYgu37EmYX7Z2zffpswTiKPmAorerAymV7S4ZtYxGMo4JHTguEH40DOnBHIKHRpWwPWgEcfJm7DJeXM8Uxxrn7xFjnjDQinFAQSUqpAVAeMxGFY28lOZ4U6jyYhkfGthD04In8KxnhOOFEZZBrKrZgW84V23ouX/DHvngihocGTp16KZ148cV0/JmndRWCr8epEysk1cOZ5YQ5lGjs7aqMwLTJKUe5AteYn++WUbM5EovigOPs2bOeyZgzxXtVYM+9ssKlODMIVziMLYJmL9KUd/424Q0HqFt3XoplfSUmx9+PwJ6N45hl4oActhbdYo0DDpnvx8CuC+aQPEnO0y3nz503HhzVbye9eNGd1tMX/cYknnqxvenyylK6sGwrndG5F39lYSFtmt8kPla/ufn5tHTRVkFrE31uu+X2dOcdd0ov3TBXjF3pwCoLl7O0RzlmVSS2fHnjFDH6ox83UJEecnSgOlaMDrQd7ZvF0rXHrklHjhxxgmHQuVeWXQmEwVIGOTcgn/WAL1QK55aONkH6EKv1dysGzOJ9MrTF2KTld2dyB8MRV/LAEXAcVssVYivnGj7lpJeWF9NSvrd5aTE75oXltGwxQD511ZgpgQxanJtzRwFcNbh4cV6rHXoZRfpqwoS9VcRYZZoNIDwaWxV5fxhF5KLj5vnN6YMf+GDavGlrc3kQyLksDkrvl3057nVuS8d7TaZ1boCkuPIW4DuTyy+/LF199dWZIlrFlTHOuf2TO5D1COcWXRQ/XKm+xbW6G+vcGNmPF9Ixx54mNg76ZjGOhdPxvKecz1Y0rSYWg2VbJXFAaNySuWBh2RxxcQGHtbSV0Uf2fAjEz7zHWS4OYgMITe37X3O4heZOeUFfZDRfZtifP17l5UNoVn1kG0Kmt+JlJc3jMH7kvT6OTIkmkQHdAav7O+/9oXTl0SvNTsaLbi5OaQKIa9wUuFQDFQzr6dwlJAPRVuXIoYPpVa865gWGmZwbSKmsumYPeoTiOQTm1FkOGM7WwhRqCGF4V7SMGwMUMU7pT/+YfjiWxYRYGXHGhcXzdsj2pztY+eTAWil9Rb1gwVdQYujIRJavVO4MpfPZyQ1OZzqT3qQbfXIePTs8Ti+BDACPZZSGKehAZRnoSb6kdWRklLRalvLGqoliKMuB8pCs2MvaMY57Nci77efS29/2NlsZr3K6BaTi4KRXbO4pnVdu6rGqa4zxjWgrl8mvsuy1OncD03Hv3r3phtdclwmmozWSm+1iWueODhARKFGwMhRe5Nk4S8upzPlin7iwtKBD8Nmztge0fSKHZXhWlv1QrpWUNxRZfnGJp6OtXRwx68KZtOtkrdofby5i5eC2Sb2qy1buObM4hpqf22wOaXtK9rSVI+CQ9AlEGUH1tHIWoMyi4CMO1HlADpqc30kdHujIlDzLUyI5bCuMIDo8wEjkRWsWE+p3ZQLqwIGNaqhNQyM3Q3UUsoNaG3K+TL/3rW9LR49erfGmJpIb57YMT+toW0J5IVu6ks8kyjbEuQ179+wx574+50wVa6TVJEMKFM4dNBDOTV4U9Mg8gRUre+ihb6dvfetb6aWXTqZnn31GRoJ18+ZNaeu2rXJAVsB5O5HZvGmLyXLHYwZu2mRx7p/lbLA9DcSCLvY3j8NmvSAgC/3cNlmAIZxCaQuqQb1MqxFU+EiXxqbXHeMjJjsjzKEb6eDDhvB06hWIPhDDM8QHgqcPjZzcXh/cPmbQzAuoF04PNMbmqNDjosK9b317OmLbkjAgQ9IcfamaJwWgng2j1fOLCdIri1cZclmozLGJWdTWY+XmpT6vfV3r3NXS1CK77ljUKlCDneo5OyP/x3/8djp3/mx64snHTPEFK1wxZ7Qa9rd1yxY9ur9ly1YLW0TH2bcQtm7K73W22JyXMlbQCAzMpk02MVidzQht2SbpQB3O/PV+aE2eqOdOw6CLZmXwsPclwBtB9xdnWqSJVcfkm5RWrpVpMLIuat8msHTPPOTFqy1LhKxPrtcGk1+Vl8HltHlQlmHgOXTO7ZSyI0811THdGQ/VzTKashxkozmzrQrUXETaeuhqRSaQxKkJLztMEY72JQad27qWU13osFR0JqCOeVJPSeDgJ0+e9Nlrzohx/KTJJMvYMfhhQKfHwHoZTlLmPdA8tqZsM84kp3NZHlreKGt5gs4RAd5wvLbNSLe6hMN5kKNnPiYaNMkreCL4yOMo5N1hPIzyhswoj7oELX45YFMPvrpGmhXQV0lWXI66lFv13H70XfJzWsH6o8lsaefN/OggO2fnrhCOLAcHBYscP6fHwVrKqTVCyuR0xszbEk7EmjcKAXSzNLlMSQ8//FD66le/mp49/kw6c/p0diJ3mC1bNqedO3dp5ZZhzYDu1G7UAGna1GAUNDLjDrvuFGhSlrtmXjYZpR6zIvSuAT2kylbGU9LYFpR7ZHhw2NNmv8XzXKHxF0hC0+sQ7IR5xVaqi7ZtWL5gJ8PEdkinItfBkf3a1742HTx8wNJu3xKhY6urbxcAV4qiHz5B5tKbfvAH02VHLld5OC7cUZttCf6lJHL4s1h8OR9lhNiW0J912XOb/J07d6Ybb3ptJqCnWu5CjY/Zc1s3mry0L5yb7EMPPZS+9ndfsxX8uXTi5AmtrviVVmlb6dgbsQXRYX7eVj6jlx0irawJLJ04DE4rLbunpafFfQ48yVhRXptiqB58ZRlOGecUVtCRQ1nN34dwbvqr+hZOnHwp/e7v/E7i+xTqN8F4bFlIc5ttO2cny+waOP9goeCaNOV8qXPs2LH05ne8ebDtaMe1bcc0jgA5a7E59z33pCM4t9FKC8OCP5gjdZ3bwBEFEnkmhMv0su9K5142ZSQJRSGgR+HchEcefjj9nTn3c88dT6dOnzKH9tWUwWOvvMfOajmxZG/sg+IDBiyltnD8QOmwlJWdj7Tq2CofegYk2wJHHGLyoJYDgtbERutyOFSvr6BAyIl0CQYUWk0vwWXKE7ate/gfH0433nijHem2qh7nKMjFGTZvs+2ebTO56rRl+5a0dG4JM6cdO3ekJ554QvRj112r8xkcqVwoynFVoMhInme1jm2PO+mb7nmTnLvcbiDBg8mmbi6gLqAeIB/OLYGG9Xfuuezcr8mE7iScDrTb03ZNjkOhthUW4+AYl32d6DisxdTRni86ZJHny+COEEHbmRyCphO4god2tJfP7VIWk2gowMtk0wmgpbVHr0LDy8ScMnT7glw/Ya7pTWBVtjbOnDmjI+Bm28p9+9v/mD796U9b+Vz62te+pjRHwge//GD6n5//S9nzC1/4QvryV74sM8LzzW9+0+1skO7ZNgrRD6MbIW0yvrCf6+Zxa0cfH1wzAudfccUkaEKTcAcjqDx4zcFjAqwfkNdesQHe83VC1h1bubPhEBgJgkGDbfQwbjiolzHoOEMMch6EIgR/kxctTxiTAY0jAqFxxswbDtvURZcsrw1ZN7Vfh7ZepEGk69CU8anK6lDrQWcef/yJ9Nk/+6y2F4zS4oq/tIYytg2krSpbXXMU6rEa+l1x2FYx8pv0aH8C2FB8WR/gPCScH8+0FM0rAGKudbMqR7507BKUmeUk34/z6w1p48mMbm4K0Bl0G6cehyOt1OrIKG+7QrhRGdDS8DEhxJP55MCmP2ldHrRAXXgU48zwDH0k1xy6CfB6wDBK5zb7Q9T32CjeGQPpyMMb+hMgU1bSygB/CXL04+yZs+n8WXNsvhehz8FrnnSRYPsRsubX3rJlsA2HeRFipTXjS9+on+H98T7HhKK45XCesg6tluWAPM7d0EVo11DGnrT8YENW7AwpEa06ZnbuUK3uZInWWTEcxjV+jGkJfXuIM1Jun+Bl8OIQ2Kz6DGqstpbW9W0uvZnacjStvgxcHihkDQQhGz6C9JAubYw+pfN1gnisXg6hr1+Lb0Mpt63TpUdQnYgVim2A/TFC9A27w7+Jb1v5zG+xvO25WbptYOHB02VPK4+BQiZyog9l27IN9YyBD3WNoLIAyRgj/KcGWw2FnI9ESAg6+Z7q6wcpkcc5o5ubAto3Zc2jA33QQMgoXCN1o/teEyPilBabEyPFDe1BzkzaaNSJbYD4Mq8b29NlKBG0GNCoIz1yiAGPNBLQK+oqZJ1Kveryhi+3UZdFXe8PDoRJ2vKyLOi7d+1Ju3buUrn4s0z8lsOn0gYWAi+b18KBDGvOBtZ5ylVbeZPt45LlGTztruD9b+2AS1IWX8vX0JHc4JIc5UqOVAJs8p2Nwnqs3CWGZ2KUYCCuYmRDcUhCBxnTgw9qm3ezkGYAXD3iZuCjXq4bjup8PnDhrHJY8XVDOFAd4igRzqxQyB4pswAtEDxl8P7FBHXECWUZor8RXn39dend73m3ro6YJL2I/drrrpGc17zutelNb7nH6s2n22+7TZfpwDve+Xajv8lMfDG99a1vT29/+72mI7VNN+ufkIcm7CP9sm6lzpZTmlh/plMfyhNKEF/y4WvUwN0IpK2XWeYGQCt3V/aavsRBlORlHsAXoI88/FB66KGH03PPP6vXXRmXDShG26Qvcfbs3pO/kvazcXcilqQWpRFoW0a30GccBi70bAYxo5YD+mSXiIF0fsIGDsoYPPPMM+lP/+RP0lVXXm0DNafbGXiNATcoceksLqWho3pm/+IaNTekvf4NN6V3/NA7KGn0pyzsENehQdzmCrhLEtlwufyU7rzzrnR4f/sgAGWMPSt33MctX1CBtWFp5GNJtQc9p3UZ0OQyZut2KdCwc8eOdONNr8s567M1lpttIQUmfImjDkBAj+AhaeE7jz4i5z5+/On00qlTUpZXz+LE27ZtTzt37jAn3+qrBium4q5zA+rRruobH58GliyNEHyjwDFDfy9v2Ugw2F1Zk1C324dZ5JUo+3HmzOn0X/7L76WlhSVbBMw+5im8fH3b1m1py1a/L4cQPz2t7w44L5nfrEXk+hterWveIY+xI13qzPiSVyBvMc5NRk5rXkrJbbfdno4cuMwrGcQbXcRRiclbwiVB9tiE8ic6761B7ro7tymDX63tSxx1GE1zF9AjOmHAuR955OH06KOPpmeeNee2lZvV2W8/nU/bt2/Xb4HzpYR/idN17LJjStk/uXW1IoPaCMivu1PyUNZnOGhNvdzeEODDkep2Ngp6qMLsKx0t7+q3+voWoh91f8t9s9dHjtPkaEaDHl/iQONBBc6bbr/t1nT4wOjKzUG8kUFTyts/S8eRQbJyvHHOPfoN5bBlxmGgbToAwlmIpWfmD6V9QCxdFFKmbUemKB2ret7blsG52hBbiZovAqgdoSxreCVvGPBo8DKaekUYohNifwtIxVZrKLASb7bVmW92/TZhAtfyPd9XJwL97dJ8P4/2nvcYtDTnC4dEv0iPw0i5Edqe/tNgduc2penIuM762DMwrMg4OQQ3XGdwC+OWgyyrWBhalTB+PXBOb/NBCwQ/cYSad1y+psWJK9SyJdL0pS8ALKF65C0QR1mglAHax7e8/UC7gLT61agnIhrosmEBr58zGRxNRbNAjL36MM4PwKTy9UNWtsDMzk0F+eoEYBA9GSMLtc2wBvgK0g5IxIFwPpR1PvjbECjr1zJASSsHuQ/BGw6lfFEHOrTS6QA0BUuLbqFsSatellPWreVEXjT749Ad7em6f05TI2LQSmjR6FSEFm3Nchz4BEJnp4+3XV/7ghVQqykfFrFOsAZeni9x3HB6DjE3gaFYsdxObrigk2qMmYPDJ0KgLA+eltcReTmFtUcoVx1Ko0Y4TBnYClGudEEP/hriZ/vE1kn99v5rEluMsOCJ0CiQob4X5TG5tRmA3YSGvKbf8Inu4ghNf41OED34yecQeQfbDkWea/gyj/1ZU4MIfxgC5QRGYEMvBaLoen6JU6Mlk+LqSMvcGCo7mkpKx80DS1gNYlCAOwarn5ve27LyiC24Y/ingTHgaNQXD3GhV6lb5DkpIgRCBytVHLJKqAwSEXLQpZIjrqwDfIqd3LQbIIXenJxxSa9Zaat2++Aszk97bY0iZUneg9KH4Gq5M0IFCzHK6NXott5gO7GeX+LUCLXLDvh+O+Am0GDzl40vo3bSOEQEL4tyUNII5YpKihCrV0DpXBiOGR/+FBkPIfIKFZq6mTfyJYIeaHjLOjmt8iwj6rij+rOFcVWhhDuxl68srehKw+Ki31jFQwyLlkcG0ghhi7BHqQscjR767wiKL0AWqlUxoMWO2KMGkKkBHZcjrnnWFShS6bjq69xhPHWuMD4d4TLgd77zaHr++ePpZP4SB/vpGUk789+xc6eexPFv6uxQmq+GgDA4aFarMRAndUwftNClKbXnDxBAdJEFj4V4OIA42i91oJ9BI13qor5n3tUi7FnLgf7CCy/qFtc9e/bqF7v8qkguN1ufPn0m/e5//l1d/44vcmIiAC63/ptf+jdp+7Zt6ixtlONIKtpXPl+aU4EhVn8Fq8f28pZbb0lHei4FTvslDs0bdeMuBRp0nfvGNXyJo47TAzoAAT2CJ4dHHnkkPf74Y3pY4eRLL5iyvg/kchbOzU8dc50buvaI1bXuQDgUbdPhWHlA0AQia3h5cSW9aI5h65mMxA3/HE0XlxbkBBiQZzt5Jx5GJc27Ta591bXplltu1n3TpWFb01jbpkt5ndhXNHha2nqAV1j8p9/8T3q0jHff/ezP/Uw6eOiQtef6PPQPD6etW7amT37qD+Uk8xc3pQt2OJ67YPbduilt3bw1XXHl5emd73qXvsgp+xPOT7ciHYjr6bQR17uB+mcr4s233JIO7z8sGqBUzgzkE4acj7rxJQ75uAeFNH617s5tyqzPlzh0JejokdOA1KO2an/nO4/pG8pTfEPJIddK3Lk3p927dqcttnLLubkSYOV9X7+XnSwduwPIqGNG+u9/+IfpoX98yMmmGLeGgnkOV/D1iIAPvP9fvS9dd/11lWGzcFKma59zrwUhD9tGu0zQj97/0XTfu+9Ln/nMZ9I7f/iH0mtf91q1x7bj/g9/ON34upvSve+8VzZhYaDv5ZGltl0gxrLrvJkmZ3N94qt40UxHc4N022239X6J89389fuaRijr20D9shDKKZaD5VXeUCtOboRm+ZIW6ZLe7FP5WIz85557ztI+ETYlX7V0TZdeWjUMG4MZkGZWtmvPbs8XPDSFU7ljQ/MtSgx6LWsWUJe3Yp06dVpOENi0ZT7dcecd6ZN/9Mm0Y9eOdO2xa0X3tmwS2ERlQvJcKgvE5s3+igwWiQhD2znt6d18Qqm/+prLsVtblm1O6EF94xTAsRl2tMDty7INg2ZWV8dVbUv6nn4P0JnHHvtOs3K/dOolN451kb0j25FdtudmYFit9SiXDYY7UatcmY5VW8YHNNcWC+j5/AvPp7/96t+arlx22pR0u7OV4eB89GcyuPci7tWg7csvuzwdOLQ/ffnLX0kH9h1Ir3/D69P8ZvRBsjckm5g9HvirB9KLz7+Y7n7T3enIZYfVh1mBLLZEv/Vbv5VOv3Q6veud70pvvPUNuXTOtibLWqU5J2m3FnO2ui2mj3z4I+nG196Ufvi+d+Vvbt2Ry6NKDU3gPETYifbJKsZYOQ2TT16ne3rFWmbPbSt3z41TOsepVm7JsnT4jhFE9+RGrtwb9PQ74D+hde5nGuees30hjsBNPjg3b50iH4dWBMWK03FyAnn+JnQanVAr2OBna8JKx4p30Y6hZk7fpjAS5FHYxoZnET//uc+nbZu2pV/85V9MO3fvcCHSwMGr4e7/lY9oL3/j629M737PfXLA1YCHqH/v935PDx9cdcVV6UM//cHORKEv3f5e1BURd+4bs3PnbxFNx2Y8MrxuO05ledzx5/Zqy+NoFO8KBHJAo996y63p0BjnlhRvklbJma9YHyBJNhT7l+Wtu3Ob6DXfWxLd7mt+hFYQ6BxKt4qzHtj/vBoHve5YZ7XOCDl1YHLElQ9NHAs4D/Ect9zaKkdeT6BwnzMrek6fs5M3VvellSW9DyS3lGNHcxXBPvFukFlQ6opncDJIv5h0NWrZ4jCS1faP2aVkKWXXdUFJL+ORNOMkiiWtr37FCTfpd5VRzQ0FsUm66A1GaO6Y2blVvyujQak8MzIMB/xbS+PJh7AapaFLiE7dcHKDrwTDpvIjADz9bfUh5EVdOjnUBjpxxAl9Q/cIk4Bc49QHXNBd8FPA2C/OG/d8/DzG5LZKeH/6++RlppHZGRs09lCflOzFYFFuZjYN14g1f4ljSqN31n0QGMQNw0Di6L4/VAhHtcgdoqsGpbqCMmDV1om8bhkA41LmJwFRvhJ229Oqnttq2/T2A2U6UPKXoQOyqEdsZ2VRXteJoLOGC96foDkquR3A17VD9lnZVqHodzg0q3XTBn/UH2hmnB9QhfJBngGZq4MJ0xGmRTc3BajAPqsPoas7l1/BaKxZoRycxpAV+mhdjK7gPpADCvag+w3qBJRtZdXq9qeF9XgWNTNW11agz57llZoh+eP6ODhCuXuUz+xkqwHjuJE3TkWZGwMOC2ZQP9T3wNjiJGYEISIjJsDoAA05+DC6soyXy2udHtVtOHq07NFnOrBvH2imH8arqxEFdFJmfY8Q6LVnhvTNcmo+zk0g+RHXmfwa9sAYGXqphZ6UT785XAMwzlpXbhm4UL5ESXbjlF33tNssc1pUOwd5v3oyGfD6Ybcrow/O2w5aCRx7lgV8PUCb/Z4xDOlvH7YoXCPXS/wXzusqAzFvqCIs6BvYgRudwgb8xfbQAA0Hrs0jPbUi9isbI9WpVrBSPrOTrQbrsXKPQ/SJfZxmeiZEOgzLyuCGxCTZ2AatGEoZtTJ8C/hjH1nS+xFtjsPFyigoO6GKAQaXXQeV9tDLMPPKbeALmnfe+6702htelz78Kx9O9/8/H0kf/r/vt/h+y9+fPvrRj3j42Ed1W0GsthED0g09b0kib2p5nMdPdP44sg0cDUe+xHGzyNeo4ev+ywCt3FmZjJmdG6XpCHK6opp+CQygOslAYiRLhxFXD6SvVcYo/Dq4X5abFurfFGDr0CfXWmzoLmmyPLZ3r7/59emyy46mg3sOpX0H9qX9h/enAwcPWNifDh8+kq65+pp0++236wuzgE+oYjEY6GeMT+c6N8yV04CgxFXMhsPy8hEjIIVWZ3ay1YAFqjr8zu7chOiAkzqAhpEYe1ZimoitA1kNKn8qmxXInU5lb2+6NvR6MnXK817P6w/KGTNRS36db/Sp4U1keKJsbyiweu/csyP9wr/9+fQLv/ALFn4+/dz/8XPp53/+F9LP/uzPpA988APprW99q76Wh79EI4ejIt2tyoHztGl9RzDK1oz90NfvARycMsxrXtDb5rpA++2u7JmdW4pP0I9xL8deHVI+H45nwIYZowJ31r2sMDPYULeZKcHCwYSZ3zKvuxhx4nhY2NN+K/EkuzEOvgh1HU60rBdp/65gWBZOq9ijEUAvw4ahZ7Wd3blzPA5urH5ODNaiWCU8UiL2gqPYOPPUvtDnHD2kBhRFmAbdST5tLXSYboHo078EDswKXl4ZqTFJxhCGHF5jP1n1VcJaqxqc2bmj/jgdY0WgL/CLN1fsGoyVwVMlHaOTr41b5/vQV69GzeNpzw/V9Tq+vWrzOe0EDwMoS6LuNE7ah7LtcRjLQ1HRfCw6UUexkYjGNpXLyp5wdC92eSprQ8m5jpDwrqKzO3doSQdE6aKk+X0eRmuIkztmw5ZTGwc/3HZ18fODwLAOoV9czZEsYjvauNx++eIp6Nu3bDfju/m54Wdah10vqC37C33IVyrnRcZ0lFpVYUbfKq0dghFiQ0MgX/ne+kKzqbu1nNm5gRSmA55tQJ7glwItLYbg8p619C50g44Ee750Dl8xJ6tKHX5B+IJ+3H+5ibl1Y2XJ8twNZ4Efb4WmKxk5vunGm3S34P4D+/SkUB9wyOuvuz5t3ro53ZNfPsndbCv6rfbFtLSwqJfFc/cgT9JwOY5Yzzae4/nGln7wyEE9cMCPMv3IfT/izjYDSvvMgvLow9AgxWX5RQDBYia7viTCX+SV/fr1XQosnZjqBK6qbOjT75xQcsWrwIY8ifOdfMvriRMv6AeftMhZ4ESIZyd5NjB+8MnPxr3T2v/lFRGEIaZ17GeeeTp99s/+XPdg6NErUy5uedX6qj9fPa0lL7PR2bF7R3rv+97rJ2rWft+VBsHqLy/7z2jzc9u///u/n146edLa2yxZmjhMJgPytXSY/JWLy1qluVmYCcTJ4Hv/+XvTsWuPiWd+i/WdwbE2e4bDATlUMnsv53uiAbK5Vh910Z2rKtitT175rXD3hZduGz2XaTFpsZlut9zyxnRw3yGqNMCxcdpVP4ljadpat/u51/oMZencoqBH8OTA/dyPP/54euH5F825nzdlzYnMcTA4P7C6a/eufGbvt6XKqaxD4dh156Z17o997GPpzEtnlJ/WQHIqw4/9qx9LN7zmBt+eEExenwzdVGTxdx57LP3ef/49G6QVq5OvkavaaD0GUpcEM7gL8M477kr3vuNe67PV2WyVV3xy15BlTaaObAZukz3xwon0+5/4L1pVNT55AuEoYOfuneknfvIndO98jXBsjSdVc1p5IyhtMuP2XoDf33LLLelQ4dziDnXhJc556unIbrG8xWImgWRDMx3W3bltHP0ZyjX84FNctKdjtQrkOzRjbm9M8tgV95V6GOPKRhFGe/V1+RlI/iw2auZwRJvEKse4tuLt3LczHT5yuCkfh+A5dPBQOnrkqH7ae9PmeT1ZFG9djUtzpHnyCCcj3rFjh215dumB3xtuuF4DzGBeWHanHAdNfotfsMVicdm2NeZoB/cfSocOH0yHLzukp4muuOIKhSNHjuSVe3J/amAx7BJ1dSnQiLWkyIc/NOXwWtDKbVkcjMAqT9gwsN+u9tyrehIHpyEvCgr3rtxP6NUO/Pa77GQBg/O6gZ22p/XrsWwD2mf+NICEYmsCxq3c586eS//wrX9I+/bu0wvaT5/hmUTfkqzMr8jQLhMZPmg+cMQSYc7nb53V72UGcQL0uJ05JftnthshW8AIlox8WDjy2IG+/skf/2l6zLZvP/6THzInPdy7cpfgAYmP/MpH9b7u977vPdYE2xEXTn+Btlomp3bucphxWGyEnrFyO90mO+Nrgf5RX3zWzhvf+MY1Pf0ecefVDrS3biv3OvxUH7MvOlWrQD5o6kjFIKXrShly7Mqpp8EDX3gg/dmf/Fn6o099Ms3Z3nU/X0MfOpwOXnYwHTl8xFbkI3KcAwcOWDiosH//AQv70759HnjPx6wrnV5dtmWTtgD8aOzu3XtsVd7twfKKd+5S2G2rNYFVm8BK/uzTx9O3vvEPepbyzz/zF40DjAMLzdKFJXPyRX+TwDY/MhBIR54jRrkN6gN91dWQnG9h4wY92wKOi5wzVIyRHVq5A2gxs5OtBlrFuiv3mtqth4N8SXMD+aoWYAx7xzGsUxjRz+xHVdTAZOOfXzinx8RWbBVl8EW3KsETwU8WfW8f79Qrw6RVswZdoAb1+mRqsuZQth11WIVt3UKUfgwV5+4zSwlWPE6Ap8XQhNHCk9OhY0Anodgx54HGoBqHkBzqNC1ZnsUPXytrhMNv2NZEK25X+KjnTEBU7zNbKbq1F3tfRxhbBlVqHCZzAD0PqY4VGk1XVYgTtVlBE6VT9KF2HDlVzmOBxgpZhXHSODfQFmTKESvbqgG96XeoUIwNtMYq5HVTWUPpIJy2acny0BiSqEHMNJb6QVxvqNGczpjduREwQUHswErlBmMIzQG9KKNHwASZQ6ANX/O8hcEBjVCVD/EPI/jDcSPU6JcbTtRZp/tZO9AEtqDeVoff1aAZn8ruHScXLE9yyE49ZK01xEWYpo9rgzVQtTGzc6M4Msbpih10wpDzghEbg1lBpwyMEzgAH5xw7vEIjppz1mbbMbZWrW3yLa1FHy2AHbRqZ54xrA24ZMm7WEZ70I9xkxa9XfdiBRdIOz1qN33M+SGM04q6hHD6DYFU7zYwu3MTsoxJuvaWY8yegrgqMzvcUSY5uCZCRpnugwZ3IIRTTO59F1HP62Y0gzFZljQWm/PS37jiUIaggU5bFaIsOPr6hJxxMsDItsRQ0kalbhBodL1OKNE/96FBmce+GMaDN0MnG548AAD6NI+WhbyA8pzG25+drvmhu0J5wid+o5UyxqF0mkDUJRqSw2W0GvCWckyqEbPsQhZxmW5gvGQPHTqYLr/iinRheSUtLy2lpfO8unihCcsLy/lb1LYtELKCHnHZhqdbPuWNjUuDQ+cm404oKcISa99ETQG+jKu+fp/ZuVFaHaEDorSIfGnYNkXaDJbTGqkMePx66nggt5QtWBan5oTrZb8newBMpoCvpJ7uOBKWqLpSgn7WNuFy5U/95E+l173mdenD93843c+jZR/+aPror3xM178//OEP641U/+Ej/0HX/8tVvEZnjCztgfYinYMb2Oj9th25FGiQjxiBGjjYzE62GjD2c93nRmd3bkLub+5XgzbP5a+4SmINZqczW1m6Y4Yckyrp/cA5SgeJAeHDnnScjHLApsG0fH0odeTErdPlDHeanOlB3dfAk48/pXtn7r7r7nTHnXem2++6XS/OJNx5+13K33Xn3enJx55MJ188kWvV/enKbtvi6AIv+gWgUd5dFQMjK7cBxw4w8nJyY8DZ+vq0LqDRfCtFYGbnHnedsiwKY9ZGXIvT9INOYUBOYMfLXl3L/U62VpjUsQrRZt0uK/En/vAT6XNf/Fy66+670z1vvjvd/ea7FEjf85Z7LH13uvn2N6bPfvaz6X/+5efM3t3VO2T298n5KGFxCrCg93EDLerEHrmIol+S5UlLD0lZD1ija9lzu5EQ4vka0afabn0ODUuvfYXpjKABkiD+7FMuGRXg1Zcow42qLMpbvulX+2mh7UL+zIL4yv/iMr8GwU1oWxV4hTGBF88T5jbbIsI2bWBb0mcC58v9tz+ysqlRcfShPXdQm9LWbEpCD5ejjfW2ZQuUXuPKjbaoN8aPhO4bPtsOudNYsLivo6PONQxWJQ2AKeOu0p25kyWYnmMMjg4RNgT9zY6Fbm3Ny6W+P7CTdTZk2pRlXefNHn4SP9xAZ0xyDOgqY6dyCiyM6/6YIrVOOZowMt3RWW+g7xpWbqD+onVrmxFgmHbPzczvaya6ntGx0rDDldBXxXxisHu+IsZ561Un6GDSar4RoL26f9P0F8318nn0zewaj7oPltYtsGPcqeHPoiKvsbO0ToqzTipXahSDWucKlIuH/JCQdcFoAzM7d3RmnJ7YpGPsAUzBMha0wU1PrFvcYurj4RMjQo0h+hDgnIV/WvDy+7BR/Yu+oG5TX7+jTZzJWzzOfnN20ql3kk/SHXEdHpsoLEzQrAFi25QMtjVpCCeVrx/oSE5mzOzc0naKjvq2xCgyXiaCyBS0qDdxIHpwx+1cKbg9veWtbzaRF9OZ02fSqZdOteHkS+nMKaOdOq2yc2fPp/MWFs4tpPMWzp2z9OJis5KjQ6mHujvOi1aJK6+6Uj8JwoMb9/zgPZ022Ftzu/FScb0aW8IjPv5sQsA3aDEp7skhRF+7bLk9a0dlxA11GCNNWYUJzTdozD1thT5Qt6o/0/3coudDXfONIgKDJwd+qu/JJ59ML774fDpx4kXflthK47/jslW3ffKYGbdtUqYvWPLZuQ9yHsQKfTQ/aSKk9Fd/9YX0lQf/uhmYQNSDVm6RxGN/+w/sTz/+Uz+e9u7Z09vGRgDH1L3gFnP00VbAdGOSPfHEE+mLX/xiuubKa9Kdd9+pJ5bAwtKiXp125dEr0wd+8gPSVdoW/QM8R/qr//HX0tHLjqb3vu+f2cln99cf/Hp2tp2NHW1G3bi6wlunkLrC2Noe/uZbbh55EocrZ2o5JpmrIZkkJVcEj5Hbdz83d0gu20TmNzRX81J/wXSsf81s5pW72W9HxwqMquQzv+m0R4YiRcctTMJQh3GIeODh63/39z5YZjgNfA4lwqjRJu5x4oWT6cknnlT+5QLOzIMbPJ3T2febXg888EB65OFH0hc//0U9UCyyTX5+JuTGH3hdes1Nr9F1bB504HG+xx+z2MITjz2enrD8iRdPpKuvvDpddeVVg3Zr0FOMbajXjssEGYaSg7T5WrjJFLXXAThm1dDMKzezThTyxAgMnhz4gVVWnxdeeC699NJL+at1P8ncunWbrdz+JA77ZJwSQ/JUDvDBGHXKvkEqaTjtE489kf7wv34yLaYFm7UcLXKhKQUvGuPMIOrSp117dqWf+dmfTju27+htZ62Io1JztBsD+vHZP//z9L+/8r/Tth3b0r/9pX/T6EUZK+ozTzyTfvu3flsn0upToTP94fuW//OXftlfGWHp+kQbg8R4akxNL2KVWKw3B2Qa9kLtm28eXrl1JICQ1QhZyACl7I1dubtP4qx6W9I4NHrkNCDF71A+ZqvIiRPPV87N0+9sS3batoRnD925Y+VqnwCJuEVfh0uaD3z7VDVXhVbm7Z85wKaVza5/eanIqvLDTVwT9mvG29Lm4iTvnwpsV7hH5MXnTqQtO7fo19XCRgA/YjV/9IlHjNkdPsYGkN++a3u65qprzL54to9dF84fASeknkpEM1vyA7WWx7n5hvKNN79x8AFh+Fk4I48/kEauRp42crxhzm1Y09Pvok+x525XbnPuUy+asr5ysLfeaoficG4OswycnlyZsHKDsTRrWE+qFHnTuFMH/ftkhOOgyz81ws4EgL4RgOj2V77aIRB16EdZB0QZiH210jZ2pJlUAZ7ox+l0lBbbfLrl5lvSwX0HVQ4gN84ddSNvleTsFodTN/SNcm5TZs3PUEppJZTtIEi5L6YkGS5H5RIZXAll14qOESypiWITicAWKCZOBFbmMh+hdoR/Upge6B2hVy8j6eSck3KLN9sJo4Lly63eWuBDGDLMRasvSALNPSOedeAjRqAGZS/LkoFjrvVLHICc3PsOWhKrATFd9mukmr0WiCNEDf33ZEaUBzqFDUpZwW/rgQK5jsFBJsTAl0490RkmFK8XZmkGnTU52dPzl/sz1JeSTrprY4AdzXq2ugarH3UtEwtUBa3MOTQoWCkn4DMb6uToV339Pvu2ROwWyFNARzIPoCOPPPJwevLJp9KLL/oJJTxLSwu2Bz+p1YbDxxY7sdxsWxF/WU9eqbBo3sJgfPJahSjjioiKPa19Xh4BVi9Wau5c89NG9ve23zQd9YwlCtgfX5bEoHWgYr9/gvb6EM6g6jkN0DHS0HvFG12yMy/csRUKhAW7VO/NJDTtV+jSTZJlsVuAck5QpZN4PSbECSVkqtx66y3pwN7RbYlvP1hODFl5+YylkSGShKhIMvGr9d+W2J5715r33OQt0HkK0CN4cuA6N3tud26/7ZL8X33hC97ZeTt04mg4KM4kp7ASBt8+3jmzqLWHa14UL+XeprebVxdrO3j8lWRmsDxBOEwhXvccG/O8fi/bWso8tDM3v6L6DBI8m3jJjk0WCbe6eukOP6etczOfbFyX9t9d95/Z1jtP8pbAWBRvs8kbb3yKN2vRHid5bCH0KjnTwdvyCcpAk+bXli/aREU27a1cWJYtBHQmWDLOU8oh9JVWnVHenZm006jLHjmPnup6UFb7bdL6WWwtFv4t56233mrOfcCZDLAzJJ7ocW5i5OY47vsmvTHObXtuOfcqfx5bdGI8IdPVoR7n5kucF17wl/IAXl/w4osvJBuutGX7NlvBt9rgZrkY3WRwsqozdzPWBQ2oibazdvLLK2R4bwcvm1y0IvRZScuLSzLUMk+m4Bwm7+y5s0T0ToN00epeWFmWw9Ae6RUGRI7uRkYvyTQeTRamsU0WOb6JogyUhqdexLHiqz9FPgAt6ka9WlabpzVv1zptdJ8AWQWbkJTlhYAC+9NX+JkHe0X7kmk0xowFQlsYy0MvdVT/qGu2hIeF4Mqrr0pvfdubjTel2269o9e5cYXeldvA0QqS+uYkpTds5dYJ5Rqcm0BXmmrokXkA64Q7d37j1KmTxsJAmMFtAJpvKLf4CsnhWVsNDY7JIV9qhAEVmwzRzVB156EbyfVzQskjXTNP5EN/FZmhm4HIjEwKRo/+M4nooupZIs72Y4CoAo100BEcX5+H/OCVXe0jPskzIhTkQDP4If2i3sDEBWV+slttmzPo57uNjVhvvbItH467bAsCE5kYOtermcRLC+Y8RoNHcpjs9iFPDK/aAeigsvl0+Ohl6QMfeL+N0+Z06y23z+bclo5tCf1+WZx7lzn3WlZuDRKSFBvQI3hyaLYlJ55PJ0/6pUD01Rm+ObX23BbzsxeUsYKwZwZ0zDuHM7vcurO14yrfZbGsE4ZkgKBoaOyv5CHlNVs+kIexKRwR66JyMlKOmpXLbyPVqVI2PgIfB6UyT+SBRkfjkXksXeqhI6M5FJORZhonIzCxLGbc2YtvsfFha8WWasi5PVE4tyWiPdoSTObGO/fo1+/ruucGrDvh3C+88IJtS/ruLWm/xOEQqEt3M1znDpUj38ub4xp9vLW8cYB3Gr4Y6A6iWkGPtsfBeaxyU7+/DtSQ191rA69MuVba4MvjGM4W+/ELtrrrYzT6O2nlFi03J9mWjpXbCKJ7coOc26BtSbFyt5uuGZF17aCmoaRWULMAacobo4f+RaWhTklOUeYrfT4hnFCnDjWg1fLGBfGx5w0a6TKfQ5+8vnaCVocoi5grSnFdvuQrQymPrYTTInTb8ytMlja5JT2+WFOfzD6k5fTZgWvIoYk98nG1gNPjXBpz6BsNFAllMmZ2bs1UJbwfJciXNLOL/atXurzdWKceS1YG++TmVw5sJSCsLLEyeDoCL45nS+CH33YVmRY6mpkhNeisfAQ5gAfAilQDvj76rAhHnYRw2mn5AXzRB86F4tvH2johLa6CNNItLx8xAjVxgelaXiNotPoSZ9UnlJZonLzec8crjF/gUiB7bnm5X+7atm2rHT526SX0rBIYU6tRXkEc3cEYGhjo2icKF9ODX/xS+l9f+l96dbEuNVqzmy5u4Z94ocVgEwNi3s1933vu0zX4obY6sJGbW5lLTzz7ePr2t7+duAmM/SlbLvrI9mvXzt16Qae2XFz+4/IneVtRuYy4zXhDhxpxclvqEsMUtMj3wU9QHSVfpJtthOXZW0faQ2xPGP920t9y862dX1aA2iyU8BGTt0T2DCN7LBmZ/l1+4xR5C0ZXCXpkHoCp4pcVuJ/7ZL7OjcIMvN84Zc5tA9xc+12Dc0t9/iz+yEfuT2fPnrXaJs/O9i/wfm4+FzYZtzH1+JLemmpy3v+B9+mF8ENt1Xj22ePp1379V82AprcZFjWYTM0lN0ae9ohZVcwwF1nmrD2cnJ8p4fdw6i9zgPpkqHUp6ZGuoZPUol7NR36cc7vToazLirKbzbn7bpxSl0IezVoefvwC55YJkJvjl/PGqf6lY5Wgw4pROhumRq03HVltZwBtcWnLZl1629velvbt25d27t6RttoRYtuW7bai2mq62SeP+PkU+vH41tbtW9PefXuVnwZRn4nvrxS29vPxWY5t/dHtqOiWB57B1kSzmCt5Tz3+lMr7MGSToA3VAxwpAiWf6xL5VnZMrihTG5Yc10aJGOURbiOgCeUE5ve6OlsNZhZf4hVY1aXAC2hKNYqwTbVyc1cg2xJueT2hS4EYzU9imm1JXrk5NMf9Ee2Adge3b6ADXJn5xH/7RLruVa9K73nve9KivtThOrBtWXgDEaqhlHV+mYdmzdl4Ohyf43ou+Z3bdqY9+3ebHqzw49vDBjgpe/mvf+Pr6Zvf+qauJ8c1ZhyXW2u5ngwfzq/Lp3xZZG3K+W3l/tEf/dF09OhlkqdvNg2T2p2E2I5IR5NFXKZbOF1BK2k72aHp3MVWVBzftyYX0q233pEOTvP1u/LeFnLVI/JOUhl+te4rt8lf89fvBLrSVEOP4MmBbUncz32CX/syx6UknHvHjp2KY1siB88rq3es69yBmoaB/viP/zj93df+Tl93//t/9+/S/BaXiSL6JhVYhKNJV0LOWy9UDD9BXyhVbdSg35KVJwsnpG4Lggsn29jH0KYpsBUsb8H+xyc/lZ566qn0Mz/zM2nPvj2a5EMo5Q0hnLtE1Ovq447ladPXxi+2IKB9WAE+7LySbrvtzl7n9kSPc1u63HPHiSfpjXHu0evcMx8pwgTjmqdvii2Uhz2SXpYZDNAJqwFGYLVkf42jXjALMlEUzIFYibdwAmcrI/d3cKKnW2LFM6e8aORN1jRGFQ9s1hb1dB5hJ8e6l8TOJ3jogZhHyDi/IHAviocdafuOHdoqPfvU8fTtf3gonT1zNv2JTdDV2mBaoHfZvzof7fs4afoa/D+LUCxyNVoJ/aB8Es/6AP26Os6+DRqjbUvGySLXNhrjxxYlnLo28qxgGHBsTyPbZSmtVBfR3lraDCBDW6pCJv2OCUZZTJ46sFLpGGg2ID0O4XhrQWw7Skiu/43YA1qn3QFzFRxdWAFVynLkrUdfBlH1YXbnzuhTsdsRN5hoOn4p0bQfzrBmmAjJIlEoMI384JmGdwjj6k6SaTUn8uAM0Qahz+5gktPU7cjZB6qEEzJBvZ7pgH17MF77tpypNV7DdUDVwMzOrb0ToadXJalZubPR3Ug2OFP3cDpGtSJWGwAbjMDUzXyXIByqRu2U3VyLmg+U8ijv5s1WPcLEY38deSK1dfswIsoIUUNl5EeY1hHIruTP7NyNwj19bUmlIS3OjfbYv0F3T8dA5+QEyOiSa2tLYb0+R+lD3+F6o4Furd70YQaMMSLnDTp3IFMJre0RYkZPQl2vmAyql/N9CJN3pBSs0OsWNgQoUs2e2Z2b+llGV5TnOzTrFfdM28l0Nhb59e2qDae3Y7OtfPk8g9x39aDG0KBtJNQmqo1Rr3GsAspP6JMu3ZGwJsb3rb8szoemnfRxFaSUVi58ONg4LdYNNFp9/T6zcwfQv+iDEDRsimG5hhwGjoHiZAr4ZaJWwrjr3OMQK2DzrWAGjh1XasaBdsKRIozDuq30qDZGPfQqbTBJrwD2LXnrPpF2uU7r2ghau8cPUH3oaom+wzI0pZZnGPA1RhprrZPFxoNGqy9xZnZulFZH6IAoLSLv10j9UhkoDVWiMXph/FlhwyCFrEVNplkwyVFrxwBDfRmHWoYAafXdHotSx9pRAer06lSAGlFLMpqrX12MrNyWl48YAeviAQQtrOObXBvUQHc8Z3duAkrSAVFalHmMpy8GaLBp1B2QMre3mySMP8ngfcCpEYOTy9GhZTmTtiW067q4A0SAVtJL1Plp0FsH0hhRoUOkpwH9nabPWK2Dop2oTjTNtm5k5TYUB9Bm5Z7Q3bVjPVbu6Eyfol3akGOM1ux3GMw12biwsB3ByW1oM3E2MIiM48t6cjlt96ZwsLUAq9kAKK0rKCA3aSPoiTGKxmrcGcGCHXo4GePcP9brAfrRHb+ZnVsY0C/6hP4aFAh8e0hSDiSCOliOWblCBI/zO20szLq6E88+XJetMdVqpv+u17Ro+7N6mIScGsUsukzTx0BzI5eBfXTrwAAbtG23+vnRrA9BHSk1AlKgR4vrYbNhWGux8mbM7NzMVNQrDz01av0xlkLHkP1oB9XrTIbx5ZU77o+Yrl4/BgdxHQcGR0TWJHtM04/QaZqT5wBVBvtiZL9ZqjvZh+SPa5UWKCcwMt11db1hra3nnrtG2VFuhHLjmKFkLO7Ai+46wl7TOg18Ne9lRy/THXjbtm/T/SNsLaaV14eybrQ3JI/+9ZWNq6OtD2UyZGMAj5Rs2xySUSIcsFy5J9WnCvU4SSztpTr2wZFrZx6SNahhdM0jz3dFbgC67jyzc4eyfXo2ZU3HoFhGhNEaYbByhZgF1OOl6B/88Q+mD33oQ2lxYSk98FcPpAe/8GD6ype+kv72b76avvXNb6ZHH3o0PfXk0+n54y+kkydeSqdPnUkL5xbT+YUFhdIxJukiB7AQfMRBq9FHh5+g21xzWbwcfnVWWD2kX053oD55MvTv5TNM0vll7VPV2AY+ifNEep6X8pw8mS8j5VteeRJn924Nrr9GLT+Qahzdp3FMtNJtPlDyoBO3ZBL/zu/8Tnr6iWdsxtqcNRY05KO8gcfMlKc9Tp54/Mw+lx+9PL3vX/yYHlMqZfeBdiJ+7LHH0vHjz0meHuA1J+VVCDzZH2+k4hUW5Dmq0KZuS8B5Vi6mT/z3T+gNAe9657vSdTdcp5uspkVWQ8gjQcL7XRZmtHr7oZs8YxtbJA++ikPnOVNsEfRJ93OL1uStDnmLRS/yG/eY2Tq8tyScO+jyveDJIe7nbp6htEHFwbnuzaDv3r1nxLk5DHa/yHE0Z/AFap4w1G//9m+nZ558plMOPfJ1rLJ88vC+f8VjZje4841ByHvuuefTr//qr+t+bvIhE6APefpVpiPevm17+pcf/Bdpz949ZucL/nL5TS5jmr0zDglXHoEG6DaEKPPYx5IxJA4Hh46+8f5AQB66v3Gq/xXGxuS6WD6cW2Tkksgx9A19hlLOvYZXGHPRXrrTESc1KPOtfiQ8410ej+j0NICP35XhHSmnT51K73//+9Ldd9+tn9Y4dt2xdPToUT38e+DAgbRnzx49u8nqzE91bN2xVft0HjHbfWBXOnr5UdMvBnkYGD7aJb1pzl+hAKCLZitw0MhHHfrGIJ4+czr93de+biv61rRj546UfFfSi0n6rBbIDX3bvJLNOEbb43To+/od4PgUYYW6bGNAa34ECaz6SRxLSJw0r1buzhunTrxgPD7AurHfVu5du3brcB1OoJAdQE5hMsPofSt3ic/95efSl7/0ZTnuL/7SLxoF/VgtrZ4pY+uQxSbL+q1VyGh+H4qtuPnSEXpQ9l8//vF0w/XXp3ve9CbRvHQU6Mlh+9v/+O309a/+fTq3cCadOXdWry1jJceBeb0EHWn70V3d3/Nj70mv4wFhO3KBaVbsIZTnDAD9agTNY18xAXVlF0NsL8i3q7c7/S233Db4ywpWQXmNmyWoJ5ObXzB6yhsddtIb9iSO+cCNN96QCehCCxWkwBR7btHRI6cB5uk69wnvtAX2lGxL/NfM/I1TpXPDhzZsDaZxbgz0p5/60/T3X/9G2rRtPv37f//vslP6FkDPUFbgaXXAM42RBp///OfTgw8+oO3SL//y/6UVfsjhsEMcyvl5jQsXCcgzfpswTKgV2ra/+YubzI7LsiUOQ8z+e8/evekbf//36Tnbs7/9He9Qu2CqbYn1m/5hdfgnOXeZ9/R452bMmbxRj3jIuVm547YH8n3O7a+9dl7KNsa5L+ZtyTo9/e4qtyjzMj6dlLt7CXmSThfB09AHEAbvgxzYymlDjmWBiaITWPuzU7yRQB2C8nliAd4Wu4n9wcqcOWF+gaVKHKUDNTKsLu875Eesttk+mp9E4UeaeJRs147dmsQ7dm1Pu/fuTnv37UsHDx1MR44csW3SwXTihRPpT//40+mvv/y/0l985i/MoawPWX4Jdz4LxDlY47m0qxfos2XQPHZ76/yGYBT6EsDpuM4dNOxPcM5R9H39XiJGr3H6Hv3WB4xj151ndm4paTG+VKMkxWrg1KKkp16gOUmdATK6dOJDm8MNlINYwlxcT60jZ4inHJS2b85PaF74Yw6jSWN5P5H2dGcLZoEffMUzqPvc888hSOkSTZuVSnKSnK7Rp39L69bSDW457XAd4C77q/qjYgX8QbFHI4COk8E2vEytB5DebWF25yagadcqQknSlzhwa9a7seoqJSVWpIa3E3z1qOEyWbmtLn8KXqcPNT142aPrv7Xhh8u2PFZLBjjS6DkN5ChyDJy/W0e6ZM8or1rE4RqoriHyJYZoNT3ybr9K3ogMqz/i8M5fyw0EdaTUCLQGPVrmgLpxWIeVO1xskp5+KIWba8stoA8h3ks3E+wQEl+/95h4auhdLBsEbKVJUWJA3SDDv7i0lJ599tn0vK3sehdLhWX2qYuLg47Xh9J1RyeP5e2vlDdJ9Dg/oCrlOBkxS1e0uf7Ad7r+M7NzZy2ngK12+p//NVbyWAbMhWFMDtekI9SIFbxdyeEx3sYxW8VKOX2yStTlQ/x99EmyQc1BHY1xVtc0FM3pTmQF/x//4490Lf3X/uOvp7/8i78ULcCXQJ/+1KfT/fffn55++umOHpEOmW4r8hZbUdNGLi8djjS5qOtlbXmNwd7nKsM1u4j2Vg9aWuPKHb0ZrwaKEvd0baAiA9esbiWPpcfvxb2NaY1YwweeEyjPlwiDl0aPbcO4gSidcAhUdzdy1PK4jv7Nr38r/eiP/Gh685vfnL76N3+rH1+FD4d79viz6Rvf+IZWb2jxLW2gTXus/X/VSbZKLQ0+C/bHOMjJrahdRPrRY7YRZMkbjtKeYGbnVvUeTbsdMC4Mw8eMIwORzwbvDoLHYeSmxBK6XMWq7EWqV9Z1WN7/xqK/bttuo8gAoi5Hl0bXgTrwgLrNvjxgUFo1nAcZe/fuTV/7m6+lRx55JO3Ysd3oXn7+/Pn0B//1D9LyhaV0+623p0OHim8Os8wuuHLVTkpCcx078zdl9vEj6OQJWiKrPwKk92m0Mei2NPvKnTGuM4IlsgsoYLh2lbA4G7IeVDew13J+eOHoRxTJQSx2GcMDQ3kX1DIzlJd/xrRXl7V9mg3eS4enu3K47s39LlxqpOjt975Dr0mmb1/+0pfS2VNn04H9B9Idd9yReLNW3/cB3lcmTtW33HQkR21Cv3DwnBmDMNsQK3RYur3bGNQ6zOzc6kzWtFS47gAGjT2dthv259ek8xUB4xG5x4KiFXTyJV/knQ8CfybXgo9jqckoyvoE53b5kjmmOu2IJ6OUU4dAX34UXRqr52WXXZbe/8H3pX/5gX+Zrr/u1TZYm9LTTz2dvvj5B+TQP/RDP5S2796my439kwyZ/VuWWofIskSU5c0CM4Chr98DONgYc64zun1a9cqNmFJU5KMj2ndmAzWG0v+Iw6n6UcqGsR6MgA2DTii5YsLX6c7XzzsEuNEl2qgP4UGvMa4s0Feuia8JnsssqmWRxmm5TYFbFviCiV+N+OM/+hNdN7/pB25KV119la6rB3+N0uE7si2MToa2r3W9CysrJDKli6EvcdhN4lwcQ2fb4KwWKNJ155mdG6XVEZOlfuVekSZEJzEQ9gg7+YmYpwNa2XWN17tfD1CUS6gFfelQ8fh2xNoyxfhKPRAD1abdYfsQ/aBvjrIn/QhZ4QjRXtkG6VEncuhLHm85K9APv2tyU7q4+WL6yl9/Jb34wou62estb3lL4sdakT/URiB4xp+YO2KydCBSfxvjbpxiNHCwVa+gM2F0Gs3u3ATrUDhCf5eNngua69oQ8sD71YTMMCAgHIWvgnFyglhNhCZEdnp+kddy1hFzlmLfLGfWhKKtcDzP14HtEvfMRHWuIhh7B6FPhMZhcr5ESYt0GQRry3KeLtDhKXD8mePpwS89qFtj73v3fWn7zu3Wef7aWwqjP5I8ICcQ5SVfTADypANMwiLbwaSv318+jE6jmZ07OlPDTdr6qr+32hJ6QNj32VqJCZDleJbOxiSMQx8P+Te+4Y3p2LXH0g+8/gfsLGxONzLFO7P1iYmQUcrwtGvODV1AgzrQxxKSX8iaGVYVp5kG3Ovymc98Rl/YXHfDq9I1111tK2zWdT2Ru4Ne3jcnjOvnpD03wMJDfrN+UCuezFjFXYFZQOEwWlktRn94uCvQn1J5Vr9DGYc6vyuw/U0cv9/CX/FLZQbLB8z568GLvFZWi5kgHBmWl5Y1TXlI4nN/8XmdjPFEDPdK79q5Sy+65y4/bm7yW23n0vxmbnrakjbPb9VVh4WFs+kzn/2M8e9MP3LfffrZEdeja55Wp65us+Khbz+UPv4HH5e8K6+6Mn3oJz9oduBqCKsmHC6flZhbev/yL/5n2rtnb/rxn/iQHnKIe1j8qkYMaujUjlkJ5e2vWWSKck4664cUxGMxuP32O/t/8EkJ44VoeW1bqWfpOGqT15EeuoX2Ngf2835X4NLSku4K5JeM63GfCtZg/bDC7M5NR9SprLBBxrJYZON/5DuP6qdDnj3+TDr1kj9mhsIMxvbt2+Ro/AJY+SSO7kUpHCcGGBrtlh0u07Ss1dl4PvKRj+iki3Qg6tIGBm3lUdPk25KyZduW9HM//681GSjn8hv8uUeSM4o5PSJ27tzZtG3zdtXTT7RbPepyKY9bW+HjFt6YyIFTL72UfvM3fjMtnF9Md99zd3rTm++xibc16+Z2pHl+wOr/+39/VRP43nfdm95w8xv0An1uSV1eXtaDF/CX6PTf5GD/GMdwbBCxO5oF4ynLdZUl1xtybnfmYeeWapZHDHRzuA1ybm555X7uGR8zCxYpg2I5jwrQyDVCjP9Rc+yHHn44Pcdvv+Pc1mMGmMFlwFmBtGpaOpwbWfGjTMA72HXuMl2Drchff+mv04N/9aD/VF+14yrrdeqb4vTgn/3z96YbXnODrZ7WTp6M1AlEnaAdf/Z4+s3f/E+qb9yiuSUyoCPHPvSPEM9VHjp8ML37Pe8xxz5vk+NcOnTosJXx2F2s3Na22Z8zgd/4td9Mzz/3fHrta16XfvTdP5I2b9uUzpw5m37jN349LS0sp7vuuiu97R1vHdE3IJr9MWZoCQe04JVjRt7+dI6Tnd0ZnP/W2+5Ih/cfdppBchqBrXMHP5DcHPtCaHnzj41xbp6hxLlnXLmDRcqEMUQx5HSTN35W7oce+nZ67rnj6aQ5tz984E+8sC3YvXu3fk4D56YjsaI17xbMzlXC88Odls62up06eTqdWzrX/OA/Tu8/vGrGW16w7ceiGXFBK+I5c67z5xfS0SNH09vvfbut3Nv9K2lrP/rcdCw3LSeyz1NPPJ1+97d/V+XxUqBpwcC+5W1vSXfceUe2jR+5gPpJmyspff1bf58+9clPaUL81E//VDpw8ID0YDtz6sSpdNPrb0oPPPBA+smf/ol0+eWXN3qH7dSHrP8k50Yn9SWXh4MrtjG944670qEe565XbsloZLexO7en+x5W+Cd17gjqBunWUh5Z4JBD4qFHH0kP28r97LNP28p9QkYHDBLOzfOMfNsWP+Gsp2dwKmQQ07mif95ZQgxcUSiodcWcUDqPDah9JC+fzehyYdbRjz7keQ7SJt229rKaS4p2AXzdVpdsIv3t3/xteurpJ/ULanwlzv0gnPQtLC5o0FgIdP3dgl6vjAxkWnzvO9+R3njrzfmSoB+10C3aXLBJ99GPfSwtLy6nH/6RH9Z1bRYD9Phvf/Df0skXT2qCfOpTn9JvWl5//fWSQ3310cB/7ZkzjTI5cQHPuzPHHtkd2p2PgK3uvPPu3idxBp3b0rEtcTkw2D+jbdTKzbnc61br3Fq1Kdd/JbzMc3qyGTz8nUfSN775rfTii8+lF194vnllA47NiR4nbTpE49xWJue2bQSS4GsCMotVFBpp4hKeJ2AwkUZQ1mllEKjQttnAkq5BC3J5GGWXZdvz+iBZYNAKh2DAlnkEzQaPI8fC0nlNCCYAly/5Qddt232vHogbmbDD8sJK+vRn/lQy+SaSp3y0fbPmn37qmfTxj39cE+ryKy9P73s/r6XYJf3cXkhDD+9rici3sescJ5O0z167cb48pneZc6/2F4RNkPMjHzttiHPPZeee8RlK8lLElAK5K/TCaG31cO6njz+bHnzwQdtPnknPPPO0HHgzwZyb7UhsS/wki5Mv35aUd67xnzKZxf580Ik9XUPlWc+yvI/Xedq2aoyTH6jTsUJS1YuyLuqJcmZsO6nl2UojbZnb6u0UpwZxFUiroYlbXF4UL3xxdANsuU6fOp1eOv1S2ndgb9q5Y6fZKmzoPDWkY0fnPJZyMtrL42sZaASV53p33XmPbUuGV27RaFoFVsfSnRNKRZZfZ+eOHlGDK2Plyt096+rBaEOWVwcI/gBojf379+crIrw+YYd1xFYCOmbcSLOs02RLXnfAjfjejgxgbbp4DG2prAP/Q58wjGc8D0p9JcfoUebAAbuO7atXlmWIOmWIwYiQOfUfWfyOvVbWvH/G2bTtgm5B6c1WNr85bZ7fIsvbEDdyATYi71ekLuqqDVu5cOymbau7c88O/Ujrju28SKgdBcqRUevrwfvpwe2HfVXGx+j6jkAf14cy76ePS41Yvb0HBsuH06NV1N4oNPKt0XmzbYmJKzc1w1DalqA8VSTVq4ZbxMrNFpd7j//mb76aTp8+bQUcnt1Qup7K7LV4eQlDto+hscLjIA5eXo+ytmpt9sN1XC7EcaKOX3rjod4LKpduJSwbe35Pu8lVF/MzClAsQo5Xd5oPZq7bg3C4GtAk38pdRhdB87rOGytvyCvrhaxIR4wzxoQKlPWDJxBlwFdqb1t5xYyL87PgeH3aTrbnvicdOXCk5ScYnS9xmIxoF06tepZm4sjalkeqZKnd9Vu5S3CL8A03vDrn0IUWKkDq25YAaDivfAI6kZLWkSwpn795nRxChuTBgxxWDusoMiXXynD4JdvLrqzkx/3tZO2int6dM7odpk0GhuCS1TIGsXJO4rAu8mKP7vtXd955O2Gcm+fnnsn7ZCCN6efn26MG/Bid8hKl8wTCaUbL6KeXh8OWQLd68GQnQ9+gog/0tsztqFQji+A0R5tveM22kE2SaLVjo69inM/ajHKnp3TP3T+YjhwcdW78wLhFiDwVwrnFa/nwDdI+1rM7t0R7UpOmA2tQzv2a6zIBXULbAlJgjHNHBWjh6KTpAGV0LBCdKqFZbB/qwbrCv6hjchiAOKhdvMiPkdqAYD9zcmuxNQyxKeDXZm0SWKwvN3B+i5kkSkM3A/LqMh2GE1+AwG8rlBlTv92ukz8LRsRhpVI+ikRaTkba/jGJwrFYPdHFJwXBOx2OX0+EyDsv6PKDsDdlTscWTgl+j1s9Qm5bt0hbRM+VJMr5sCPEyMfJpRw7j//d5txHDx9VWjIIWX21a4QLpqZ8wHikidWV5tTxakqv1rkn4dChA+nYsWM5ZxaxBnKzLaTAwAmlqdQoqtltMYeaGNLSscN5A3SYGpoMUVCmDW2SlCTmdIB8iUIQ/y0qbUNeWjJQ1hBGdcO6o3sfWb1tknFNPBvd71HxB3AxPM7vj3n5K9HUd8ly5whb+Z6Vw7QpgSLGp4nBx/La+khXG/g8GbwMdnMFYvtk95AuHAF8DHwVH4XTqIMO4qEJIulJxknkSzRO1oldjuoi1dJvugfnvrypz38tbKSNHwLj6HlqWRztWr5euYlpa/2c+2K6/PKj6corr8x508Uayc22kAJDzk2aTtAZ0pmfvOryL+tWr9pkm/pO+q6F+mRKWtSAwWCK1nvGOGFeXnL6BTva+FEAO/JqNd9i8bpkjiRcEmTbxeQxNjl5HMLD5m7Q7KgGnxh+TkK7XsbRRKWKadsnhst0OV7Gagy8X6zyLkN9yH2B5Cf6nFgGjXAhvfkH3za8chu/0ORpF1nWlgiW92qqv1HOfc01V+ulR4FB5162QzirEEqRlzLMaMWutEXeQetEdDRQrtqsZQBnxwylc1NCOiaHU2pUwntQ2gMJ2dwjNcv2ap2jbDz69AtE7VEebAVd9jN76a1WrLSmRBwl/KqRa6FtExPJHGCZCWJHEMr5uh5HOHPmjNXFMeJau62O5uwuk3S+FdhUYrxi/4+dmAD67sHy+KF5o7ZzWrGNl9h1sXI54nx6z7vfk3Zs3SEaULXc3V7nJjZZ3obnZXNLT3Lui3kw203adOBkkn13YFXOHVX4T2BbQkc7DmUFoZzVsjpGsgJX22NCFtXQ1wOulwtWG0rYkOa2QNClU6Y3E8Ty0Av2DUWsVAx2rKqcEIdTODwdpGVzaiyLX/GuQiYDRwtWXKU5FzFHoXPabhn/giYI7+Rb0G0HfJPKZPHzEiaXjZSNpa5kGZ/Usglz+NCRdN997+4ciUliI6XNL0rIR4hNFj4wq3PHQGTxY9Gu8hfTzTe/UZdNA1M7NwoBFCUflXTCgHMTQ7C2wlkaLotUbmVhoGkUXxfQdm5MEe1H47lsRJemjvfAy0e4+pHZqEcAdc1W5noASdFaSGaMogW8n9jG0MbNBrwdQxzZHBMn05GDK1U25stLi+mMOT3nGLt37dZ9K9u27bCxix7l1nITHee2Asm2snBu8qqQ0+uxLal5cOqbb35Dzjl6nRssWUdpmOJQCPgqTFBW0Mqd05xkbMoZ8XqyQb0Pf6WCbtJ/DYFlNIlsQLR6GQk6QW5BWdiFdE5CCvJagOyQOQ6Mq44clsbpvVJbc+zKDYG8xfIPS8/q3NyawIK6Gufevn17uumm9g2vIHYOI+CwOA5NaVYa0KHSAM2AZUxW+ZUD+squtgzQnJ5tYfYpj2RyQvIEvF5p+1c4xzSIdtSGIZxwkoxwGP23tJ+wRuVh9E2eaGoGtacC+vQFHkjRJCow6NxUKKEvQAwxACGGw5xiCwxUWQsZGlijqywqGUhGlnFsxjKHVwIaW1iCdNl/QcTWwdsKhlynnRzON02IMSIETSjlj0GwawXO49vI6AFFZbHr7ajLArUjBsxVc2oUtU8GqHPw4KFRn83xKMI6FXS4GW6/A3Wg6oQc2eqvmGwF6zqHb9LEEYY6fwkbD4a3HnrGrETwaDI5qXEZqhIADlZVnQk47KTAI4F79+7JNVoMOjdrxfxc90YUEB2Q0pyQmOaE6AwxDkuoIac2Oic0IQfQ+XplCN7VBsD/SqxQ0yPfx/v9hrB7iXp8mjHPMWid2s8zwkfWA+HEZZrFz1LaUezbt1fX9WsMO7eVzJfTckrATrUwhjpsinCmjtE0KXLZRoIJJEe3xsLhIywbjVDTIv39DA25hZXsGeGopVU0thbCsYF+gSXnxWtpjtKeLBgH0BypM2vp0H3AqSnnzsnDh9snhEoMOjfQ/RNDioUuFiso0yrJfxxF2wwKLcxbb+ENBx8X6gkShiqRi8Vfg1VFOvWURRsBqQfNs42TDwV06aMT6O/3Ihr9bfzoQdhnXG90vsWF9hoY0ooYZ/yh8YkiDXQJGVqO7Z/oQ04th45Pdn5u+43nAWqMd26r7LdUdhsr86QiJyUtDkOVwFjF5G7qDYVA1OPyogyexYqeaaqT6fBqYhTpXNSgbgPU+SFoMEYkdsFRiu8fww5lgF6Wlfly4F9uaCGxEAvROPvIneEZUtfodf1xiH73iQsnjpW6DOyzeXaAdF9txn8s5vnxz2I/o8HNoUTk4WyCkUoHNN9vVmC4MaQC6RwCkYcvmiodWXEOQDQxd0PDP02AtwggdKjRRwPQZznpLkFb4fSrCatB1O2rjU3k9BkxJhiHVTu+31BfSTDABmUr/ygxrgzUThw0xewmLHASefXVV2uv7WVeXmLwS5wAq/HiEjcCXdDFdy68Bz2AiCExcEfTcJTfZoUDyLHY5JPWf+cNqF6lO3UC1CTLRAknBbREWVV1akS70VaZDiC7GXBiQ8XysgFHxAa0H7oEQqeSHnx9/LKjBfU50+CTjZVpx1y3upoRyDe8uUyxJ5UmNF/i5C9wuLdGd19aGsip+RSOHWka2L59S3r1q1/d3C/jI0B5tO6Y6NwAh15cWNLNNbVzh8Il9O1WRpR0m50dfc5dTgjaCZ7GGfkXhcDSTVmmu4QpYLzNQCNDCUOmg7qM5NSwOuP4Q2w4XImmyaKsYunIjrKoF2VBl21JZHmkY0SVZ7wZ95KWV3HVMzR+EUwGfSNpvkGscquDQ/PCIZxb95UYcOTYhkTeE9yzfVD7bEgx/m0j0bpjKucGKKR3fiza7ELnXI24dOYSU4qeiKZzE9DXxYZmMkirzBIMiJ+eOEpN+2hDgFe9t0TjFKtE3Z7yWS5pZBNIl04cZeJfA8bpH30UGNcY/6AVi12gPLqD2rn5qn15mRu2uJlrUSu6zvHsQ1yCNwZcddUVei3ItP4wtXMDWJfMuXmZDbdEek0UNUG5wbpDI6j0mlbRIcxSH83GcWugjCluPejtSdWetgIWU5cSHAQEF2XdGm0+5NflghUik1DuewXaZCsAnZAFsGVYC2p5AZGDxmBbgCYEvXZusTVcShO0JTFe0qzUy+bY3FeCX+H4/isReRuSZfMqEN6nuHUr75aZ+lg7m3MHmHmLC8t6rdfKBZtxy7bXyoNeO1vko5m6vEbZqcaCVZVJMiZhrfWlVhYRzhwIJ9AqaO20TmEhtxvOGs5YOm8kKYrjIWkCZQWrEGUbhZi4tLvZ/sVRWnoYPfof49vExSIHLYJWbttr40M4OluS2Jpgr3LF5p7z/fv3pcuPHlV6VqzKuesqPFmi15OdPd/piHE6g1khHGooLlHT+niA6P1FIxiSMStqOaUz9wHyNC2zx4yTQUCdMs0EaBwtC9QEIs5pQEQoXYF6s7uGy4kJqMgcMpCbcz0Lf4h0n3PHlqRxbtuWaNXmpNLSvKTJG/JbWF917Fq9nHS1PViVcw8hOhGBDiznPRWd4MZ47jPmcax4OaYlVDf+lw4bjlSeXAwhyifxlSgvcU7CLHJrzFK34zSe9HQWgROTlmObXYIONAGqPDLgUdpi8qA8WvShlMOTNkW2q0t2n4gDsfVQGn+wD/5AWk8e2apNHFdLoGvVNtm88+bYsWuKBw++C5x7CHUTkSfWAxHWcWLruxklWdr3X3oo10409FhWPtnQ6JgBmlPBnK5PQIacvZOPZKiX843sQFllBkedhbdGX13UDEcNJ69RdaUXksGCEcwVYutRo+PUJIpxLcc4Vm1oTbBPrNrh2MssfLbvZuxjAbv8iqPpwIH9lWOD71Lnng6oYdbLUQ0c3A3lRwPAPg3D8MQ6T5JgHPIcJXyimCAbCcQ1zgKJj+VLByrToC4vMURvMFA8sZ5hEs+AeTpYDxnjULpM7T71diS2Iho7FimNl++1fUHzMv9S5ipbteN942vR0PFd5NyrQ60+eR9c7hzzKzn+CBWvY7hgjr9gBuWhXJ8orCgY3Z/6huYh7qupHUX0ggaP4h6HGjqalDr31RMGyGCwzhRYTd0+G3dA1sTWjk3A5oqrVZvtCHnA5b1rrr3SdPMj8yzbxXH4nnfu6ZCtrxjD85/RwJIiGTzB/hKH5ySZIwQTg4dpAXnMpdcmWEz1CytcP/dH8HBmObv/2SDh3NG2bwUaiMfpJWZ1viFHWMsEmITGZSwach+c2G3UdWxsSJ5Vm/qXHT2SDh/mQYNcsccmq8X3iXOvHWGm0mlEs78YSLZDPH3OecKiXnzPwDIhxG2BF2Hy3hFLFmPIpGjk20eTZIxzlmV9fKINV+8g6o9zg5on+l0Duj4Wx3YDvnDm2GNDZ06+6rpXpW1b+ZFY5LOKz76vHodLzr1uwIytE+AQYdpu7PRYzRhs0gsL/v5u7UktwKOTrGa8ke1HhqC1RwlvF9BuM1mqskA46zjgcOU2Ywhl3xSycytou2f9tK2JTiCtr/Rt37596YorLtcRsNXFbbOeuOTc30WIoYhYjmGBvDu8n1hz/pDm7PxhkZXQjxbxFl0cX9uf7DQxAQLkcajSwWtnn8b5G11xSvTKe2vRslNzRGMCR5of++ILmW0W+5Mzk9tZCy459/ckYshwDpwKp7ekxbxcxyeEX01ieONtUs2brizWCZ3F4celw9vab/8JfsI3eIJnbSA/Qji40uhg8klv37Fdq/WePbvUXjt5BuSuEy459/cZyuHGAUFshbQn1km0bZeWrGzOnBMnzbw+aaiDU1LmsojcX/2LGCYH16l5mEA/ojXPi/k31pH7cMm5L2ECWH1zjPPyY5sGd/Zlc1r/gQB3d64akXaeOX0NGu4Fx8vr4Jec+xJescjn3ZdwCa88XHLuS3jF4pJzX8IrFpec+xJesbjk3JfwisUl576EVywuOfclvGJxybkv4RWKlP5/rdSDnmd4XjwAAAAASUVORK5CYII=;" vertex="1" parent="1">
                    <mxGeometry x="38" y="130" width="42" height="44.52" as="geometry"/>
                </mxCell>
            </root>
        </mxGraphModel>
    </diagram>
</mxfile>